<svg width="132" height="131" viewBox="0 0 132 131" fill="none" xmlns="http://www.w3.org/2000/svg">
<circle r="65.5" transform="matrix(1 0 0 -1 66 65.5)" fill="white"/>
<path d="M50.0203 32C50.4509 32.1537 50.8987 32.2719 51.3094 32.4675C52.9683 33.2573 54.0053 34.5554 54.4019 36.356C54.3799 36.7038 54.0961 36.6585 53.8885 36.6643C53.3666 36.6791 52.8424 36.7176 52.3221 36.631C52.2125 36.599 52.1188 36.5405 52.0397 36.4591C51.7948 36.1375 51.6258 35.7646 51.358 35.4549C50.0591 33.9532 47.929 34.0916 46.8259 35.7442C46.6088 36.0695 46.5284 36.5865 46.0545 36.6167C45.3683 36.6604 44.6595 36.8373 43.9915 36.4932C44.2628 34.4331 46.0592 32.5383 48.1343 32.1208C48.2532 32.0969 48.3961 32.1328 48.4778 32C48.9919 32 49.506 32 50.0203 32Z" fill="#183B6D"/>
<path d="M52.1104 36.394C52.1447 36.4194 52.1791 36.4448 52.2136 36.4702C52.2597 36.5312 52.3077 36.5905 52.3586 36.6475C52.5479 36.935 52.5211 37.2629 52.5214 37.5816C52.5254 41.0085 52.5247 44.4354 52.5228 47.8623C52.5226 48.184 52.5139 48.504 52.3988 48.8123C52.0594 49.7227 51.1646 50.3254 50.3163 50.2102C49.3838 50.0836 48.5756 49.2026 48.5581 48.2C48.523 46.2085 48.5375 44.2164 48.5536 42.2246C48.5567 41.8517 48.6026 41.4609 49.0578 41.367C49.387 41.2989 49.6643 41.6849 49.682 42.2617C49.7192 43.4819 49.6818 44.7033 49.7026 45.9237C49.7077 46.2238 49.5588 46.6388 49.947 46.7767C50.369 46.9267 50.8385 46.9025 51.2751 46.7731C51.4943 46.7082 51.4917 46.4691 51.4925 46.2791C51.4991 44.8229 51.5509 43.3648 51.4714 41.9109C51.4211 40.9908 51.0212 40.2091 50.1796 39.742C48.6252 38.8794 46.8045 40.0024 46.7513 41.8756C46.7075 43.4166 46.7425 44.9596 46.7401 46.5017C46.7392 47.0158 46.737 47.5298 46.7406 48.0439C46.7569 50.2797 48.4026 52.0149 50.5166 52.0275C52.6635 52.0402 54.3184 50.3138 54.3251 48.0272C54.3351 44.6003 54.3267 41.1734 54.3294 37.7465C54.3296 37.4265 54.2987 37.103 54.3918 36.788C54.4205 36.7136 54.4674 36.6533 54.5318 36.6068C55.6591 36.607 56.7862 36.6106 57.9135 36.6042C58.1181 36.603 58.3433 36.6722 58.5183 36.4933C58.8072 36.2437 59.1612 36.2931 59.4972 36.2961C61.8611 36.317 64.2268 36.2167 66.5884 36.3919C67.3499 36.6638 68.1417 36.607 68.9282 36.6071C73.4149 36.6075 77.9016 36.6195 82.3882 36.5925C82.9722 36.5891 83.107 36.7607 83.0833 37.3103C83.0381 38.3554 83.0661 39.4035 83.0637 40.4502C83.2462 40.6904 83.2322 40.9726 83.2321 41.2505C83.2297 54.1338 83.242 67.0172 83.2273 79.8985C83.2166 80.2817 83.0232 80.5818 82.791 80.8717C80.7174 83.4592 78.6493 86.0508 76.5734 88.6362C76.0079 89.3405 76.0067 89.3753 76.7235 89.9398C77.5262 90.5717 78.2545 91.327 79.3199 91.5291C79.5755 91.6159 79.8314 91.6226 80.0875 91.529C80.9771 91.3314 81.6321 90.8041 82.1877 90.1026C82.4206 89.8085 82.5612 89.3798 83.0327 89.3374C83.0452 92.0352 83.0555 94.7329 83.0739 97.4305C83.0758 97.7005 82.9882 97.8318 82.7058 97.8063C82.5783 97.7948 82.449 97.805 82.3203 97.805C68.6331 97.805 54.9459 97.8 41.2587 97.8208C40.6221 97.8218 40.4995 97.6462 40.5 97.0418C40.5158 76.9075 40.5119 56.7732 40.511 36.6389C40.7044 36.5017 40.9246 36.5711 41.1316 36.5681C41.7922 36.5585 42.453 36.563 43.1138 36.5649C46.1138 36.5731 49.1095 36.3418 52.1104 36.394Z" fill="#2E85ED"/>
<path d="M83.4595 40.5933C86.5313 41.3463 89.6034 42.0988 92.6751 42.8527C93.6923 43.1023 94.7028 43.3836 95.7277 43.5949C96.2133 43.6949 96.2659 43.8801 96.1537 44.327C94.5836 50.5887 93.033 56.8555 91.4755 63.1205C90.1139 68.5971 88.7495 74.0732 87.3864 79.5494C87.1348 79.7138 86.9918 79.4993 86.8331 79.3792C86.4073 79.0568 85.9724 78.7413 85.5863 78.374C85.2125 78.0185 84.9573 78.1488 84.6914 78.4877C84.309 78.9752 83.9404 79.4752 83.5158 79.9271C83.3037 80.1528 83.1032 80.2075 83.1171 79.7719C83.1175 66.9349 83.1152 54.1003 83.1331 41.2658C83.1338 41.048 82.827 40.5538 83.4595 40.5933Z" fill="#005EDE"/>
<path d="M83.2094 80.0658C83.7148 79.4441 84.2225 78.8246 84.7244 78.2002C85.0075 77.8479 85.2382 77.8192 85.6034 78.1609C86.1516 78.6738 86.7164 79.1844 87.3865 79.5494C88.6208 81.0519 88.6297 82.3164 87.4098 83.8381C87.1723 84.1346 86.916 84.4159 86.6683 84.7043C86.2238 84.7649 86.1147 85.2181 85.8928 85.4809C85.6181 85.806 85.3375 86.1772 85.2119 86.6679C85.0705 87.22 84.6763 87.7463 84.0697 87.9634C83.8213 88.0522 83.7478 88.2126 83.6952 88.4246C83.4745 88.7288 83.2538 89.0328 83.0329 89.3372C82.4028 89.9197 82.0284 90.7378 81.262 91.2019C80.892 91.426 80.5196 91.5915 80.0948 91.6468C79.8389 91.7275 79.5829 91.7273 79.3268 91.6468C78.2911 91.5741 77.6178 90.845 76.8747 90.2615C76.5288 89.9897 75.9592 89.7905 75.9326 89.3642C75.9077 88.9622 76.3936 88.6463 76.67 88.3018C78.7018 85.7686 80.7262 83.2295 82.7493 80.6894C82.8675 80.541 82.9539 80.3675 83.0552 80.2057C83.1014 80.1534 83.1114 80.0608 83.2094 80.0658Z" fill="#39A771"/>
<path d="M83.695 88.4247C83.561 88.1527 83.4585 87.8875 83.891 87.7949C84.2758 87.7126 85.2244 86.8857 85.1336 86.5691C84.9439 85.9077 85.6628 85.7957 85.7743 85.3204C85.8084 85.1742 86.1267 85.0528 86.1947 84.7707C86.2598 84.5014 86.4922 84.6222 86.6681 84.7045C86.6609 84.7245 86.6563 84.7462 86.6461 84.7647C86.4191 85.1866 85.7823 85.5009 85.9021 85.9367C86.0036 86.3065 86.5755 86.5492 86.9426 86.844C88.2114 87.8627 89.4882 88.8717 90.7471 89.9023C91.0676 90.1646 91.3292 90.2649 91.7763 90.1359C93.6382 89.5981 95.4585 90.6888 95.931 92.5616C96.3774 94.3306 95.2534 96.1748 93.4642 96.6082C91.6485 97.0481 89.8474 95.9165 89.41 94.059C89.3808 93.9347 89.3309 93.7971 89.3573 93.6808C89.5773 92.7146 88.977 92.2345 88.3054 91.7247C86.9588 90.7024 85.6595 89.6173 84.3355 88.5649C84.1543 88.4204 83.9795 88.1415 83.695 88.4247Z" fill="#39A771"/>
<path d="M66.5887 36.3919C66.4334 36.5559 66.2307 36.4979 66.0462 36.4979C63.5371 36.4989 61.0277 36.4955 58.5186 36.4933C58.6398 35.9757 58.7879 35.4625 58.8736 34.9391C58.9392 34.5384 59.1446 34.5277 59.46 34.6073C61.8354 35.2057 64.2123 35.7978 66.5887 36.3919Z" fill="#005EDE"/>
<path d="M52.2281 36.6497C52.2233 36.5899 52.2187 36.5301 52.2139 36.4702C52.944 36.4473 53.6864 36.661 54.4018 36.356C54.4453 36.4396 54.4887 36.5231 54.5322 36.6067C54.5233 36.6565 54.5143 36.7064 54.5054 36.7562C53.7409 36.8352 52.9758 36.9285 52.2281 36.6497Z" fill="#183B6D"/>
<path d="M76.113 48.4545C75.9213 51.5987 72.9681 54.1146 70.3284 54.3667C69.6846 54.4619 69.0409 54.4639 68.3973 54.3652C66.1816 54.1012 64.5588 52.9488 63.4621 51.036C62.96 50.1603 62.5529 49.2439 62.6077 48.1951C62.5221 47.8095 62.5211 47.4239 62.6082 47.0383C62.6707 44.2653 65.132 41.4652 67.9158 40.9983C68.1652 40.9564 68.4136 40.9081 68.6625 40.8628C69.1316 40.7717 69.6006 40.7731 70.0699 40.8621C71.2656 41.0708 72.4107 41.4021 73.4042 42.1455C74.1064 42.671 74.6142 43.3834 75.2354 43.9857C75.2416 44.2838 75.013 44.4398 74.8313 44.608C73.4994 45.8404 72.1275 47.0283 70.7721 48.2346C70.1572 48.7819 70.0101 48.7355 69.4995 48.0692C69.0055 47.4246 68.5127 46.7788 68.0371 46.1207C67.7664 45.7461 67.5113 45.7001 67.1348 45.9879C65.9382 46.9029 66.0554 46.6748 66.8553 47.7604C67.5652 48.7238 68.2832 49.6814 69.0091 50.6328C69.5472 51.3381 70.0758 51.4018 70.7444 50.8182C72.3365 49.4284 73.9111 48.0187 75.4897 46.6135C75.6606 46.4615 75.7842 46.1736 76.1051 46.3097C76.108 46.5082 76.1108 46.707 76.1137 46.9055C76.2111 47.4217 76.2123 47.938 76.113 48.4545Z" fill="#57C389"/>
<path d="M52.228 36.6498C52.9881 36.6645 53.7569 36.4936 54.5053 36.7563C54.5137 40.6093 54.5388 44.4624 54.5231 48.3155C54.5157 50.1247 53.0188 51.8901 51.3374 52.1737C49.3485 52.509 47.5249 51.4808 46.8192 49.6207C46.6286 49.1183 46.5276 48.6028 46.5319 48.0568C46.5477 46.0445 46.5343 44.0321 46.5436 42.0199C46.5506 40.4869 47.6461 39.2668 49.0491 39.207C50.3731 39.1507 51.6407 40.4178 51.6811 41.9209C51.7228 43.4826 51.6828 45.0462 51.6972 46.6088C51.7005 46.9554 51.5636 47.0303 51.2439 47.0444C49.5009 47.1219 49.5012 47.1299 49.5012 45.3972C49.5012 44.3909 49.5038 43.3849 49.499 42.3787C49.4981 42.1882 49.4919 41.9914 49.4437 41.8093C49.3937 41.6212 49.2765 41.4273 49.0477 41.4628C48.871 41.4903 48.7753 41.6593 48.7463 41.8407C48.7329 41.9247 48.7331 42.0115 48.7331 42.097C48.7327 44.1307 48.7123 46.1646 48.7415 48.1978C48.7593 49.446 49.9672 50.3349 51.0734 49.9708C51.7689 49.7418 52.3321 48.9653 52.3381 48.1303C52.356 45.69 52.3517 43.2496 52.3523 40.8091C52.3527 39.6746 52.3508 38.5399 52.335 37.4055C52.3314 37.1534 52.2653 36.9019 52.228 36.6498Z" fill="#183B6D"/>
<path d="M61.7149 63.3789C56.0186 63.3789 50.3221 63.3724 44.6258 63.3892C44.0784 63.3907 43.8367 63.308 43.8577 62.6707C43.9072 61.1686 43.8704 61.1674 45.3674 61.1674C56.5244 61.1674 67.6817 61.1743 78.8388 61.1504C79.507 61.149 79.6605 61.3328 79.6392 61.9678C79.5922 63.3777 79.6255 63.3789 78.2258 63.3789C72.7222 63.3789 67.2185 63.3789 61.7149 63.3789Z" fill="#F8F8F8"/>
<path d="M61.7485 67.8609C56.009 67.8609 50.2695 67.8532 44.53 67.8736C43.985 67.8755 43.8525 67.7178 43.8623 67.1919C43.8908 65.6468 43.8678 65.6465 45.397 65.6465C56.5334 65.6465 67.6698 65.6465 78.8061 65.6467C79.6234 65.6467 79.6234 65.6473 79.6241 66.485C79.6251 67.8611 79.6251 67.8611 78.2603 67.8611C72.7564 67.8609 67.2524 67.8609 61.7485 67.8609Z" fill="#F8F8F8"/>
<path d="M68.837 79.0525C68.4926 79.6187 68.4522 80.1601 68.2813 80.6561C68.1424 81.0596 68.0444 81.4835 67.8548 81.8616C67.5271 82.5141 67.0087 82.9295 66.2299 82.9132C65.4686 82.8972 64.9375 82.5121 64.5935 81.8595C64.1785 81.0725 64.2711 80.1924 64.1776 79.3488C64.135 78.9641 64.1124 78.5807 63.9404 78.2286C63.7979 77.9366 63.6354 77.62 63.2482 77.6652C62.8827 77.7079 62.6357 77.9577 62.51 78.3043C62.3332 78.7914 62.4023 79.2732 62.5771 79.7449C62.6438 79.9246 62.7425 80.0924 62.8068 80.2728C62.9466 80.6651 63.5605 81.0304 63.3453 81.332C62.9885 81.8317 62.3724 82.1469 61.8624 82.5358C61.7138 82.6491 61.631 82.5269 61.5534 82.4262C60.4285 80.966 59.6521 79.0127 60.5747 77.1772C61.1432 76.0461 62.0759 75.4422 63.3494 75.4387C64.6103 75.4353 65.4197 76.1498 65.9403 77.222C66.1519 77.6578 66.2631 78.1425 66.4517 78.6983C67.0563 77.5166 67.652 76.2227 69.2368 76.5741C71.0169 76.9688 71.0555 78.5618 71.2287 80.0866C71.8195 79.7059 72.3446 79.3871 72.8474 79.0364C73.1481 78.8267 73.3477 78.7873 73.5454 79.1662C73.7524 79.5628 74.0005 79.9421 74.266 80.3028C74.4783 80.5914 74.3955 80.7291 74.1173 80.8935C73.5652 81.2195 73.0286 81.5727 72.4939 81.927C70.8047 83.0463 69.3614 81.7451 69.0556 80.4952C68.9502 80.0637 68.9196 79.614 68.837 79.0525Z" fill="#F8F8F8"/>
<path d="M54.4436 58.9047C51.1457 58.9047 47.8478 58.8937 44.5502 58.916C44.0246 58.9197 43.8527 58.7865 43.8619 58.2412C43.8887 56.6838 43.8643 56.6834 45.4418 56.6834C51.7163 56.6834 57.9907 56.6901 64.2652 56.6714C64.7918 56.6699 64.9545 56.7925 64.9435 57.3368C64.9119 58.9042 64.9373 58.9047 63.3736 58.9047C60.3969 58.9047 57.4201 58.9047 54.4436 58.9047Z" fill="#F8F8F8"/>
<path d="M76.1052 46.3094C74.4066 47.8048 72.7039 49.2954 71.011 50.7972C70.0535 51.6464 69.5422 51.6034 68.7617 50.567C67.9008 49.4236 67.0542 48.2689 66.1778 47.1373C65.9385 46.8283 65.9528 46.6705 66.2712 46.4293C67.6505 45.3855 67.6435 45.3745 68.6918 46.7584C69.0788 47.2693 69.4601 47.7844 69.8462 48.2961C69.9764 48.4685 70.0769 48.6448 70.3383 48.4069C71.9651 46.9268 73.6661 45.5288 75.2356 43.9853C76.2978 43.1926 77.2336 42.2537 78.2255 41.3799C78.528 41.1135 78.7183 41.0498 78.9858 41.4055C79.3174 41.8468 79.9566 42.2425 79.9775 42.681C79.9997 43.1457 79.2604 43.4397 78.861 43.8147C77.9581 44.663 77.0257 45.48 76.1052 46.3094Z" fill="#F8F8F8"/>
<path d="M51.7554 72.3442C49.3175 72.3442 46.8796 72.3336 44.4421 72.3539C43.9933 72.3576 43.8643 72.2276 43.8639 71.7779C43.8624 70.0773 43.8462 70.0773 45.572 70.0773C49.9771 70.0773 54.3822 70.0859 58.7873 70.0665C59.337 70.064 59.5694 70.1534 59.5498 70.7843C59.5015 72.3434 59.5366 72.3444 57.9781 72.3444C55.9041 72.3442 53.8296 72.3442 51.7554 72.3442Z" fill="#F7F8F8"/>
<path d="M67.6915 86.7482C65.466 86.7482 63.2406 86.7368 61.0156 86.7578C60.571 86.7619 60.4355 86.6417 60.436 86.1872C60.4379 84.5303 60.4207 84.5303 62.0489 84.5303C66.1358 84.5303 70.2228 84.5404 74.3096 84.5181C74.8476 84.5152 74.9934 84.6662 74.9843 85.1978C74.9577 86.748 74.9811 86.7483 73.4048 86.7483C71.5002 86.7482 69.5958 86.7482 67.6915 86.7482Z" fill="#F8F8F8"/>
</svg>
