<svg width="57" height="66" viewBox="0 0 57 66" fill="none" xmlns="http://www.w3.org/2000/svg">
<path d="M10.0203 0C10.4509 0.153731 10.8987 0.271906 11.3094 0.467548C12.9683 1.25733 14.0053 2.55537 14.4019 4.356C14.3799 4.70383 14.0961 4.65848 13.8885 4.66432C13.3666 4.67909 12.8424 4.71757 12.3221 4.631C12.2125 4.59905 12.1188 4.54048 12.0397 4.45906C11.7948 4.13751 11.6258 3.76461 11.358 3.45491C10.0591 1.95316 7.92903 2.0916 6.82595 3.74417C6.60883 4.06949 6.52845 4.58651 6.05454 4.61674C5.36834 4.66037 4.65945 4.83729 3.99146 4.49324C4.26285 2.43307 6.05918 0.538316 8.13429 0.120752C8.25315 0.0968763 8.39606 0.132776 8.47782 0C8.99192 0 9.50602 0 10.0203 0Z" fill="#183B6D"/>
<path d="M12.1104 4.39397C12.1447 4.41939 12.1791 4.44481 12.2136 4.47024C12.2597 4.53121 12.3077 4.59047 12.3586 4.6475C12.5479 4.93504 12.5211 5.26294 12.5214 5.58156C12.5254 9.00848 12.5247 12.4354 12.5228 15.8623C12.5226 16.184 12.5139 16.504 12.3988 16.8123C12.0594 17.7227 11.1646 18.3254 10.3163 18.2102C9.38376 18.0836 8.5756 17.2026 8.55808 16.2C8.52304 14.2085 8.53747 12.2164 8.55362 10.2246C8.55671 9.85168 8.60257 9.46091 9.05775 9.36696C9.38703 9.29894 9.66426 9.6849 9.68195 10.2617C9.71923 11.4819 9.68178 12.7033 9.70256 13.9237C9.70772 14.2238 9.5588 14.6388 9.94699 14.7767C10.369 14.9267 10.8385 14.9025 11.2751 14.7731C11.4943 14.7082 11.4917 14.4691 11.4925 14.2791C11.4991 12.8229 11.5509 11.3648 11.4714 9.91094C11.4211 8.99079 11.0212 8.20908 10.1796 7.74204C8.62524 6.87943 6.80452 8.00244 6.75127 9.87556C6.70747 11.4166 6.74251 12.9596 6.74011 14.5017C6.73925 15.0158 6.73701 15.5298 6.74062 16.0439C6.75694 18.2797 8.40263 20.0149 10.5166 20.0275C12.6635 20.0402 14.3184 18.3138 14.3251 16.0272C14.3351 12.6003 14.3267 9.17337 14.3294 5.74646C14.3296 5.42646 14.2987 5.10302 14.3918 4.788C14.4205 4.71363 14.4674 4.65334 14.5318 4.60679C15.6591 4.60696 16.7862 4.61057 17.9135 4.60421C18.1181 4.60301 18.3433 4.67223 18.5183 4.49325C18.8072 4.24368 19.1612 4.29314 19.4972 4.29606C21.8611 4.31702 24.2268 4.21671 26.5884 4.39191C27.3499 4.66382 28.1417 4.60696 28.9282 4.60713C33.4149 4.60748 37.9016 4.6195 42.3882 4.59253C42.9722 4.5891 43.107 4.76069 43.0833 5.31035C43.0381 6.35537 43.0661 7.40349 43.0637 8.45024C43.2462 8.69037 43.2322 8.97258 43.2321 9.2505C43.2297 22.1338 43.242 35.0172 43.2273 47.8985C43.2166 48.2817 43.0232 48.5818 42.791 48.8717C40.7174 51.4592 38.6493 54.0508 36.5734 56.6362C36.0079 57.3405 36.0067 57.3753 36.7235 57.9398C37.5262 58.5717 38.2545 59.327 39.3199 59.5291C39.5755 59.6159 39.8314 59.6226 40.0875 59.529C40.9771 59.3314 41.6321 58.8041 42.1877 58.1026C42.4206 57.8085 42.5612 57.3798 43.0327 57.3374C43.0452 60.0352 43.0555 62.7329 43.0739 65.4305C43.0758 65.7005 42.9882 65.8318 42.7058 65.8063C42.5783 65.7948 42.449 65.805 42.3203 65.805C28.6331 65.805 14.9459 65.8 1.25869 65.8208C0.622128 65.8218 0.499486 65.6462 0.500002 65.0418C0.515804 44.9075 0.511854 24.7732 0.510995 4.63891C0.704404 4.50167 0.924608 4.57106 1.13159 4.56814C1.7922 4.55852 2.45299 4.56299 3.11377 4.56488C6.11385 4.57312 9.10945 4.34175 12.1104 4.39397Z" fill="#2E85ED"/>
<path d="M43.4595 8.5933C46.5313 9.34633 49.6034 10.0988 52.6751 10.8527C53.6923 11.1023 54.7028 11.3836 55.7277 11.5949C56.2133 11.6949 56.2659 11.8801 56.1537 12.327C54.5836 18.5887 53.033 24.8555 51.4755 31.1205C50.1139 36.5971 48.7495 42.0732 47.3864 47.5494C47.1348 47.7138 46.9918 47.4993 46.8331 47.3792C46.4073 47.0568 45.9724 46.7413 45.5863 46.374C45.2125 46.0185 44.9573 46.1488 44.6914 46.4877C44.309 46.9752 43.9404 47.4752 43.5158 47.9271C43.3037 48.1528 43.1032 48.2075 43.1171 47.7719C43.1175 34.9349 43.1152 22.1003 43.1331 9.26577C43.1338 9.04797 42.827 8.55379 43.4595 8.5933Z" fill="#005EDE"/>
<path d="M43.2094 48.0658C43.7148 47.4441 44.2225 46.8246 44.7244 46.2002C45.0075 45.8479 45.2382 45.8192 45.6034 46.1609C46.1516 46.6738 46.7164 47.1844 47.3865 47.5494C48.6208 49.0519 48.6297 50.3164 47.4098 51.8381C47.1723 52.1346 46.916 52.4159 46.6683 52.7043C46.2238 52.7649 46.1147 53.2181 45.8928 53.4809C45.6181 53.806 45.3375 54.1772 45.2119 54.6679C45.0705 55.22 44.6763 55.7463 44.0697 55.9634C43.8213 56.0522 43.7478 56.2126 43.6952 56.4246C43.4745 56.7288 43.2538 57.0328 43.0329 57.3372C42.4028 57.9197 42.0284 58.7378 41.262 59.2019C40.892 59.426 40.5196 59.5915 40.0948 59.6468C39.8389 59.7275 39.5829 59.7273 39.3268 59.6468C38.2911 59.5741 37.6178 58.845 36.8747 58.2615C36.5288 57.9897 35.9592 57.7905 35.9326 57.3642C35.9077 56.9622 36.3936 56.6463 36.67 56.3018C38.7018 53.7686 40.7262 51.2295 42.7493 48.6894C42.8675 48.541 42.9539 48.3675 43.0552 48.2057C43.1014 48.1534 43.1114 48.0608 43.2094 48.0658Z" fill="#39A771"/>
<path d="M43.695 56.4247C43.561 56.1527 43.4585 55.8875 43.891 55.7949C44.2758 55.7126 45.2244 54.8857 45.1336 54.5691C44.9439 53.9077 45.6628 53.7957 45.7743 53.3204C45.8084 53.1742 46.1267 53.0528 46.1947 52.7707C46.2598 52.5014 46.4922 52.6222 46.6681 52.7045C46.6609 52.7245 46.6563 52.7462 46.6461 52.7647C46.4191 53.1866 45.7823 53.5009 45.9021 53.9367C46.0036 54.3065 46.5755 54.5492 46.9426 54.844C48.2114 55.8627 49.4882 56.8717 50.7471 57.9023C51.0676 58.1646 51.3292 58.2649 51.7763 58.1359C53.6382 57.5981 55.4585 58.6888 55.931 60.5616C56.3774 62.3306 55.2534 64.1748 53.4642 64.6082C51.6485 65.0481 49.8474 63.9165 49.41 62.059C49.3808 61.9347 49.3309 61.7971 49.3573 61.6808C49.5773 60.7146 48.977 60.2345 48.3054 59.7247C46.9588 58.7024 45.6595 57.6173 44.3355 56.5649C44.1543 56.4204 43.9795 56.1415 43.695 56.4247Z" fill="#39A771"/>
<path d="M26.5887 4.39191C26.4334 4.55595 26.2307 4.49789 26.0462 4.49789C23.5371 4.49892 21.0277 4.49548 18.5186 4.49325C18.6398 3.97572 18.7879 3.46248 18.8736 2.93911C18.9392 2.53838 19.1446 2.52773 19.46 2.60726C21.8354 3.20569 24.2123 3.79777 26.5887 4.39191Z" fill="#005EDE"/>
<path d="M12.2281 4.64968C12.2233 4.5899 12.2187 4.53013 12.2139 4.47018C12.944 4.44734 13.6864 4.66101 14.4018 4.35596C14.4453 4.43961 14.4887 4.52309 14.5322 4.60674C14.5233 4.65655 14.5143 4.70636 14.5054 4.75617C13.7409 4.83519 12.9758 4.92845 12.2281 4.64968Z" fill="#183B6D"/>
<path d="M36.113 16.4545C35.9213 19.5987 32.9681 22.1146 30.3284 22.3667C29.6846 22.4619 29.0409 22.4639 28.3973 22.3652C26.1816 22.1012 24.5588 20.9488 23.4621 19.036C22.96 18.1603 22.5529 17.2439 22.6077 16.1951C22.5221 15.8095 22.5211 15.4239 22.6082 15.0383C22.6707 12.2653 25.132 9.46516 27.9158 8.99829C28.1652 8.95638 28.4136 8.90812 28.6625 8.86277C29.1316 8.77173 29.6006 8.77311 30.0699 8.86208C31.2656 9.07078 32.4107 9.40212 33.4042 10.1455C34.1064 10.671 34.6142 11.3834 35.2354 11.9857C35.2416 12.2838 35.013 12.4398 34.8313 12.608C33.4994 13.8404 32.1275 15.0283 30.7721 16.2346C30.1572 16.7819 30.0101 16.7355 29.4995 16.0692C29.0055 15.4246 28.5127 14.7788 28.0371 14.1207C27.7664 13.7461 27.5113 13.7001 27.1348 13.9879C25.9382 14.9029 26.0554 14.6748 26.8553 15.7604C27.5652 16.7238 28.2832 17.6814 29.0091 18.6328C29.5472 19.3381 30.0758 19.4018 30.7444 18.8182C32.3365 17.4284 33.9111 16.0187 35.4897 14.6135C35.6606 14.4615 35.7842 14.1736 36.1051 14.3097C36.108 14.5082 36.1108 14.707 36.1137 14.9055C36.2111 15.4217 36.2123 15.938 36.113 16.4545Z" fill="#57C389"/>
<path d="M12.228 4.64977C12.9881 4.66454 13.7569 4.49364 14.5053 4.75627C14.5137 8.60933 14.5388 12.4624 14.5231 16.3155C14.5157 18.1247 13.0188 19.8901 11.3374 20.1737C9.3485 20.509 7.52485 19.4808 6.81924 17.6207C6.62857 17.1183 6.52758 16.6028 6.53187 16.0568C6.54767 14.0445 6.53427 12.0321 6.54355 10.0199C6.55059 8.48686 7.64612 7.26681 9.04911 7.20703C10.3731 7.15069 11.6407 8.41781 11.6811 9.92094C11.7228 11.4826 11.6828 13.0462 11.6972 14.6088C11.7005 14.9554 11.5636 15.0303 11.2439 15.0444C9.50085 15.1219 9.5012 15.1299 9.5012 13.3972C9.5012 12.3909 9.50377 11.3849 9.49896 10.3787C9.4981 10.1882 9.49192 9.99137 9.44366 9.8093C9.39367 9.62121 9.27653 9.42729 9.04773 9.46284C8.87099 9.49032 8.77531 9.65934 8.74628 9.84073C8.73289 9.92472 8.73306 10.0115 8.73306 10.097C8.73271 12.1307 8.71227 14.1646 8.74147 16.1978C8.75934 17.446 9.9672 18.3349 11.0734 17.9708C11.7689 17.7418 12.3321 16.9653 12.3381 16.1303C12.356 13.69 12.3517 11.2496 12.3523 8.8091C12.3527 7.67458 12.3508 6.53989 12.335 5.40555C12.3314 5.15339 12.2653 4.90193 12.228 4.64977Z" fill="#183B6D"/>
<path d="M21.7149 31.3789C16.0186 31.3789 10.3221 31.3724 4.62584 31.3892C4.07842 31.3907 3.83674 31.308 3.8577 30.6707C3.90717 29.1686 3.87041 29.1674 5.36735 29.1674C16.5244 29.1674 27.6817 29.1743 38.8388 29.1504C39.507 29.149 39.6605 29.3328 39.6392 29.9678C39.5922 31.3777 39.6255 31.3789 38.2258 31.3789C32.7222 31.3789 27.2185 31.3789 21.7149 31.3789Z" fill="#F8F8F8"/>
<path d="M21.7485 35.8609C16.009 35.8609 10.2695 35.8532 4.52997 35.8736C3.98495 35.8755 3.85252 35.7178 3.86231 35.1919C3.89082 33.6468 3.86781 33.6465 5.39705 33.6465C16.5334 33.6465 27.6698 33.6465 38.8061 33.6467C39.6234 33.6467 39.6234 33.6473 39.6241 34.485C39.6251 35.8611 39.6251 35.8611 38.2603 35.8611C32.7564 35.8609 27.2524 35.8609 21.7485 35.8609Z" fill="#F8F8F8"/>
<path d="M28.837 47.0525C28.4926 47.6187 28.4522 48.1601 28.2813 48.6561C28.1424 49.0596 28.0444 49.4835 27.8548 49.8616C27.5271 50.5141 27.0087 50.9295 26.2299 50.9132C25.4686 50.8972 24.9375 50.5121 24.5935 49.8595C24.1785 49.0725 24.2711 48.1924 24.1776 47.3488C24.135 46.9641 24.1124 46.5807 23.9404 46.2286C23.7979 45.9366 23.6354 45.62 23.2482 45.6652C22.8827 45.7079 22.6357 45.9577 22.51 46.3043C22.3332 46.7914 22.4023 47.2732 22.5771 47.7449C22.6438 47.9246 22.7425 48.0924 22.8068 48.2728C22.9466 48.6651 23.5605 49.0304 23.3453 49.332C22.9885 49.8317 22.3724 50.1469 21.8624 50.5358C21.7138 50.6491 21.631 50.5269 21.5534 50.4262C20.4285 48.966 19.6521 47.0127 20.5747 45.1772C21.1432 44.0461 22.0759 43.4422 23.3494 43.4387C24.6103 43.4353 25.4197 44.1498 25.9403 45.222C26.1519 45.6578 26.2631 46.1425 26.4517 46.6983C27.0563 45.5166 27.652 44.2227 29.2368 44.5741C31.0169 44.9688 31.0555 46.5618 31.2287 48.0866C31.8195 47.7059 32.3446 47.3871 32.8474 47.0364C33.1481 46.8267 33.3477 46.7873 33.5454 47.1662C33.7524 47.5628 34.0005 47.9421 34.266 48.3028C34.4783 48.5914 34.3955 48.7291 34.1173 48.8935C33.5652 49.2195 33.0286 49.5727 32.4939 49.927C30.8047 51.0463 29.3614 49.7451 29.0556 48.4952C28.9502 48.0637 28.9196 47.614 28.837 47.0525Z" fill="#F8F8F8"/>
<path d="M14.4436 26.9047C11.1457 26.9047 7.84777 26.8937 4.55019 26.916C4.02459 26.9197 3.85265 26.7865 3.86193 26.2412C3.88872 24.6838 3.86433 24.6834 5.44183 24.6834C11.7163 24.6834 17.9907 24.6901 24.2652 24.6714C24.7918 24.6699 24.9545 24.7925 24.9435 25.3368C24.9119 26.9042 24.9373 26.9047 23.3736 26.9047C20.3969 26.9047 17.4201 26.9047 14.4436 26.9047Z" fill="#F8F8F8"/>
<path d="M36.1052 14.3094C34.4066 15.8048 32.7039 17.2954 31.011 18.7972C30.0535 19.6464 29.5422 19.6034 28.7617 18.567C27.9008 17.4236 27.0542 16.2689 26.1778 15.1373C25.9385 14.8283 25.9528 14.6705 26.2712 14.4293C27.6505 13.3855 27.6435 13.3745 28.6918 14.7584C29.0788 15.2693 29.4601 15.7844 29.8462 16.2961C29.9764 16.4685 30.0769 16.6448 30.3383 16.4069C31.9651 14.9268 33.6661 13.5288 35.2356 11.9853C36.2978 11.1926 37.2336 10.2537 38.2255 9.3799C38.528 9.11349 38.7183 9.04977 38.9858 9.4055C39.3174 9.84676 39.9566 10.2425 39.9775 10.681C39.9997 11.1457 39.2604 11.4397 38.861 11.8147C37.9581 12.663 37.0257 13.48 36.1052 14.3094Z" fill="#F8F8F8"/>
<path d="M11.7554 40.3442C9.3175 40.3442 6.87962 40.3336 4.44208 40.3539C3.99325 40.3576 3.86426 40.2276 3.86391 39.7779C3.86237 38.0773 3.84622 38.0773 5.57196 38.0773C9.97708 38.0773 14.3822 38.0859 18.7873 38.0665C19.337 38.064 19.5694 38.1534 19.5498 38.7843C19.5015 40.3434 19.5366 40.3444 17.9781 40.3444C15.9041 40.3442 13.8296 40.3442 11.7554 40.3442Z" fill="#F7F8F8"/>
<path d="M27.6915 54.7482C25.466 54.7482 23.2406 54.7368 21.0156 54.7578C20.571 54.7619 20.4355 54.6417 20.436 54.1872C20.4379 52.5303 20.4207 52.5303 22.0489 52.5303C26.1358 52.5303 30.2228 52.5404 34.3096 52.5181C34.8476 52.5152 34.9934 52.6662 34.9843 53.1978C34.9577 54.748 34.9811 54.7483 33.4048 54.7483C31.5002 54.7482 29.5958 54.7482 27.6915 54.7482Z" fill="#F8F8F8"/>
</svg>
