<svg width="132" height="132" viewBox="0 0 132 132" fill="none" xmlns="http://www.w3.org/2000/svg">
<circle cx="66" cy="66" r="65.5" fill="white"/>
<path d="M37.4914 48.6317C37.8015 48.3603 38.161 48.2937 38.5698 48.2961C40.9972 48.3101 43.4247 48.2978 45.8522 48.3086C46.2272 48.3103 46.5105 48.1896 46.8077 47.9603C48.7668 46.4495 50.5866 44.7484 52.6638 43.4042C55.6368 41.4802 58.7919 41.338 62.0117 42.8058C62.7169 43.1272 63.4004 43.4963 64.0938 43.8435C64.4387 43.7793 64.66 44.0463 64.9312 44.1695C65.4118 44.3881 65.878 44.6394 66.3554 44.8668C67.414 45.5149 68.5609 45.9954 69.6444 46.5967C70.1365 46.9536 70.8009 47.0388 71.1822 47.5711C71.192 47.9031 70.9427 48.0547 70.7206 48.2175C69.2672 49.282 67.6989 49.4281 66.0294 48.8083C64.5512 48.2595 63.073 47.7106 61.5843 47.1909C60.728 46.892 60.5772 47.018 60.5763 47.9394C60.576 48.1991 60.619 48.4576 60.5925 48.7174C60.2981 49.6446 60.1074 50.605 59.6888 51.4933C59.5398 51.8095 59.4111 52.1345 59.217 52.4274C59.1028 52.5835 59.0255 52.7576 58.9676 52.9416C58.8419 53.3043 58.549 53.5468 58.3196 53.8335C55.7846 57.0016 54.1025 60.5473 53.533 64.59C53.5029 64.8038 53.4821 65.0385 53.2428 65.1525C52.9882 65.1602 52.7821 65.0251 52.5682 64.9191C51.5066 64.3931 50.4502 63.8569 49.3885 63.3315C47.5186 62.406 45.5564 61.8871 43.4522 61.9242C41.7312 61.9544 40.0092 61.9324 38.2878 61.9284C38.0144 61.9278 37.7268 61.9742 37.4912 61.7711C37.4914 57.3912 37.4914 53.0114 37.4914 48.6317Z" fill="#B28B67"/>
<path d="M70.784 94.5073C70.1081 94.2446 69.3824 94.2528 68.6813 94.1302C66.4422 93.7385 64.3398 92.9201 62.2302 92.1186C58.4584 90.6859 54.687 89.2519 50.9103 87.8324C49.2998 87.2271 48.7094 86.1731 49.0887 84.4926C49.3734 84.347 49.4918 84.5893 49.6251 84.7438C49.9369 85.1051 50.318 85.357 50.7579 85.5255C55.5031 87.3418 60.2485 89.1583 65.0185 90.9077C69.3136 92.483 73.7105 92.5661 78.174 91.7289C81.7276 91.0623 85.2899 90.439 88.8585 89.8568C89.9967 89.6711 91.1543 89.8119 92.3027 89.7859C92.8217 89.7741 93.3412 89.7805 93.8604 89.7857C94.0817 89.7879 94.3103 89.7723 94.489 89.9458C94.4929 90.3345 94.4998 90.7231 94.4998 91.1117C94.4997 91.8345 94.3198 92.0315 93.5875 92.0406C92.4955 92.0542 91.4013 92.0856 90.3116 92.0347C88.6823 91.9585 87.1286 92.4019 85.5488 92.6548C82.0579 93.2134 78.5999 93.9702 75.0879 94.4058C75.0233 94.4138 74.9649 94.4722 74.9036 94.5071C74.6438 94.5071 74.384 94.5071 74.1242 94.5071C73.9016 94.4161 73.6788 94.4161 73.4562 94.5071C72.9737 94.5071 72.4911 94.5071 72.0087 94.5071C71.7118 94.4135 71.4148 94.4135 71.1179 94.5071C71.0066 94.5073 70.8953 94.5073 70.784 94.5073Z" fill="#A58163"/>
<path d="M37.4915 61.7708C39.6232 61.7705 41.7549 61.773 43.8866 61.7693C45.6931 61.7662 47.3971 62.2194 49.0165 62.9791C50.4586 63.6556 51.8705 64.3965 53.2958 65.1089C53.5572 65.4116 53.4486 65.777 53.4685 66.1208C53.3987 66.4913 53.588 66.904 53.288 67.2371C53.0599 67.0087 52.7629 66.895 52.4802 66.7605C50.7632 65.9427 49.1302 64.9421 47.2942 64.3827C46.0693 64.0095 44.8174 63.7973 43.5388 63.784C41.7994 63.7662 40.0595 63.7718 38.3199 63.7843C37.9798 63.7867 37.705 63.7066 37.4912 63.441C37.4915 62.8843 37.4915 62.3275 37.4915 61.7708Z" fill="#A58163"/>
<path d="M71.1177 94.5074C71.4145 94.3296 71.7116 94.3407 72.0084 94.5074C71.7116 94.5074 71.4147 94.5074 71.1177 94.5074Z" fill="#F1D9C9"/>
<path d="M73.4558 94.5076C73.6784 94.3398 73.9012 94.3374 74.1238 94.5076C73.9012 94.5076 73.6786 94.5076 73.4558 94.5076Z" fill="#ECCCB5"/>
<path d="M53.3013 66.1125C53.2994 65.778 53.2976 65.4435 53.2957 65.1091C53.6617 62.3527 54.4678 59.7374 55.8193 57.3005C56.601 55.8908 57.4873 54.552 58.559 53.3414C58.68 53.2048 58.7691 53.0399 58.873 52.8881C58.9535 52.7253 59.0702 52.588 59.1833 52.448C59.9806 51.4048 61.0136 50.6066 61.9895 49.7498C62.1674 49.5937 62.3624 49.4496 62.6111 49.4134C63.6785 49.5957 64.6538 50.0624 65.6624 50.4207C66.6868 50.7847 67.7005 51.0948 68.8059 50.8478C70.0078 50.5792 70.9388 49.9404 71.5822 48.8887C71.6688 48.7472 71.7264 48.5846 71.903 48.5216C73.0267 48.3774 74.1545 48.4877 75.2797 48.457C75.6859 48.446 76.0931 48.4437 76.4992 48.463C76.7367 48.4743 76.9902 48.4691 77.121 48.7341C82.6704 52.6942 86.295 57.8904 87.3366 64.7238C87.4633 65.5542 87.6049 66.4064 87.389 67.2542C87.1202 67.0107 87.4033 66.7043 87.3256 66.5016C87.1963 68.1052 86.421 69.4598 85.3274 70.6504C83.6979 72.4245 81.5801 73.3296 79.3094 73.933C77.1512 74.5065 74.9518 74.7747 72.7191 74.8574C71.7201 74.8945 70.7206 74.9863 69.7219 74.9452C66.3859 74.8085 63.0541 74.6227 59.8729 73.4571C57.8165 72.7035 55.9818 71.6308 54.6829 69.8024C53.8968 68.6958 53.4156 67.4722 53.3013 66.1125Z" fill="#005EDE"/>
<path d="M94.4888 89.9463C92.801 89.945 91.1107 89.8877 89.4265 89.9634C88.422 90.0087 87.4253 90.2535 86.428 90.4246C83.9255 90.8541 81.4207 91.2721 78.9244 91.7359C77.5667 91.9883 76.2097 92.2932 74.8356 92.3587C73.3803 92.4282 71.9178 92.4517 70.4539 92.3008C68.5313 92.1026 66.6648 91.6892 64.8595 91.0268C61.9275 89.9511 59.0138 88.8249 56.0933 87.7178C54.3479 87.0562 52.6068 86.3828 50.8577 85.7313C50.2524 85.5059 49.7088 85.2199 49.3671 84.644C49.3046 84.5386 49.2079 84.4941 49.0884 84.4928C49.5077 83.3477 50.8769 82.5682 52.3129 82.9678C56.4369 84.1151 60.58 85.1929 64.7151 86.3002C64.8553 86.3377 64.9923 86.4353 65.1114 86.2666C68.2731 86.3783 71.4359 86.2944 74.5983 86.3124C74.856 86.3139 75.2215 86.4535 75.3459 86.1377C75.4587 85.8513 75.2349 85.5687 75.0472 85.34C74.6127 84.8105 74.0218 84.6553 73.3614 84.6562C70.8626 84.6596 68.3636 84.6605 65.8648 84.6544C65.5754 84.6536 65.2665 84.7139 65.0157 84.4923C65.7295 82.508 67.265 81.583 69.3402 81.5964C70.3603 81.6029 71.3871 81.5236 72.3989 81.6148C73.9018 81.7504 75.2425 81.3534 76.542 80.6614C78.3002 79.7251 80.1889 79.3363 82.1695 79.4849C84.2923 79.6443 86.1781 80.452 87.8826 81.7108C88.3138 82.0292 88.7732 82.3098 89.2045 82.6284C89.4131 82.7825 89.6278 82.8267 89.8775 82.8252C91.1016 82.8184 92.3257 82.8197 93.5498 82.8231C94.3153 82.8252 94.5009 83.0117 94.5 83.7699C94.4973 85.8291 94.4927 87.8877 94.4888 89.9463Z" fill="#B28B67"/>
<path d="M63.8592 43.0913C63.4262 41.9723 62.9488 40.8678 62.5726 39.7299C62.1997 38.6021 63.0095 37.5083 64.1955 37.5037C68.2888 37.4882 72.3824 37.489 76.4757 37.5022C77.7209 37.5062 78.5283 38.6406 78.1157 39.804C77.7392 40.8656 77.3017 41.9055 76.8911 42.955C76.7675 43.0619 76.6191 43.0522 76.4696 43.0497C72.7269 42.9831 68.9839 43.0416 65.241 43.0151C64.7767 43.0117 64.3251 43.1724 63.8592 43.0913Z" fill="#005EDE"/>
<path d="M53.3017 66.1125C53.574 66.8905 53.7279 67.7027 54.0766 68.4614C55.105 70.6985 56.926 72.0567 59.1001 72.9942C61.0434 73.8322 63.1023 74.2429 65.2038 74.4758C67.28 74.7058 69.3619 74.8613 71.4463 74.785C74.5799 74.6704 77.708 74.4252 80.6945 73.3578C82.9516 72.5511 84.9364 71.3523 86.2236 69.2271C86.7848 68.3005 87.1286 67.3006 87.3897 66.2387C87.3897 66.5773 87.3897 66.9158 87.3897 67.2545C87.2483 70.5289 85.6437 72.8826 82.829 74.459C80.7757 75.6088 78.5256 76.1314 76.2222 76.4668C73.477 76.8665 70.7128 76.9025 67.9518 76.779C64.6809 76.6326 61.4471 76.2152 58.4532 74.7584C55.3197 73.2337 53.4931 70.7862 53.2883 67.2375C53.2928 66.8624 53.2973 66.4874 53.3017 66.1125Z" fill="#0F52A3"/>
<path d="M63.8594 43.0913C64.1972 42.8742 64.5784 42.8434 64.9635 42.8433C68.667 42.8416 72.3704 42.8398 76.0738 42.8471C76.3464 42.8477 76.6189 42.9174 76.8915 42.955C76.6689 43.5837 76.4461 44.2125 76.2235 44.8413C76.0168 45.111 75.7114 45.1266 75.4168 45.1284C72.6549 45.1452 69.893 45.1394 67.1311 45.1316C66.8528 45.1309 66.5824 45.0596 66.3235 44.9534C65.5363 44.6718 64.8134 44.2611 64.094 43.8434C64.0158 43.5927 63.9375 43.3421 63.8594 43.0913Z" fill="#0F52A3"/>
<path d="M65.0155 84.4925C67.9037 84.4903 70.792 84.4828 73.6801 84.4889C74.6589 84.491 75.5053 85.2496 75.6436 86.1926C75.6716 86.3837 75.6283 86.4786 75.4347 86.4874C75.3238 86.4925 75.2125 86.4911 75.1015 86.4911C72.0281 86.4913 68.9548 86.4889 65.8814 86.4952C65.5939 86.4958 65.3305 86.4696 65.1112 86.2666C64.6584 85.698 64.9198 85.0909 65.0155 84.4925Z" fill="#A58163"/>
<path d="M66.3235 44.9533C69.2211 44.9495 72.1187 44.9434 75.0163 44.9451C75.4233 44.9454 75.826 44.9335 76.2235 44.8411C76.3574 44.9783 76.5318 44.9463 76.6924 44.9399C77.4264 44.9109 77.9557 45.2394 78.3279 45.8537C77.9609 46.5064 77.3413 46.7604 76.655 46.7763C74.5081 46.8263 72.3601 46.794 70.2125 46.7973C69.9916 46.7976 69.7945 46.6225 69.5668 46.7299C68.5577 46.1927 67.5482 45.6565 66.5406 45.1168C66.4614 45.0747 66.3955 45.0083 66.3235 44.9533Z" fill="#F4DD8D"/>
<path d="M69.5667 46.7301C69.7339 46.5555 69.9498 46.6308 70.1439 46.6304C72.1553 46.6247 74.1668 46.6174 76.1781 46.6319C76.9244 46.6372 77.6065 46.5271 78.1258 45.9264C78.1666 45.8792 78.2595 45.877 78.3279 45.8538C78.8672 46.9764 78.523 47.991 77.4187 48.5149C77.3019 48.5704 77.1748 48.5984 77.1217 48.7344C76.9513 48.649 76.7706 48.6328 76.582 48.6334C74.987 48.6389 73.3921 48.6396 71.797 48.6418C71.5983 48.2514 71.425 47.8456 71.1178 47.5209C70.6007 47.2573 70.0838 46.9938 69.5667 46.7301Z" fill="#ECD07A"/>
<path d="M71.1179 47.521C71.6189 47.7282 71.8181 48.1182 71.7971 48.6418C71.6417 49.4107 71.0709 49.8619 70.488 50.2749C68.9251 51.382 67.2879 51.2348 65.598 50.5597C64.5916 50.1578 63.5822 49.7456 62.5184 49.5021C61.8156 49.3572 61.1267 49.1767 60.5452 48.7243C60.3157 48.2466 60.3976 47.7317 60.4596 47.2517C60.5106 46.8561 60.8797 46.7902 61.2467 46.9221C62.4288 47.3468 63.6105 47.7724 64.7931 48.1954C65.7292 48.5304 66.6489 48.9091 67.6447 49.0604C68.7331 49.2256 70.728 48.3646 71.1179 47.521Z" fill="#A58163"/>
<path d="M71.1404 63.1021C71.6944 63.3376 71.9492 63.6894 72.0023 64.1833C72.0624 64.7419 71.8315 65.2074 71.4374 65.5715C71.1761 65.8129 71.1431 65.5589 71.142 65.3613C71.1379 64.6401 71.1404 63.919 71.1404 63.1021Z" fill="#D09674"/>
<path d="M69.4282 58.7678C69.4282 59.3498 69.4282 59.8407 69.4282 60.3418C68.8571 60.0156 68.8361 59.4378 69.4282 58.7678Z" fill="#CF9472"/>
<path d="M76.5877 65.2386H75.5201V68.1679H72.8997L71.091 65.2386H67.6853V68.1679H65.259V65.2386H64.209V62.9535H65.259V60.6154H64.209V58.339H65.259V55.2334H67.8L69.7058 58.339H73.0939V55.2334H75.5203V58.339H76.5878V60.6154H75.5203V62.9535H76.5878V65.2386H76.5877ZM69.6794 62.9535L68.2323 60.6154H67.6853V62.9535H69.6794ZM73.0938 62.9535V60.6154H71.0997L72.529 62.9535H73.0938Z" fill="white"/>
</svg>
