<svg width="23" height="23" viewBox="0 0 23 23" fill="none" xmlns="http://www.w3.org/2000/svg">
<path d="M18.856 9.4188e-08L3.49185 1.74422e-08C1.56336 7.80915e-09 -8.42991e-09 1.56336 -1.88287e-08 3.49185L-1.01675e-07 18.856C-1.12074e-07 20.7845 1.56335 22.3478 3.49185 22.3478L18.856 22.3478C20.7845 22.3478 22.3478 20.7845 22.3478 18.856L22.3478 3.49185C22.3478 1.56336 20.7845 1.03821e-07 18.856 9.4188e-08Z" fill="#1877F2"/>
<path d="M16.7608 11.1741C16.7608 8.10129 14.2467 5.58716 11.1739 5.58716C8.10105 5.58716 5.58691 8.10129 5.58691 11.1741C5.58691 13.9676 7.61219 16.2722 10.266 16.6912L10.266 12.7804L8.86925 12.7804L8.86925 11.1741L10.266 11.1741L10.266 9.91705C10.266 8.52031 11.104 7.75211 12.3611 7.75211C12.9896 7.75211 13.6182 7.89178 13.6182 7.89178L13.6182 9.28852L12.9198 9.28852C12.2214 9.28852 12.0119 9.70754 12.0119 10.1266L12.0119 11.1741L13.5483 11.1741L13.269 12.7804L11.9421 12.7804L11.9421 16.7611C14.7356 16.3421 16.7608 13.9676 16.7608 11.1741Z" fill="white"/>
</svg>
