<svg width="626" height="392" viewBox="0 0 626 392" fill="none" xmlns="http://www.w3.org/2000/svg">
<path d="M827.616 330.414L642.814 650.193C634.346 664.844 618.721 673.826 601.873 673.826H504.627C479.835 673.826 459.671 653.769 459.671 628.915V485.028L576.296 552.263C589.565 559.937 606.587 555.402 614.269 542.06L629.196 516.247C636.878 502.992 632.339 485.987 618.983 478.313L434.617 371.924C423.705 365.645 410.262 365.645 399.35 371.924L214.984 478.488C201.716 486.162 197.089 503.166 204.771 516.421L219.698 542.234C227.38 555.489 244.403 560.111 257.671 552.437L374.297 485.202V629.09C374.297 653.856 354.219 674 329.34 674H232.181C215.333 674 199.708 665.018 191.241 650.368L6.35066 330.589C-2.11689 315.938 -2.11689 297.974 6.35066 283.324L54.9737 199.259C67.3695 177.806 94.8675 170.394 116.342 182.864L241.085 254.808L124.46 322.043C111.191 329.717 106.565 346.721 114.247 359.977L129.174 385.789C136.856 399.044 153.879 403.666 167.147 395.992L351.513 289.603C362.425 283.324 369.146 271.639 369.146 259.081V46.3893C369.146 31.0413 356.663 18.6583 341.386 18.6583H311.619C296.255 18.6583 283.86 31.1285 283.86 46.3893V180.946L159.116 109.002C137.641 96.619 130.221 69.1496 142.704 47.6973L191.327 -36.3677C199.795 -51.018 215.421 -60 232.268 -60H601.96C618.896 -60 634.434 -51.018 642.901 -36.3677L691.524 47.6973C703.92 69.1496 696.588 96.619 675.113 109.002L550.369 180.946V46.3893C550.369 31.0413 537.886 18.6583 522.61 18.6583H492.842C477.479 18.6583 465.083 31.1286 465.083 46.4766V259.168C465.083 271.726 471.804 283.411 482.716 289.69L667.082 396.079C680.35 403.753 697.373 399.219 705.055 385.876L719.982 360.064C727.664 346.809 723.125 329.804 709.769 322.13L593.144 254.895L717.887 182.952C739.361 170.569 766.859 177.894 779.255 199.346L827.878 283.411C836.084 297.8 836.084 315.851 827.616 330.414Z" fill="#010A23"/>
</svg>
