<svg width="24" height="23" viewBox="0 0 24 23" fill="none" xmlns="http://www.w3.org/2000/svg">
<path d="M19.5808 9.4188e-08L4.2167 1.74422e-08C2.28821 7.80915e-09 0.724854 1.56336 0.724853 3.49185L0.724853 18.856C0.724853 20.7845 2.28821 22.3478 4.2167 22.3478L19.5808 22.3478C21.5093 22.3478 23.0727 20.7845 23.0727 18.856L23.0727 3.49185C23.0727 1.56336 21.5093 1.03821e-07 19.5808 9.4188e-08Z" fill="#F00073"/>
<path d="M11.8988 6.425C13.4352 6.425 13.6447 6.425 14.2732 6.425C14.8319 6.425 15.1113 6.56467 15.3208 6.63451C15.6001 6.77418 15.8096 6.84402 16.0192 7.05353C16.2287 7.26304 16.3683 7.47255 16.4382 7.7519C16.508 7.96141 16.5778 8.24076 16.6477 8.79946C16.6477 9.42799 16.6477 9.56766 16.6477 11.1739C16.6477 12.7802 16.6477 12.9198 16.6477 13.5484C16.6477 14.1071 16.508 14.3864 16.4382 14.5959C16.2985 14.8753 16.2287 15.0848 16.0192 15.2943C15.8096 15.5038 15.6001 15.6435 15.3208 15.7133C15.1113 15.7832 14.8319 15.853 14.2732 15.9228C13.6447 15.9228 13.505 15.9228 11.8988 15.9228C10.2925 15.9228 10.1528 15.9228 9.52431 15.9228C8.96561 15.9228 8.68626 15.7832 8.47675 15.7133C8.19741 15.5736 7.98789 15.5038 7.77838 15.2943C7.56887 15.0848 7.4292 14.8753 7.35936 14.5959C7.28952 14.3864 7.21969 14.1071 7.14985 13.5484C7.14985 12.9198 7.14985 12.7802 7.14985 11.1739C7.14985 9.56766 7.14985 9.42799 7.14985 8.79946C7.14985 8.24076 7.28952 7.96141 7.35936 7.7519C7.49904 7.47255 7.56887 7.26304 7.77838 7.05353C7.98789 6.84402 8.19741 6.70435 8.47675 6.63451C8.68626 6.56467 8.96561 6.49483 9.52431 6.425C10.1528 6.425 10.3624 6.425 11.8988 6.425ZM11.8988 5.37744C10.2925 5.37744 10.1528 5.37744 9.52431 5.37744C8.89578 5.37744 8.47675 5.51712 8.12757 5.65679C7.77838 5.79646 7.4292 6.00598 7.08001 6.35516C6.73083 6.70435 6.59115 6.98369 6.38164 7.40272C6.24197 7.7519 6.17213 8.17092 6.10229 8.79946C6.10229 9.42799 6.10229 9.6375 6.10229 11.1739C6.10229 12.7802 6.10229 12.9198 6.10229 13.5484C6.10229 14.1769 6.24197 14.5959 6.38164 14.9451C6.52132 15.2943 6.73083 15.6435 7.08001 15.9927C7.4292 16.3419 7.70855 16.4815 8.12757 16.691C8.47675 16.8307 8.89578 16.9006 9.52431 16.9704C10.1528 16.9704 10.3624 16.9704 11.8988 16.9704C13.4352 16.9704 13.6447 16.9704 14.2732 16.9704C14.9018 16.9704 15.3208 16.8307 15.67 16.691C16.0192 16.5514 16.3683 16.3419 16.7175 15.9927C17.0667 15.6435 17.2064 15.3641 17.4159 14.9451C17.5556 14.5959 17.6254 14.1769 17.6952 13.5484C17.6952 12.9198 17.6952 12.7103 17.6952 11.1739C17.6952 9.6375 17.6952 9.42799 17.6952 8.79946C17.6952 8.17092 17.5556 7.7519 17.4159 7.40272C17.2762 7.05353 17.0667 6.70435 16.7175 6.35516C16.3683 6.00598 16.089 5.8663 15.67 5.65679C15.3208 5.51712 14.9018 5.44728 14.2732 5.37744C13.6447 5.37744 13.505 5.37744 11.8988 5.37744Z" fill="white"/>
<path d="M11.8988 8.17092C10.2227 8.17092 8.89578 9.49783 8.89578 11.1739C8.89578 12.85 10.2227 14.1769 11.8988 14.1769C13.5749 14.1769 14.9018 12.85 14.9018 11.1739C14.9018 9.49783 13.5749 8.17092 11.8988 8.17092ZM11.8988 13.1294C10.8512 13.1294 9.94333 12.2913 9.94333 11.1739C9.94333 10.1264 10.7814 9.21848 11.8988 9.21848C12.9463 9.21848 13.8542 10.0565 13.8542 11.1739C13.8542 12.2215 12.9463 13.1294 11.8988 13.1294Z" fill="white"/>
<path d="M14.9716 8.79946C15.3573 8.79946 15.67 8.48679 15.67 8.10109C15.67 7.71539 15.3573 7.40272 14.9716 7.40272C14.5859 7.40272 14.2732 7.71539 14.2732 8.10109C14.2732 8.48679 14.5859 8.79946 14.9716 8.79946Z" fill="white"/>
</svg>
