<svg width="24" height="23" viewBox="0 0 24 23" fill="none" xmlns="http://www.w3.org/2000/svg">
<path d="M19.7183 9.4188e-08L4.35416 1.74422e-08C2.42566 7.80915e-09 0.862305 1.56336 0.862305 3.49185L0.862305 18.856C0.862305 20.7845 2.42566 22.3478 4.35416 22.3478L19.7183 22.3478C21.6468 22.3478 23.2102 20.7845 23.2102 18.856L23.2102 3.49185C23.2102 1.56336 21.6468 1.03821e-07 19.7183 9.4188e-08Z" fill="#2867B2"/>
<path d="M8.96336 16.7611L6.58889 16.7611L6.58889 9.28852L8.96336 9.28852L8.96336 16.7611ZM7.77612 8.24097C7.00792 8.24097 6.44922 7.68227 6.44922 6.91406C6.44922 6.14585 7.07775 5.58716 7.77612 5.58716C8.54433 5.58716 9.10303 6.14585 9.10303 6.91406C9.10303 7.68227 8.54433 8.24097 7.77612 8.24097ZM17.6231 16.7611L15.2487 16.7611L15.2487 12.7105C15.2487 11.5233 14.7598 11.1741 14.0614 11.1741C13.3631 11.1741 12.6647 11.7328 12.6647 12.7804L12.6647 16.7611L10.2903 16.7611L10.2903 9.28852L12.525 9.28852L12.525 10.3361C12.7345 9.84722 13.5726 9.07901 14.7598 9.07901C16.0867 9.07901 17.4835 9.84722 17.4835 12.1518L17.4835 16.7611L17.6231 16.7611Z" fill="white"/>
</svg>
