<svg width="58" height="58" viewBox="0 0 58 58" fill="none" xmlns="http://www.w3.org/2000/svg">
<path d="M0.49136 11.6317C0.801478 11.3603 1.161 11.2937 1.56978 11.2961C3.99715 11.3101 6.42467 11.2978 8.8522 11.3086C9.2272 11.3103 9.51053 11.1896 9.8077 10.9603C11.7668 9.44955 13.5866 7.74836 15.6638 6.40417C18.6368 4.48022 21.7919 4.33795 25.0117 5.80581C25.7169 6.12723 26.4004 6.49628 27.0938 6.84345C27.4387 6.77932 27.66 7.04628 27.9312 7.16949C28.4118 7.38809 28.878 7.63943 29.3554 7.86681C30.414 8.51488 31.5609 8.99538 32.6444 9.59672C33.1365 9.95356 33.8009 10.0388 34.1822 10.5711C34.192 10.9031 33.9427 11.0547 33.7206 11.2175C32.2672 12.282 30.6989 12.4281 29.0294 11.8083C27.5512 11.2595 26.073 10.7106 24.5843 10.1909C23.728 9.89195 23.5772 10.018 23.5763 10.9394C23.576 11.1991 23.619 11.4576 23.5925 11.7174C23.2981 12.6446 23.1074 13.605 22.6888 14.4933C22.5398 14.8095 22.4111 15.1345 22.217 15.4274C22.1028 15.5835 22.0255 15.7576 21.9676 15.9416C21.8419 16.3043 21.549 16.5468 21.3196 16.8335C18.7846 20.0016 17.1025 23.5473 16.533 27.59C16.5029 27.8038 16.4821 28.0385 16.2428 28.1525C15.9882 28.1602 15.7821 28.0251 15.5682 27.9191C14.5066 27.3931 13.4502 26.8569 12.3885 26.3315C10.5186 25.406 8.55636 24.8871 6.4522 24.9242C4.73123 24.9544 3.00921 24.9324 1.28779 24.9284C1.01442 24.9278 0.726776 24.9742 0.491211 24.7711C0.49136 20.3912 0.49136 16.0114 0.49136 11.6317Z" fill="#B28B67"/>
<path d="M33.784 57.5073C33.1081 57.2446 32.3824 57.2528 31.6813 57.1302C29.4422 56.7385 27.3398 55.9201 25.2302 55.1186C21.4584 53.6859 17.687 52.2519 13.9103 50.8324C12.2998 50.2271 11.7094 49.1731 12.0887 47.4926C12.3734 47.347 12.4918 47.5893 12.6251 47.7438C12.9369 48.1051 13.318 48.357 13.7579 48.5255C18.5031 50.3418 23.2485 52.1583 28.0185 53.9077C32.3136 55.483 36.7105 55.5661 41.174 54.7289C44.7276 54.0623 48.2899 53.439 51.8585 52.8568C52.9967 52.6711 54.1543 52.8119 55.3027 52.7859C55.8217 52.7741 56.3412 52.7805 56.8604 52.7857C57.0817 52.7879 57.3103 52.7723 57.489 52.9458C57.4929 53.3345 57.4998 53.7231 57.4998 54.1117C57.4997 54.8345 57.3198 55.0315 56.5875 55.0406C55.4955 55.0542 54.4013 55.0856 53.3116 55.0347C51.6823 54.9585 50.1286 55.4019 48.5488 55.6548C45.0579 56.2134 41.5999 56.9702 38.0879 57.4058C38.0233 57.4138 37.9649 57.4722 37.9036 57.5071C37.6438 57.5071 37.384 57.5071 37.1242 57.5071C36.9016 57.4161 36.6788 57.4161 36.4562 57.5071C35.9737 57.5071 35.4911 57.5071 35.0087 57.5071C34.7118 57.4135 34.4148 57.4135 34.1179 57.5071C34.0066 57.5073 33.8953 57.5073 33.784 57.5073Z" fill="#A58163"/>
<path d="M0.491509 24.7708C2.6232 24.7705 4.75489 24.773 6.88658 24.7693C8.69312 24.7662 10.3971 25.2194 12.0165 25.9791C13.4586 26.6556 14.8705 27.3965 16.2958 28.1089C16.5572 28.4116 16.4486 28.777 16.4685 29.1208C16.3987 29.4913 16.588 29.904 16.288 30.2371C16.0599 30.0087 15.7629 29.895 15.4802 29.7605C13.7632 28.9427 12.1302 27.9421 10.2942 27.3827C9.06931 27.0095 7.81738 26.7973 6.53881 26.784C4.79938 26.7662 3.05951 26.7718 1.31993 26.7843C0.979751 26.7867 0.70505 26.7066 0.491211 26.441C0.491509 25.8843 0.491509 25.3275 0.491509 24.7708Z" fill="#A58163"/>
<path d="M34.1177 57.5074C34.4145 57.3296 34.7116 57.3407 35.0084 57.5074C34.7116 57.5074 34.4147 57.5074 34.1177 57.5074Z" fill="#F1D9C9"/>
<path d="M36.4558 57.5076C36.6784 57.3398 36.9012 57.3374 37.1238 57.5076C36.9012 57.5076 36.6786 57.5076 36.4558 57.5076Z" fill="#ECCCB5"/>
<path d="M16.3013 29.1125C16.2994 28.778 16.2976 28.4435 16.2957 28.1091C16.6617 25.3527 17.4678 22.7374 18.8193 20.3005C19.601 18.8908 20.4873 17.552 21.559 16.3414C21.68 16.2048 21.7691 16.0399 21.873 15.8881C21.9535 15.7253 22.0702 15.588 22.1833 15.448C22.9806 14.4048 24.0136 13.6066 24.9895 12.7498C25.1674 12.5937 25.3624 12.4496 25.6111 12.4134C26.6785 12.5957 27.6538 13.0624 28.6624 13.4207C29.6868 13.7847 30.7005 14.0948 31.8059 13.8478C33.0078 13.5792 33.9388 12.9404 34.5822 11.8887C34.6688 11.7472 34.7264 11.5846 34.903 11.5216C36.0267 11.3774 37.1545 11.4877 38.2797 11.457C38.6859 11.446 39.0931 11.4437 39.4992 11.463C39.7367 11.4743 39.9902 11.4691 40.121 11.7341C45.6704 15.6942 49.295 20.8904 50.3366 27.7238C50.4633 28.5542 50.6049 29.4064 50.389 30.2542C50.1202 30.0107 50.4033 29.7043 50.3256 29.5016C50.1963 31.1052 49.421 32.4598 48.3274 33.6504C46.6979 35.4245 44.5801 36.3296 42.3094 36.933C40.1512 37.5065 37.9518 37.7747 35.7191 37.8574C34.7201 37.8945 33.7206 37.9863 32.7219 37.9452C29.3859 37.8085 26.0541 37.6227 22.8729 36.4571C20.8165 35.7035 18.9818 34.6308 17.6829 32.8024C16.8968 31.6958 16.4156 30.4722 16.3013 29.1125Z" fill="#005EDE"/>
<path d="M57.4888 52.9463C55.801 52.945 54.1107 52.8877 52.4265 52.9634C51.422 53.0087 50.4253 53.2535 49.428 53.4246C46.9255 53.8541 44.4207 54.2721 41.9244 54.7359C40.5667 54.9883 39.2097 55.2932 37.8356 55.3587C36.3803 55.4282 34.9178 55.4517 33.4539 55.3008C31.5313 55.1026 29.6648 54.6892 27.8595 54.0268C24.9275 52.9511 22.0138 51.8249 19.0933 50.7178C17.3479 50.0562 15.6068 49.3828 13.8577 48.7313C13.2524 48.5059 12.7088 48.2199 12.3671 47.644C12.3046 47.5386 12.2079 47.4941 12.0884 47.4928C12.5077 46.3477 13.8769 45.5682 15.3129 45.9678C19.4369 47.1151 23.58 48.1929 27.7151 49.3002C27.8553 49.3377 27.9923 49.4353 28.1114 49.2666C31.2731 49.3783 34.4359 49.2944 37.5983 49.3124C37.856 49.3139 38.2215 49.4535 38.3459 49.1377C38.4587 48.8513 38.2349 48.5687 38.0472 48.34C37.6127 47.8105 37.0218 47.6553 36.3614 47.6562C33.8626 47.6596 31.3636 47.6605 28.8648 47.6544C28.5754 47.6536 28.2665 47.7139 28.0157 47.4923C28.7295 45.508 30.265 44.583 32.3402 44.5964C33.3603 44.6029 34.3871 44.5236 35.3989 44.6148C36.9018 44.7504 38.2425 44.3534 39.542 43.6614C41.3002 42.7251 43.1889 42.3363 45.1695 42.4849C47.2923 42.6443 49.1781 43.452 50.8826 44.7108C51.3138 45.0292 51.7732 45.3098 52.2045 45.6284C52.4131 45.7825 52.6278 45.8267 52.8775 45.8252C54.1016 45.8184 55.3257 45.8197 56.5498 45.8231C57.3153 45.8252 57.5009 46.0117 57.5 46.7699C57.4973 48.8291 57.4927 50.8877 57.4888 52.9463Z" fill="#B28B67"/>
<path d="M26.8592 6.09133C26.4262 4.97229 25.9488 3.86783 25.5726 2.72989C25.1997 1.60206 26.0095 0.508316 27.1955 0.503703C31.2888 0.488227 35.3824 0.488971 39.4757 0.502215C40.7209 0.506233 41.5283 1.6406 41.1157 2.80399C40.7392 3.8656 40.3017 4.90547 39.8911 5.95502C39.7675 6.06187 39.6191 6.0522 39.4696 6.04967C35.7269 5.98315 31.9839 6.04163 28.241 6.01514C27.7767 6.01172 27.3251 6.17243 26.8592 6.09133Z" fill="#005EDE"/>
<path d="M16.3017 29.1125C16.574 29.8905 16.7279 30.7027 17.0766 31.4614C18.105 33.6985 19.926 35.0567 22.1001 35.9942C24.0434 36.8322 26.1023 37.2429 28.2038 37.4758C30.28 37.7058 32.3619 37.8613 34.4463 37.785C37.5799 37.6704 40.708 37.4252 43.6945 36.3578C45.9516 35.5511 47.9364 34.3523 49.2236 32.2271C49.7848 31.3005 50.1286 30.3006 50.3897 29.2387C50.3897 29.5773 50.3897 29.9158 50.3897 30.2545C50.2483 33.5289 48.6437 35.8826 45.829 37.459C43.7757 38.6088 41.5256 39.1314 39.2222 39.4668C36.477 39.8665 33.7128 39.9025 30.9518 39.779C27.6809 39.6326 24.4471 39.2152 21.4532 37.7584C18.3197 36.2337 16.4931 33.7862 16.2883 30.2375C16.2928 29.8624 16.2973 29.4874 16.3017 29.1125Z" fill="#0F52A3"/>
<path d="M26.8594 6.09132C27.1972 5.87421 27.5784 5.84341 27.9635 5.84326C31.667 5.84162 35.3704 5.83984 39.0738 5.84713C39.3464 5.84772 39.6189 5.91736 39.8915 5.95501C39.6689 6.58373 39.4461 7.21245 39.2235 7.84132C39.0168 8.11096 38.7114 8.12658 38.4168 8.12837C35.6549 8.14519 32.893 8.13938 30.1311 8.13164C29.8528 8.1309 29.5824 8.05962 29.3235 7.95337C28.5363 7.67182 27.8134 7.26111 27.094 6.8434C27.0158 6.59266 26.9375 6.34207 26.8594 6.09132Z" fill="#0F52A3"/>
<path d="M28.0155 47.4925C30.9037 47.4903 33.792 47.4828 36.6801 47.4889C37.6589 47.491 38.5053 48.2496 38.6436 49.1926C38.6716 49.3837 38.6283 49.4786 38.4347 49.4874C38.3238 49.4925 38.2125 49.4911 38.1015 49.4911C35.0281 49.4913 31.9548 49.4889 28.8814 49.4952C28.5939 49.4958 28.3305 49.4696 28.1112 49.2666C27.6584 48.698 27.9198 48.0909 28.0155 47.4925Z" fill="#A58163"/>
<path d="M29.3235 7.95327C32.2211 7.94955 35.1187 7.94345 38.0163 7.94508C38.4233 7.94538 38.826 7.93347 39.2235 7.84106C39.3574 7.97827 39.5318 7.94627 39.6924 7.93987C40.4264 7.91086 40.9557 8.23943 41.3279 8.85371C40.9609 9.50639 40.3413 9.7604 39.655 9.77633C37.5081 9.82633 35.3601 9.79403 33.2125 9.79731C32.9916 9.79761 32.7945 9.62246 32.5668 9.7299C31.5577 9.1927 30.5482 8.65654 29.5406 8.11681C29.4614 8.07469 29.3955 8.00833 29.3235 7.95327Z" fill="#F4DD8D"/>
<path d="M32.5667 9.7301C32.7339 9.55554 32.9498 9.63084 33.1439 9.63039C35.1553 9.62474 37.1668 9.61745 39.1781 9.63188C39.9244 9.63724 40.6065 9.52712 41.1258 8.92638C41.1666 8.87921 41.2595 8.87697 41.3279 8.85376C41.8672 9.97638 41.523 10.991 40.4187 11.5149C40.3019 11.5704 40.1748 11.5984 40.1217 11.7344C39.9513 11.649 39.7706 11.6328 39.582 11.6334C37.987 11.6389 36.3921 11.6396 34.797 11.6418C34.5983 11.2514 34.425 10.8456 34.1178 10.5209C33.6007 10.2573 33.0838 9.99379 32.5667 9.7301Z" fill="#ECD07A"/>
<path d="M34.1179 10.521C34.6189 10.7282 34.8181 11.1182 34.7971 11.6418C34.6417 12.4107 34.0709 12.8619 33.488 13.2749C31.9251 14.382 30.2879 14.2348 28.598 13.5597C27.5916 13.1578 26.5822 12.7456 25.5184 12.5021C24.8156 12.3572 24.1267 12.1767 23.5452 11.7243C23.3157 11.2466 23.3976 10.7317 23.4596 10.2517C23.5106 9.85614 23.8797 9.79022 24.2467 9.92206C25.4288 10.3468 26.6105 10.7724 27.7931 11.1954C28.7292 11.5304 29.6489 11.9091 30.6447 12.0604C31.7331 12.2256 33.728 11.3646 34.1179 10.521Z" fill="#A58163"/>
<path d="M34.1404 26.1021C34.6944 26.3376 34.9492 26.6894 35.0023 27.1833C35.0624 27.7419 34.8315 28.2074 34.4374 28.5715C34.1761 28.8129 34.1431 28.5589 34.142 28.3613C34.1379 27.6401 34.1404 26.919 34.1404 26.1021Z" fill="#D09674"/>
<path d="M32.4282 21.7678C32.4282 22.3498 32.4282 22.8407 32.4282 23.3418C31.8571 23.0156 31.8361 22.4378 32.4282 21.7678Z" fill="#CF9472"/>
<path d="M39.5877 28.2386H38.5201V31.1679H35.8997L34.091 28.2386H30.6853V31.1679H28.259V28.2386H27.209V25.9535H28.259V23.6154H27.209V21.339H28.259V18.2334H30.8L32.7058 21.339H36.0939V18.2334H38.5203V21.339H39.5878V23.6154H38.5203V25.9535H39.5878V28.2386H39.5877ZM32.6794 25.9535L31.2323 23.6154H30.6853V25.9535H32.6794ZM36.0938 25.9535V23.6154H34.0997L35.529 25.9535H36.0938Z" fill="white"/>
</svg>
