<svg width="61" height="61" viewBox="0 0 61 61" fill="none" xmlns="http://www.w3.org/2000/svg">
<circle cx="30.5" cy="30.5" r="30.5" fill="#DEECFF"/>
<path d="M22.2864 16C26.2122 16 30.138 16 34.0638 16C34.0638 17.9723 34.0638 19.9446 34.0638 21.9169C34.0641 23.7068 35.1518 24.789 36.9507 24.789C38.8057 24.789 40.6611 24.789 42.5161 24.789C42.6203 24.789 42.7243 24.789 42.8528 24.789C42.8528 24.9163 42.8528 25.0117 42.8528 25.1075C42.8528 31.1514 42.8537 37.1953 42.8522 43.2389C42.8516 44.8702 41.7212 45.9988 40.0889 45.9991C34.3184 46.0006 28.5481 46 22.7776 45.9985C22.6121 45.9985 22.4442 45.9973 22.2818 45.9706C20.8917 45.743 20.0025 44.6835 20.0022 43.2507C20.0001 37.2562 20.001 31.2614 20.001 25.2663C20.001 23.0694 19.998 20.8726 20.0025 18.6757C20.0046 17.7411 20.3825 16.9792 21.1644 16.4691C21.4984 16.2512 21.91 16.1527 22.2864 16ZM31.4366 30.121C33.1634 30.121 34.8902 30.1195 36.6171 30.1222C37.0283 30.1228 37.3399 29.9601 37.5062 29.5797C37.7702 28.9751 37.3196 28.3648 36.6119 28.3642C34.1729 28.362 31.7339 28.3633 29.2949 28.3633C28.2705 28.3633 27.2462 28.3651 26.2219 28.3623C25.8215 28.3614 25.5197 28.5263 25.3527 28.8906C25.0781 29.4897 25.5257 30.1183 26.227 30.1198C27.9635 30.1234 29.7001 30.121 31.4366 30.121ZM31.4217 31.879C29.6949 31.879 27.9681 31.8812 26.2413 31.8775C25.8294 31.8766 25.5176 32.0375 25.3488 32.4154C25.0799 33.0167 25.5315 33.6353 26.237 33.6359C28.52 33.6386 30.8029 33.6368 33.0858 33.6368C34.2662 33.6368 35.4467 33.6353 36.6274 33.6377C37.0265 33.6386 37.3302 33.4783 37.4987 33.1131C37.7754 32.513 37.3314 31.8818 36.6319 31.8802C34.8948 31.8766 33.1583 31.879 31.4217 31.879ZM31.4257 37.1522C33.1525 37.1522 34.8793 37.1504 36.6062 37.1538C37.0029 37.1547 37.3117 37.0107 37.4887 36.647C37.779 36.05 37.3465 35.3985 36.6522 35.3963C34.9742 35.3909 33.2962 35.3945 31.6181 35.3945C29.8231 35.3945 28.0278 35.396 26.2328 35.3933C25.8473 35.3927 25.5479 35.5376 25.3712 35.8864C25.0657 36.4892 25.5042 37.1489 26.2158 37.1507C27.9523 37.1553 29.6892 37.1522 31.4257 37.1522ZM29.6737 38.9103C28.5327 38.9103 27.3917 38.9091 26.2507 38.9109C25.6797 38.9118 25.2824 39.2673 25.2757 39.7767C25.2687 40.2989 25.6697 40.6671 26.2558 40.6674C28.5281 40.6689 30.8005 40.6686 33.0728 40.6674C33.6644 40.6671 34.0638 40.3086 34.0626 39.7861C34.0614 39.264 33.6625 38.9109 33.0679 38.9103C31.9363 38.9094 30.805 38.9103 29.6737 38.9103Z" fill="#4086F4"/>
<path d="M35.8212 16.5767C37.9817 18.7356 40.117 20.8701 42.2654 23.0173C42.1972 23.0218 42.1254 23.0306 42.0536 23.0306C40.3074 23.0315 38.5614 23.0321 36.8152 23.0306C36.1718 23.03 35.8221 22.6793 35.8218 22.035C35.8206 20.2888 35.8212 18.5429 35.8212 16.7967C35.8212 16.7297 35.8212 16.6624 35.8212 16.5767Z" fill="#4086F4"/>
</svg>
