<svg width="61" height="61" viewBox="0 0 61 61" fill="none" xmlns="http://www.w3.org/2000/svg">
<circle cx="30.5" cy="30.5" r="30.5" fill="#FFECE5"/>
<path d="M24.4528 19C27.9059 19 31.3591 19 34.8121 19C34.8121 20.7497 34.8118 22.4995 34.8121 24.2495C34.8121 24.8297 35.0756 25.0937 35.6546 25.0937C37.3185 25.0939 38.9824 25.0937 40.6464 25.0937C40.7288 25.0937 40.8112 25.0937 40.906 25.0937C40.906 25.2038 40.906 25.2811 40.906 25.3582C40.906 30.4906 40.9065 35.6227 40.9058 40.7551C40.9055 42.1089 40.0143 42.9995 38.6605 42.9997C35.1294 43.0002 31.5987 42.9999 28.0677 42.9999C27.9927 42.9999 27.9176 42.9999 27.7694 42.9999C28.7339 42.3029 29.4719 41.4897 30.0325 40.5192C30.5935 39.548 30.9164 38.4982 31.0326 37.3749C31.3608 37.3749 31.6649 37.3749 31.9686 37.3749C33.5935 37.3749 35.2184 37.3732 36.8431 37.3764C37.1716 37.3768 37.424 37.2546 37.5619 36.9521C37.7809 36.4711 37.4228 35.9704 36.8605 35.9697C35.0092 35.9675 33.1579 35.9687 31.3063 35.9687C31.2156 35.9687 31.1249 35.9687 31.0275 35.9687C30.9385 34.9676 30.6565 34.0517 30.2238 33.1563C31.373 33.1563 32.4817 33.1563 33.5906 33.1563C34.6843 33.1563 35.778 33.1556 36.8717 33.1565C37.1922 33.1568 37.4334 33.022 37.5646 32.7291C37.7804 32.2471 37.4203 31.7513 36.8562 31.7508C34.4423 31.7491 32.0285 31.747 29.6147 31.7552C29.3846 31.7559 29.2343 31.688 29.0782 31.5164C27.7246 30.0273 26.0486 29.1612 24.0377 28.9826C23.5763 28.9416 23.1084 28.9765 22.6405 28.9765C22.6327 28.9113 22.6259 28.8812 22.6259 28.8512C22.6259 26.2499 22.6199 23.6485 22.631 21.0472C22.6339 20.3943 22.9081 19.8345 23.4449 19.4614C23.7434 19.2536 24.1143 19.1503 24.4528 19ZM31.7386 28.9375C33.4403 28.9375 35.1421 28.936 36.8436 28.9387C37.1607 28.9392 37.4085 28.8262 37.551 28.5355C37.7889 28.0499 37.4346 27.5327 36.8617 27.5322C34.4731 27.5301 32.0845 27.5313 29.6959 27.5313C28.6891 27.5313 27.6819 27.533 26.675 27.5303C26.3666 27.5296 26.1266 27.644 25.9843 27.9226C25.7382 28.4043 26.0878 28.935 26.6566 28.9363C28.3508 28.9396 30.0446 28.9375 31.7386 28.9375Z" fill="#DCAA2E"/>
<path d="M23.333 43C19.8429 43.0027 16.9969 40.1559 17 36.6651C17.0032 33.1843 19.8415 30.3469 23.3228 30.344C26.8145 30.3413 29.6589 33.1862 29.6558 36.6784C29.6529 40.1597 26.8148 42.9971 23.333 43ZM22.3407 37.6987C22.0463 37.4009 21.7748 37.1221 21.4989 36.8484C21.1609 36.5131 20.7349 36.4901 20.4403 36.7858C20.1455 37.0819 20.17 37.5059 20.5058 37.8444C20.9126 38.2544 21.3221 38.6619 21.7307 39.0699C22.1617 39.5008 22.5244 39.502 22.957 39.0702C23.9844 38.0444 25.0105 37.0174 26.0365 35.9901C26.0916 35.9351 26.1468 35.8786 26.1915 35.8153C26.4887 35.3925 26.2652 34.8201 25.7592 34.718C25.4821 34.6622 25.2595 34.7733 25.0653 34.9685C24.1687 35.8704 23.2687 36.7694 22.3407 37.6987Z" fill="#DCAA2E"/>
<path d="M36.2278 23.6697C36.2278 22.2608 36.2278 20.867 36.2278 19.5093C37.6117 20.8922 39.0089 22.2887 40.3906 23.6697C39.0424 23.6697 37.6451 23.6697 36.2278 23.6697Z" fill="#DCAA2E"/>
</svg>
