<svg width="61" height="61" viewBox="0 0 61 61" fill="none" xmlns="http://www.w3.org/2000/svg">
<circle cx="30.5" cy="30.5" r="30.5" fill="#F4EFF2"/>
<path d="M41.4543 33.4061C41.3341 33.4061 41.2396 33.4061 41.1448 33.4061C39.9183 33.4061 38.6911 33.4341 37.4657 33.399C35.9663 33.356 35.3675 34.1528 35.1777 35.3054C35.0407 36.1376 35.0396 36.9765 35.2579 37.7999C35.5305 38.8274 36.1928 39.3338 37.2556 39.3366C38.6407 39.3401 40.0259 39.3374 41.4034 39.3374C41.4228 39.3585 41.4448 39.3713 41.445 39.3842C41.4464 40.284 41.49 41.1865 41.4349 42.0831C41.3681 43.1732 40.4398 43.9892 39.3351 43.9952C37.7379 44.004 36.141 43.9977 34.5439 43.9977C30.132 43.9977 25.7201 43.998 21.3082 43.9977C19.8765 43.9977 19 43.122 19 41.6908C19 38.1439 19 34.5968 19.0003 31.0497C19.0003 29.6188 19.876 28.7461 21.311 28.7458C27.2581 28.7455 33.2053 28.7455 39.1524 28.7458C40.5819 28.7458 41.4538 29.6223 41.4543 31.0587C41.4546 31.8328 41.4543 32.6069 41.4543 33.4061Z" fill="#9E738C"/>
<path d="M22.6716 27.8982C23.3389 27.3126 23.947 26.7782 24.5559 26.2449C26.347 24.6757 28.1408 23.11 29.9275 21.5358C30.3545 21.1595 30.8155 20.9853 31.3554 21.234C31.901 21.4852 32.1399 21.9396 32.1344 22.5337C32.1298 23.0363 32.1262 23.5395 32.1374 24.0419C32.1413 24.2081 32.0821 24.2889 31.9358 24.3615C29.6237 25.5081 27.315 26.661 25.0045 27.8109C24.9273 27.8492 24.8415 27.8939 24.7594 27.8947C24.0908 27.9012 23.4221 27.8982 22.6716 27.8982Z" fill="#9E738C"/>
<path d="M39.7247 34.2536C40.5624 34.2536 41.4002 34.2512 42.2379 34.2542C43.0292 34.2572 43.5666 34.7924 43.5718 35.5813C43.5754 36.1102 43.5756 36.6394 43.5718 37.1686C43.5663 37.9427 43.0284 38.4872 42.2576 38.4888C40.5824 38.4929 38.9068 38.4918 37.2316 38.4891C36.5871 38.488 36.2439 38.2396 36.0864 37.6118C35.8793 36.7868 35.8782 35.9502 36.0883 35.1255C36.248 34.4993 36.589 34.2569 37.2382 34.2545C38.067 34.2514 38.8959 34.2536 39.7247 34.2536ZM40.1822 36.3745C40.1833 35.4397 39.4193 34.6763 38.4845 34.6779C37.5606 34.6796 36.8016 35.4334 36.7947 36.3556C36.7879 37.2918 37.5461 38.0615 38.479 38.0656C39.4136 38.07 40.1811 37.3077 40.1822 36.3745Z" fill="#9E738C"/>
<path d="M40.1873 27.0534C39.6258 26.6322 39.0777 26.2208 38.4872 25.7778C39.1188 25.4382 39.6047 24.9909 39.9091 24.3724C40.2142 23.7523 40.3144 23.102 40.1704 22.3912C39.8893 22.3912 39.6069 22.4096 39.3289 22.3833C39.1974 22.3709 39.0235 22.3038 38.9632 22.2044C38.9139 22.1231 38.9679 21.9302 39.0388 21.8324C39.6494 20.9896 40.2717 20.155 40.8962 19.3223C41.2175 18.8939 41.676 18.8923 41.9965 19.319C42.6216 20.1515 43.2439 20.9858 43.8539 21.8292C43.9284 21.9321 43.9815 22.131 43.9311 22.2225C43.8783 22.3184 43.6912 22.3718 43.5573 22.3841C43.2954 22.4085 43.0297 22.3912 42.7394 22.3912C42.661 24.3669 41.8316 25.9266 40.1873 27.0534Z" fill="#9E738C"/>
<path d="M35.9146 27.894C32.8889 27.894 29.8735 27.894 26.8079 27.894C26.8862 27.8403 26.9265 27.8056 26.9725 27.7825C29.3281 26.6056 31.6824 25.4255 34.0413 24.2551C35.0011 23.7791 35.9439 24.3735 35.9461 25.4436C35.9477 26.2371 35.9441 27.0309 35.9417 27.8245C35.9419 27.8401 35.9302 27.8557 35.9146 27.894Z" fill="#9E738C"/>
<path d="M38.4976 37.2184C38.038 37.2231 37.6501 36.8456 37.6425 36.3868C37.6345 35.9133 38.0196 35.5232 38.4927 35.5254C38.9531 35.5276 39.3339 35.9091 39.3349 36.3696C39.3363 36.83 38.9578 37.2138 38.4976 37.2184Z" fill="#9E738C"/>
</svg>
