<svg width="30" height="30" viewBox="0 0 30 30" fill="none" xmlns="http://www.w3.org/2000/svg">
<circle cx="15" cy="15" r="15" fill="#056CE8"/>
<path d="M10.4675 22C10.2675 22 10.1675 21.9 10.1675 21.7V19.98C10.1675 19.8333 10.2142 19.7067 10.3075 19.6L14.5075 15.2C14.5208 15.1867 14.6008 15.1067 14.7475 14.96C14.8942 14.8 14.9875 14.6933 15.0275 14.64C15.0675 14.5867 15.1475 14.4867 15.2675 14.34C15.4008 14.18 15.4942 14.06 15.5475 13.98C15.6008 13.8867 15.6742 13.76 15.7675 13.6C15.8608 13.44 15.9275 13.3 15.9675 13.18C16.0075 13.06 16.0408 12.92 16.0675 12.76C16.1075 12.6 16.1275 12.44 16.1275 12.28C16.1275 11.72 15.9408 11.2667 15.5675 10.92C15.1942 10.56 14.7008 10.38 14.0875 10.38C13.2208 10.38 12.4542 10.8333 11.7875 11.74C11.6408 11.9 11.4875 11.9 11.3275 11.74L10.1075 10.52C9.97417 10.3867 9.96083 10.24 10.0675 10.08C11.0942 8.58667 12.5075 7.84 14.3075 7.84C15.6408 7.84 16.7275 8.24 17.5675 9.04C18.4075 9.82667 18.8275 10.8267 18.8275 12.04C18.8275 12.6533 18.6942 13.2533 18.4275 13.84C18.1608 14.4267 17.9342 14.8333 17.7475 15.06C17.5742 15.2733 17.3075 15.5667 16.9475 15.94L13.4675 19.66H18.5275C18.7275 19.66 18.8275 19.76 18.8275 19.96V21.7C18.8275 21.9 18.7275 22 18.5275 22H10.4675Z" fill="white"/>
</svg>
