<svg width="30" height="30" viewBox="0 0 30 30" fill="none" xmlns="http://www.w3.org/2000/svg">
<circle cx="15" cy="15" r="15" fill="#8ABFFF"/>
<path d="M14.2945 22.26C13.3345 22.26 12.4945 22.0667 11.7745 21.68C11.0545 21.2933 10.4878 20.78 10.0745 20.14C9.98112 19.9667 10.0011 19.82 10.1345 19.7L11.4545 18.5C11.6011 18.3533 11.7478 18.3667 11.8945 18.54C12.5345 19.3267 13.2745 19.72 14.1145 19.72C14.7545 19.72 15.2611 19.5333 15.6345 19.16C16.0078 18.7867 16.1945 18.3267 16.1945 17.78C16.1945 17.26 16.0145 16.8133 15.6545 16.44C15.2945 16.0533 14.7745 15.86 14.0945 15.86H13.5545C13.3411 15.86 13.2345 15.7533 13.2345 15.54V13.92C13.2345 13.72 13.3411 13.62 13.5545 13.62H14.0745C14.6478 13.62 15.0811 13.46 15.3745 13.14C15.6678 12.82 15.8145 12.44 15.8145 12C15.8145 11.52 15.6478 11.1333 15.3145 10.84C14.9811 10.5333 14.5611 10.38 14.0545 10.38C13.2278 10.38 12.5945 10.7533 12.1545 11.5C12.0478 11.6867 11.9011 11.7 11.7145 11.54L10.4745 10.32C10.3145 10.1867 10.2945 10.0467 10.4145 9.9C10.8011 9.28667 11.3345 8.79333 12.0145 8.42C12.7078 8.03333 13.4878 7.84 14.3545 7.84C15.5145 7.84 16.4945 8.18 17.2945 8.86C18.0945 9.52667 18.4945 10.4133 18.4945 11.52C18.4945 12.2533 18.3078 12.88 17.9345 13.4C17.5611 13.92 17.0945 14.3067 16.5345 14.56C17.2411 14.84 17.8278 15.28 18.2945 15.88C18.7611 16.4667 18.9945 17.2067 18.9945 18.1C18.9945 19.3267 18.5478 20.3267 17.6545 21.1C16.7611 21.8733 15.6411 22.26 14.2945 22.26Z" fill="white"/>
</svg>
