<svg width="129" height="55" viewBox="0 0 129 55" fill="none" xmlns="http://www.w3.org/2000/svg">
<path d="M20.9879 32.8641C22.3959 32.8615 23.7413 32.7204 25.024 32.4383C26.3067 32.1561 27.4326 31.7434 28.4044 31.2052C29.3762 30.6671 30.1129 29.9931 30.6145 29.1833C31.1135 28.376 31.2754 27.433 31.0926 26.3567C30.8548 24.9434 30.1181 23.8148 28.8773 22.9632C27.6364 22.1141 26.0454 21.6883 24.1044 21.6909C22.4874 21.6935 21.0897 22.0123 19.9168 22.6523C18.7412 23.2923 17.7981 24.1466 17.0876 25.215C16.377 26.2809 15.8989 27.493 15.6508 28.8489C15.4052 30.2047 15.4026 31.6023 15.6429 33.0365C15.9329 34.7633 16.4867 36.174 17.307 37.2712C18.1273 38.3684 19.1174 39.1756 20.2773 39.6877C21.4372 40.2023 22.699 40.4583 24.0626 40.4557C25.2173 40.4531 26.3981 40.2676 27.6076 39.8966C28.7362 39.5492 29.8282 39.0528 30.8862 38.3998C31.009 38.324 31.0482 38.1594 30.9698 38.0366L29.5826 35.837C29.5121 35.7247 29.3658 35.6907 29.2482 35.7508C28.4514 36.1688 27.6703 36.5032 26.9049 36.7513C26.0716 37.023 25.2748 37.1589 24.512 37.1589C23.4017 37.1589 22.4743 36.8297 21.7298 36.1688C20.9826 35.5078 20.4837 34.4263 20.2329 32.9242C20.2277 32.8955 20.2277 32.8641 20.225 32.8354C20.2486 32.8354 20.2668 32.8406 20.2904 32.8406C20.502 32.8589 20.7345 32.8667 20.9879 32.8641ZM20.1519 29.9644C20.2355 29.1075 20.4079 28.3081 20.6927 27.5845C21.0009 26.7981 21.432 26.1633 21.9858 25.68C22.5396 25.1994 23.2214 24.9564 24.0287 24.9538C24.7445 24.9538 25.3244 25.1288 25.7633 25.4737C26.2022 25.8211 26.4686 26.2757 26.5627 26.8347C26.6489 27.352 26.5522 27.8117 26.2753 28.2141C25.9958 28.619 25.583 28.9481 25.0371 29.2094C24.4911 29.468 23.8719 29.6639 23.177 29.7998C22.4821 29.9356 21.7663 30.0035 21.027 30.0062C20.7501 30.0062 20.4889 29.9931 20.2407 29.9722C20.212 29.9696 20.1832 29.967 20.1519 29.9644Z" fill="white"/>
<path d="M50.8447 22.2913L44.6716 39.9275C44.635 40.0294 44.5384 40.0999 44.4313 40.0999L41.6831 40.1052C40.625 40.1078 39.6741 39.4599 39.2875 38.4724L34.0392 25.0108L32.5632 24.6503C32.4718 24.6268 32.4065 24.5458 32.4065 24.4517L32.3882 22.4663C32.3882 22.3279 32.4953 22.2155 32.6311 22.2077L36.6229 22.0065C37.3674 21.97 38.0414 22.4376 38.2687 23.1455L42.2735 35.6641L46.3122 22.2704C46.3436 22.1659 46.4376 22.0928 46.5473 22.0875L50.5939 21.9438C50.7742 21.9438 50.9048 22.1189 50.8447 22.2913Z" fill="white"/>
<path d="M56.5451 32.8167C57.9531 32.8141 59.2985 32.6731 60.5812 32.3909C61.8639 32.1088 62.9898 31.6986 63.9616 31.1579C64.9334 30.6197 65.6701 29.9457 66.1717 29.1359C66.6707 28.3287 66.8326 27.3856 66.6524 26.3093C66.4147 24.896 65.678 23.7674 64.4371 22.9158C63.1962 22.0642 61.6052 21.641 59.6642 21.6436C58.0472 21.6462 56.6496 21.9649 55.4766 22.6075C54.301 23.2476 53.358 24.1018 52.6474 25.1677C51.9368 26.2335 51.4587 27.4457 51.2106 28.8015C50.965 30.1573 50.9624 31.555 51.2027 32.9892C51.4927 34.7159 52.0465 36.1266 52.8668 37.2264C53.6871 38.3236 54.6772 39.1309 55.8371 39.6429C56.997 40.1575 58.2588 40.4136 59.6224 40.4109C60.7771 40.4109 61.9579 40.2229 63.1675 39.8519C64.296 39.5044 65.3906 39.0081 66.446 38.355C66.5688 38.2792 66.608 38.1147 66.5296 37.9919L65.1424 35.7922C65.0719 35.6799 64.9256 35.646 64.808 35.706C64.0113 36.124 63.2302 36.4584 62.4647 36.7066C61.6314 36.9783 60.8346 37.1115 60.0718 37.1141C58.9615 37.1141 58.0341 36.785 57.2896 36.124C56.5424 35.4631 56.0435 34.3842 55.7927 32.8821C55.7875 32.8533 55.7875 32.822 55.7849 32.7906C55.8084 32.7932 55.8266 32.7958 55.8502 32.7958C56.0592 32.8115 56.2917 32.8167 56.5451 32.8167ZM55.7091 29.917C55.7927 29.0601 55.9651 28.2607 56.2499 27.5371C56.5581 26.7508 56.9892 26.116 57.543 25.6353C58.0968 25.1546 58.7787 24.909 59.5859 24.909C60.3017 24.909 60.8816 25.0815 61.3205 25.4289C61.7594 25.7764 62.0258 26.2309 62.1199 26.79C62.2061 27.3072 62.1094 27.7644 61.8325 28.1693C61.553 28.5742 61.1402 28.906 60.5969 29.1646C60.0509 29.4232 59.4291 29.6192 58.7369 29.755C58.042 29.8909 57.3262 29.9588 56.5869 29.9614C56.3099 29.9614 56.0487 29.951 55.8005 29.9274C55.7692 29.9222 55.7404 29.9196 55.7091 29.917Z" fill="white"/>
<path d="M86.0598 40.0063H83.74C82.6088 40.0063 81.6918 39.0893 81.6892 37.9581L81.6736 28.8461C81.6945 28.1277 81.6213 27.4929 81.4593 26.9496C81.2948 26.3957 81.0596 25.9751 80.7409 25.6669C80.4222 25.3691 80.0016 25.2149 79.4687 25.2149C78.9567 25.2149 78.4629 25.3586 77.9823 25.6564C77.5016 25.9438 77.0705 26.3853 76.6787 26.9705C76.2894 27.5556 75.9812 28.2923 75.7565 29.2067C75.5214 30.1184 75.4169 31.1764 75.4378 32.3859L75.4587 39.7293C75.4587 39.8704 75.3437 39.9854 75.2027 39.9854L72.8698 39.9906C71.7387 39.9932 70.8191 39.0789 70.8139 37.9477L70.7616 25.2567L68.4366 24.5723C68.3504 24.5462 68.2903 24.4678 68.2903 24.3764L68.2825 22.3883C68.2825 22.2499 68.3922 22.1349 68.5306 22.1323L73.4524 21.9547C74.3563 21.9233 75.0903 22.6705 75.0433 23.5744L74.9362 25.5885C74.9885 25.4866 75.0276 25.3847 75.0799 25.2907C75.8192 24.0394 76.71 23.1067 77.7471 22.5111C78.7921 21.9155 79.8397 21.6177 80.8742 21.6177C81.9609 21.6177 82.9144 21.8737 83.7243 22.3857C84.5341 22.8977 85.1715 23.6162 85.6313 24.5383C86.0833 25.45 86.2975 26.5472 86.287 27.8299L86.3158 39.7476C86.3184 39.8913 86.2034 40.0063 86.0598 40.0063Z" fill="white"/>
<path d="M100.263 36.4375C100.203 36.3173 100.057 36.2677 99.9315 36.3225C99.5606 36.4793 99.2079 36.6099 98.8683 36.7144C98.4608 36.8372 98.095 36.8999 97.7737 36.8999C97.2878 36.8999 96.8985 36.7719 96.6007 36.5158C96.3029 36.2572 96.107 35.8366 96.0077 35.2541C95.9816 35.0973 95.9607 34.9484 95.9502 34.8021C95.9372 34.6558 95.9346 34.5383 95.9424 34.4494L95.9058 25.0997L100.305 25.0945C100.417 25.0945 100.509 25.0031 100.509 24.8907V22.2052C100.509 22.0929 100.417 21.9988 100.302 21.9988L95.898 22.004L95.8693 17.5656C95.8693 17.4062 95.7256 17.2861 95.5688 17.3148L91.4674 18.0384C91.3446 18.0593 91.2558 18.1664 91.2558 18.2918L91.2584 22.0014L88.7453 22.5814C88.6512 22.6023 88.5859 22.6859 88.5859 22.7825V24.9038C88.5859 25.0161 88.6774 25.1102 88.7923 25.1076L91.261 25.1049L91.3028 34.6898C91.3237 34.9589 91.342 35.2018 91.3551 35.4134C91.3681 35.6276 91.3942 35.8471 91.4308 36.0691C91.6816 37.5712 92.2825 38.6658 93.2281 39.3477C94.1738 40.0295 95.3181 40.3717 96.6582 40.3691C97.3975 40.3691 98.1943 40.2646 99.0512 40.0635C99.8244 39.8806 100.598 39.6141 101.371 39.2667C101.504 39.2066 101.564 39.042 101.499 38.9088L100.263 36.4375Z" fill="white"/>
<path d="M12.5604 21.7192C11.4501 21.7219 10.3738 22.0484 9.32883 22.6989C8.28126 23.352 7.40873 24.3055 6.70599 25.5621C6.68771 25.596 6.67465 25.6352 6.65375 25.6718L6.76869 23.5662C6.8131 22.725 6.12604 22.0249 5.28486 22.0536L0.248177 22.2339C0.10972 22.2391 0 22.354 0 22.4925L0.0156737 24.4805C0.0156737 24.5694 0.0757589 24.6503 0.161968 24.6765L2.48438 25.3714L2.53924 39.8492C2.53924 39.9903 2.65418 40.1052 2.79525 40.1052L6.92544 40.1C7.0665 40.1 7.18145 39.985 7.18145 39.844L7.15532 32.4979C7.15271 31.3772 7.2546 30.3688 7.46359 29.4702C7.66996 28.5715 7.96778 27.7983 8.35702 27.1478C8.74365 26.4973 9.19299 26.0088 9.70501 25.6822C10.0681 25.4523 10.4548 25.3191 10.8675 25.2747L11.2881 27.7826C11.3038 27.8819 11.39 27.955 11.4919 27.955L13.9083 27.9524C14.0494 27.9524 14.1617 27.8401 14.1644 27.699L14.2349 22.1921C14.2375 22.0771 14.1644 21.97 14.0546 21.9361C13.6053 21.7872 13.109 21.7192 12.5604 21.7192Z" fill="white"/>
<path d="M128.809 11.7009L123.279 21.2805C123.025 21.7194 122.558 21.9884 122.053 21.9884H119.143C118.401 21.9884 117.798 21.3876 117.798 20.6431V16.3326L121.288 18.3468C121.685 18.5767 122.195 18.4408 122.424 18.0411L122.871 17.2679C123.101 16.8708 122.965 16.3614 122.566 16.1315L117.048 12.9444C116.722 12.7563 116.319 12.7563 115.993 12.9444L110.475 16.1315C110.078 16.3614 109.94 16.8708 110.17 17.2679L110.616 18.0411C110.846 18.4382 111.356 18.5767 111.753 18.3468L115.243 16.3326V20.6431C115.243 21.385 114.642 21.9884 113.898 21.9884H110.99C110.486 21.9884 110.018 21.7194 109.765 21.2805L104.232 11.7009C103.978 11.262 103.978 10.7238 104.232 10.285L105.687 7.76662C106.058 7.12397 106.881 6.90192 107.523 7.27549L111.257 9.43071L107.766 11.4449C107.369 11.6748 107.231 12.1842 107.461 12.5812L107.907 13.3545C108.137 13.7516 108.647 13.8901 109.044 13.6602L114.561 10.4731C114.888 10.285 115.089 9.9349 115.089 9.55872V3.18711C115.089 2.72733 114.715 2.35637 114.258 2.35637H113.367C112.908 2.35637 112.537 2.72994 112.537 3.18711V7.21802L108.803 5.0628C108.161 4.69184 107.939 3.86894 108.312 3.2263L109.767 0.707956C110.021 0.269075 110.488 0 110.993 0H122.056C122.563 0 123.028 0.269075 123.281 0.707956L124.736 3.2263C125.107 3.86894 124.888 4.69184 124.245 5.0628L120.512 7.21802V3.18711C120.512 2.72733 120.139 2.35637 119.681 2.35637H118.791C118.331 2.35637 117.957 2.72994 117.96 3.18972V9.56133C117.96 9.93752 118.161 10.2876 118.488 10.4757L124.005 13.6628C124.402 13.8927 124.911 13.7568 125.141 13.3571L125.588 12.5839C125.818 12.1868 125.682 11.6774 125.282 11.4475L121.792 9.43332L125.525 7.27811C126.168 6.90715 126.991 7.12659 127.362 7.76923L128.817 10.2876C129.063 10.7238 129.063 11.2646 128.809 11.7009Z" fill="white"/>
<path d="M19.8619 51.1195H20.7631V54.1263C20.69 54.1498 20.5829 54.1786 20.4418 54.2099C20.3034 54.2413 20.1414 54.2726 19.9585 54.304C19.7757 54.3353 19.5771 54.3614 19.3603 54.3823C19.1435 54.4032 18.924 54.4137 18.702 54.4137C18.25 54.4137 17.8399 54.3405 17.4689 54.1916C17.098 54.0427 16.7793 53.8259 16.5128 53.5412C16.2463 53.2564 16.04 52.9063 15.8963 52.4936C15.75 52.0782 15.6794 51.6028 15.6794 51.0646C15.6794 50.5265 15.7604 50.0484 15.925 49.6304C16.0896 49.2124 16.309 48.8624 16.5886 48.5776C16.8681 48.2929 17.192 48.076 17.5682 47.9271C17.9418 47.7782 18.3415 47.7051 18.7699 47.7051C19.0599 47.7051 19.3185 47.7234 19.5458 47.7599C19.7704 47.7965 19.9638 47.8409 20.1257 47.8906C20.2877 47.9402 20.4183 47.9898 20.5202 48.0395C20.6221 48.0891 20.6926 48.1257 20.7292 48.1518L20.4418 48.9042C20.2616 48.7866 20.0238 48.6899 19.7286 48.6116C19.4308 48.5332 19.1278 48.4966 18.8195 48.4966C18.493 48.4966 18.1926 48.5541 17.9235 48.6717C17.6544 48.7892 17.4245 48.959 17.2364 49.1811C17.0483 49.4031 16.8994 49.6748 16.7949 49.9935C16.6904 50.3122 16.6382 50.6701 16.6382 51.0646C16.6382 51.4486 16.6826 51.7987 16.7714 52.1122C16.8602 52.4283 16.9961 52.6973 17.179 52.9246C17.3618 53.1519 17.5865 53.3243 17.8556 53.4497C18.1246 53.5725 18.4407 53.6352 18.8065 53.6352C19.0651 53.6352 19.2872 53.6221 19.47 53.5934C19.6529 53.5647 19.7835 53.5385 19.8645 53.515V51.1195H19.8619Z" fill="white"/>
<path d="M26.9676 53.5046V54.2831H23.0986V47.854H23.9973V53.5046H26.9676Z" fill="white"/>
<path d="M28.1641 51.0646C28.1641 50.5134 28.245 50.0301 28.4096 49.6069C28.5742 49.1837 28.7963 48.8362 29.0784 48.5541C29.3605 48.272 29.6871 48.0604 30.0607 47.9193C30.4342 47.7782 30.8313 47.7051 31.2519 47.7051C31.6673 47.7051 32.0565 47.7756 32.4249 47.9193C32.7932 48.0604 33.1171 48.2746 33.3941 48.5541C33.6736 48.8362 33.893 49.1863 34.0576 49.6069C34.2222 50.0275 34.3032 50.5134 34.3032 51.0646C34.3032 51.6158 34.2222 52.1017 34.0576 52.5223C33.893 52.9429 33.6736 53.293 33.3941 53.5751C33.1145 53.8573 32.7932 54.0689 32.4249 54.2099C32.0565 54.351 31.6647 54.4241 31.2519 54.4241C30.8313 54.4241 30.4342 54.3536 30.0607 54.2099C29.6871 54.0662 29.3579 53.8546 29.0784 53.5751C28.7963 53.293 28.5742 52.9429 28.4096 52.5223C28.245 52.1017 28.1641 51.6158 28.1641 51.0646ZM29.1097 51.0646C29.1097 51.4539 29.1594 51.8091 29.2586 52.1278C29.3579 52.4466 29.499 52.7156 29.6819 52.9403C29.8647 53.165 30.0868 53.3348 30.3506 53.4549C30.6145 53.5751 30.9097 53.6352 31.2362 53.6352C31.5628 53.6352 31.858 53.5751 32.1166 53.4549C32.3778 53.3348 32.5973 53.1623 32.7801 52.9403C32.963 52.7182 33.1041 52.4466 33.2034 52.1278C33.3026 51.8091 33.3523 51.4539 33.3523 51.0646C33.3523 50.6754 33.3026 50.3201 33.2034 50.0014C33.1041 49.6827 32.963 49.4136 32.7801 49.1889C32.5973 48.9642 32.3778 48.7944 32.1166 48.6743C31.858 48.5541 31.5628 48.494 31.2362 48.494C30.9071 48.494 30.6119 48.5541 30.3506 48.6743C30.0868 48.7944 29.8647 48.9669 29.6819 49.1889C29.499 49.411 29.3579 49.6827 29.2586 50.0014C29.1594 50.3201 29.1097 50.6754 29.1097 51.0646Z" fill="white"/>
<path d="M38.3054 54.3401C38.1748 54.3401 38.0337 54.3375 37.8822 54.3297C37.7307 54.3244 37.5792 54.314 37.4277 54.3009C37.2761 54.2879 37.1272 54.2722 36.9783 54.2539C36.8294 54.2356 36.6936 54.2095 36.5708 54.1808V47.945C36.6936 47.9137 36.8294 47.8901 36.9783 47.8719C37.1272 47.8536 37.2761 47.8379 37.4277 47.8248C37.5792 47.8118 37.7281 47.8039 37.877 47.7961C38.0259 47.7909 38.1644 47.7856 38.295 47.7856C38.6659 47.7856 39.0134 47.8144 39.3399 47.8692C39.6665 47.9241 39.946 48.0181 40.1837 48.1514C40.4215 48.2846 40.6095 48.4596 40.7454 48.6765C40.8812 48.8933 40.9492 49.1598 40.9492 49.4732C40.9492 49.8259 40.8656 50.1159 40.6984 50.3406C40.5312 50.5652 40.3091 50.735 40.0296 50.8474C40.4058 50.9597 40.7062 51.1347 40.9309 51.3751C41.1529 51.6154 41.2653 51.9576 41.2653 52.3965C41.2653 53.0392 41.0275 53.5224 40.5547 53.849C40.0818 54.1782 39.3321 54.3401 38.3054 54.3401ZM37.459 50.5626H38.4047C38.6267 50.5626 38.8384 50.5469 39.0369 50.5156C39.2354 50.4842 39.4052 50.4294 39.5515 50.3484C39.6978 50.2674 39.8128 50.1629 39.8938 50.0323C39.9774 49.9017 40.0191 49.7397 40.0191 49.5412C40.0191 49.3557 39.9747 49.1989 39.8885 49.0736C39.8023 48.9455 39.6822 48.8437 39.5306 48.7679C39.3791 48.6895 39.2015 48.6321 38.9977 48.5955C38.7939 48.5589 38.5771 48.5406 38.3472 48.5406C38.1173 48.5406 37.9397 48.5432 37.8091 48.5511C37.6785 48.5589 37.5609 48.5667 37.4564 48.5798V50.5626H37.459ZM37.459 51.2862V53.5512C37.5269 53.5564 37.6079 53.5642 37.6994 53.5695C37.7803 53.5747 37.8744 53.5799 37.9815 53.5825C38.0886 53.5851 38.214 53.5878 38.3577 53.5878C38.6241 53.5878 38.8749 53.5695 39.1127 53.5355C39.3504 53.5015 39.5594 53.4415 39.7396 53.3552C39.9199 53.269 40.0636 53.1489 40.1707 52.9947C40.2778 52.8406 40.3326 52.6447 40.3326 52.4096C40.3326 52.2006 40.2935 52.0203 40.2125 51.8766C40.1315 51.7304 40.0165 51.6154 39.865 51.5292C39.7135 51.443 39.5332 51.3803 39.3216 51.3437C39.11 51.3071 38.8775 51.2889 38.6163 51.2889H37.459V51.2862Z" fill="white"/>
<path d="M47.7571 54.2829C47.6526 54.0034 47.5533 53.7317 47.4593 53.4626C47.3678 53.1935 47.2712 52.9193 47.1719 52.6423H44.2591L43.6739 54.2855H42.7361C42.9843 53.6063 43.2141 52.9767 43.431 52.3968C43.6478 51.8194 43.8594 51.2682 44.0658 50.751C44.2722 50.2311 44.4785 49.7348 44.6823 49.2619C44.8861 48.7891 45.1003 48.3214 45.3223 47.8564H46.1479C46.3699 48.3214 46.5841 48.7891 46.7879 49.2619C46.9917 49.7348 47.198 50.2311 47.4044 50.751C47.6108 51.2708 47.8224 51.8194 48.0392 52.3968C48.2561 52.9741 48.4886 53.6037 48.7341 54.2855H47.7571V54.2829ZM46.9133 51.9004C46.7147 51.3623 46.5188 50.8424 46.3255 50.3382C46.1296 49.834 45.9284 49.3507 45.7168 48.8857C45.5 49.3507 45.2936 49.834 45.1003 50.3382C44.9044 50.8424 44.711 51.3623 44.5203 51.9004H46.9133Z" fill="white"/>
<path d="M54.4105 53.5046V54.2831H50.5415V47.854H51.4402V53.5046H54.4105Z" fill="white"/>
<path d="M59.3557 54.2831V47.854H63.2325V48.6247H60.2544V50.563H62.8981V51.3233H60.2544V54.2831H59.3557Z" fill="white"/>
<path d="M65.2651 47.854H66.1664V54.2831H65.2651V47.854Z" fill="white"/>
<path d="M73.0945 54.2828C72.9587 54.0529 72.8019 53.7969 72.6269 53.5121C72.4518 53.2274 72.2611 52.9322 72.0574 52.6265C71.8536 52.3209 71.642 52.01 71.4226 51.6939C71.2031 51.3778 70.9863 51.0748 70.7695 50.7796C70.5526 50.487 70.3437 50.2101 70.1399 49.9488C69.9361 49.6902 69.748 49.4603 69.573 49.2618V54.2802H68.6926V47.8511H69.4084C69.6984 48.1593 70.0093 48.5198 70.341 48.9326C70.6728 49.3454 70.9994 49.7686 71.3233 50.2048C71.6472 50.6411 71.9555 51.0695 72.2429 51.4901C72.5302 51.9107 72.7732 52.2843 72.9717 52.6135V47.8537H73.8521V54.2828H73.0945Z" fill="white"/>
<path d="M80.6653 54.2829C80.5608 54.0034 80.4615 53.7317 80.3675 53.4626C80.2734 53.1935 80.1794 52.9193 80.0801 52.6423H77.1673L76.5821 54.2855H75.6443C75.8925 53.6063 76.1224 52.9767 76.3392 52.3968C76.556 51.8168 76.7676 51.2682 76.974 50.751C77.1804 50.2311 77.3867 49.7348 77.5905 49.2619C77.7943 48.7891 78.0085 48.3214 78.2305 47.8564H79.0561C79.2781 48.3214 79.4923 48.7891 79.6961 49.2619C79.8999 49.7348 80.1062 50.2311 80.3126 50.751C80.519 51.2708 80.7306 51.8194 80.9474 52.3968C81.1643 52.9741 81.3968 53.6037 81.6423 54.2855H80.6653V54.2829ZM79.8215 51.9004C79.6229 51.3623 79.427 50.8424 79.2311 50.3382C79.0352 49.834 78.834 49.3507 78.6224 48.8857C78.4056 49.3507 78.1992 49.834 78.0059 50.3382C77.81 50.8424 77.6166 51.3623 77.4259 51.9004H79.8215Z" fill="white"/>
<path d="M87.8543 54.2828C87.7184 54.0529 87.5617 53.7969 87.3866 53.5121C87.2116 53.2274 87.0209 52.9322 86.8171 52.6265C86.6134 52.3209 86.4018 52.01 86.1823 51.6939C85.9629 51.3778 85.7461 51.0748 85.5292 50.7796C85.3124 50.487 85.1034 50.2101 84.8997 49.9488C84.6959 49.6902 84.5078 49.4603 84.3328 49.2618V54.2802H83.4524V47.8511H84.1682C84.4582 48.1593 84.769 48.5198 85.1008 48.9326C85.4326 49.3454 85.7591 49.7686 86.0831 50.2048C86.407 50.6411 86.7153 51.0695 87.0026 51.4901C87.29 51.9107 87.5329 52.2843 87.7315 52.6135V47.8537H88.6119V54.2828H87.8543Z" fill="white"/>
<path d="M93.8944 54.4241C93.4424 54.4241 93.0323 54.351 92.6613 54.2021C92.2903 54.0532 91.9716 53.8363 91.7052 53.5516C91.4387 53.2668 91.2323 52.9168 91.0887 52.4988C90.9424 52.0808 90.8718 51.6028 90.8718 51.0646C90.8718 50.5265 90.9528 50.0484 91.1174 49.6304C91.282 49.2124 91.5014 48.8624 91.7809 48.5776C92.0605 48.2929 92.3844 48.076 92.7554 47.9271C93.1263 47.7782 93.5234 47.7051 93.944 47.7051C94.2104 47.7051 94.4508 47.7234 94.6624 47.7599C94.8766 47.7965 95.0621 47.8409 95.2188 47.8906C95.3756 47.9402 95.5036 47.9898 95.6029 48.0395C95.7021 48.0891 95.77 48.1257 95.8066 48.1518L95.548 48.8937C95.4931 48.8571 95.4121 48.818 95.3077 48.7735C95.2032 48.7291 95.083 48.6873 94.9498 48.6429C94.8165 48.5985 94.6702 48.5646 94.5135 48.5358C94.3567 48.5071 94.1974 48.494 94.0354 48.494C93.6958 48.494 93.3902 48.5515 93.1159 48.669C92.8442 48.7866 92.6117 48.9564 92.421 49.1785C92.2303 49.4005 92.0814 49.6722 91.9795 49.9909C91.8776 50.3096 91.8253 50.6675 91.8253 51.062C91.8253 51.446 91.8698 51.7961 91.9586 52.1096C92.0474 52.4257 92.1832 52.6947 92.3609 52.922C92.5411 53.1493 92.7632 53.3217 93.0349 53.4471C93.304 53.5699 93.6174 53.6326 93.9753 53.6326C94.3907 53.6326 94.7329 53.5882 95.0046 53.502C95.2763 53.4158 95.4801 53.3374 95.6159 53.2695L95.8484 54.0114C95.804 54.0427 95.7282 54.0819 95.6159 54.1263C95.5036 54.1733 95.3651 54.2178 95.1979 54.2596C95.0307 54.304 94.8374 54.3405 94.6128 54.3719C94.3959 54.4085 94.1556 54.4241 93.8944 54.4241Z" fill="white"/>
<path d="M97.8103 54.2831V47.854H101.734V48.6247H98.709V50.5369H101.4V51.2893H98.709V53.515H101.964V54.2857H97.8103V54.2831Z" fill="white"/>
</svg>
