<svg width="90" height="40" viewBox="0 0 90 40" fill="none" xmlns="http://www.w3.org/2000/svg">
<path d="M14.4867 24.22C15.4586 24.2181 16.3872 24.118 17.2726 23.9179C18.1579 23.7177 18.9351 23.4249 19.6058 23.0432C20.2766 22.6614 20.7851 22.1833 21.1313 21.6088C21.4757 21.0362 21.5875 20.3672 21.4613 19.6036C21.2972 18.6011 20.7887 17.8005 19.9322 17.1963C19.0757 16.5941 17.9776 16.292 16.6378 16.2938C15.5217 16.2957 14.557 16.5218 13.7474 16.9758C12.9359 17.4298 12.285 18.0358 11.7945 18.7938C11.3041 19.5499 10.9741 20.4098 10.8028 21.3716C10.6333 22.3334 10.6315 23.3249 10.7974 24.3423C10.9975 25.5672 11.3798 26.568 11.946 27.3463C12.5122 28.1247 13.1956 28.6973 13.9962 29.0605C14.7968 29.4256 15.6677 29.6072 16.609 29.6054C17.406 29.6035 18.221 29.4719 19.0559 29.2088C19.8348 28.9623 20.5886 28.6102 21.3188 28.1469C21.4036 28.0932 21.4306 27.9764 21.3765 27.8893L20.4191 26.3289C20.3704 26.2492 20.2694 26.2251 20.1883 26.2677C19.6383 26.5643 19.0992 26.8015 18.5708 26.9775C17.9956 27.1703 17.4457 27.2666 16.9191 27.2666C16.1528 27.2666 15.5127 27.0331 14.9988 26.5643C14.4831 26.0954 14.1387 25.3282 13.9656 24.2626C13.9619 24.2422 13.9619 24.22 13.9601 24.1996C13.9764 24.1996 13.989 24.2033 14.0052 24.2033C14.1513 24.2163 14.3118 24.2218 14.4867 24.22ZM13.9097 22.1629C13.9674 21.5551 14.0864 20.988 14.2829 20.4746C14.4957 19.9168 14.7932 19.4665 15.1755 19.1237C15.5577 18.7827 16.0284 18.6103 16.5855 18.6085C17.0796 18.6085 17.4799 18.7326 17.7828 18.9773C18.0858 19.2237 18.2697 19.5462 18.3346 19.9428C18.3941 20.3097 18.3274 20.6359 18.1363 20.9213C17.9433 21.2085 17.6584 21.442 17.2816 21.6273C16.9047 21.8108 16.4774 21.9498 15.9977 22.0462C15.5181 22.1425 15.024 22.1907 14.5137 22.1926C14.3226 22.1926 14.1423 22.1833 13.971 22.1685C13.9511 22.1666 13.9313 22.1648 13.9097 22.1629Z" fill="white"/>
<path d="M35.0948 16.7201L30.8339 29.2311C30.8087 29.3033 30.742 29.3534 30.668 29.3534L28.7711 29.3571C28.0408 29.3589 27.3845 28.8993 27.1176 28.1988L23.4951 18.6493L22.4763 18.3935C22.4132 18.3769 22.3681 18.3194 22.3681 18.2527L22.3555 16.8443C22.3555 16.7461 22.4294 16.6664 22.5232 16.6608L25.2784 16.5181C25.7923 16.4922 26.2575 16.8239 26.4144 17.3261L29.1786 26.2066L31.9663 16.7053C31.988 16.6312 32.0529 16.5793 32.1286 16.5756L34.9217 16.4736C35.0461 16.4736 35.1363 16.5978 35.0948 16.7201Z" fill="white"/>
<path d="M39.0293 24.1866C40.0012 24.1848 40.9298 24.0847 41.8152 23.8846C42.7005 23.6844 43.4777 23.3935 44.1485 23.0099C44.8193 22.6281 45.3277 22.15 45.6739 21.5755C46.0184 21.0028 46.1301 20.3338 46.0057 19.5703C45.8416 18.5677 45.3332 17.7672 44.4767 17.163C43.6202 16.5589 42.522 16.2587 41.1823 16.2605C40.0661 16.2624 39.1014 16.4885 38.2918 16.9443C37.4804 17.3984 36.8294 18.0044 36.339 18.7605C35.8485 19.5166 35.5185 20.3765 35.3472 21.3383C35.1777 22.3001 35.1759 23.2915 35.3418 24.3089C35.542 25.5339 35.9243 26.5346 36.4904 27.3148C37.0566 28.0932 37.74 28.6658 38.5406 29.029C39.3412 29.3941 40.2122 29.5757 41.1534 29.5739C41.9504 29.5739 42.7654 29.4404 43.6003 29.1773C44.3793 28.9308 45.1348 28.5787 45.8633 28.1154C45.948 28.0617 45.9751 27.9449 45.921 27.8578L44.9635 26.2974C44.9148 26.2177 44.8138 26.1936 44.7327 26.2363C44.1827 26.5328 43.6436 26.77 43.1153 26.946C42.5401 27.1388 41.9901 27.2333 41.4636 27.2351C40.6972 27.2351 40.0571 27.0016 39.5432 26.5328C39.0275 26.0639 38.6831 25.2986 38.51 24.233C38.5064 24.2126 38.5064 24.1903 38.5046 24.1681C38.5208 24.17 38.5334 24.1718 38.5497 24.1718C38.6939 24.1829 38.8544 24.1866 39.0293 24.1866ZM38.4523 22.1296C38.51 21.5217 38.629 20.9547 38.8255 20.4413C39.0383 19.8835 39.3358 19.4332 39.7181 19.0922C40.1004 18.7512 40.571 18.577 41.1282 18.577C41.6222 18.577 42.0225 18.6993 42.3255 18.9458C42.6284 19.1923 42.8123 19.5147 42.8772 19.9113C42.9367 20.2782 42.87 20.6025 42.6789 20.8898C42.486 21.177 42.2011 21.4124 41.826 21.5959C41.4491 21.7793 41.02 21.9183 40.5422 22.0147C40.0625 22.1111 39.5684 22.1592 39.0581 22.1611C38.867 22.1611 38.6867 22.1537 38.5154 22.137C38.4938 22.1333 38.4739 22.1314 38.4523 22.1296Z" fill="white"/>
<path d="M59.4014 29.2866H57.8002C57.0194 29.2866 56.3865 28.6361 56.3847 27.8337L56.3739 21.3697C56.3883 20.8601 56.3378 20.4098 56.226 20.0243C56.1124 19.6314 55.9501 19.3331 55.7301 19.1144C55.5101 18.9031 55.2198 18.7938 54.852 18.7938C54.4986 18.7938 54.1578 18.8957 53.826 19.107C53.4942 19.3108 53.1967 19.624 52.9262 20.0391C52.6575 20.4543 52.4448 20.9769 52.2897 21.6255C52.1274 22.2722 52.0553 23.0228 52.0697 23.8808L52.0841 29.0902C52.0841 29.1902 52.0048 29.2718 51.9074 29.2718L50.2972 29.2755C49.5164 29.2773 48.8817 28.6287 48.8781 27.8263L48.8421 18.8234L47.2372 18.3379C47.1777 18.3194 47.1363 18.2638 47.1363 18.1989L47.1309 16.7886C47.1309 16.6904 47.2066 16.6089 47.3022 16.607L50.6993 16.481C51.3232 16.4588 51.8299 16.9888 51.7974 17.63L51.7235 19.0588C51.7596 18.9865 51.7866 18.9143 51.8227 18.8475C52.333 17.9599 52.9479 17.2983 53.6637 16.8757C54.385 16.4532 55.108 16.2419 55.8221 16.2419C56.5722 16.2419 57.2304 16.4236 57.7893 16.7868C58.3483 17.15 58.7883 17.6596 59.1056 18.3138C59.4176 18.9606 59.5655 19.7389 59.5582 20.6488L59.5781 29.1031C59.5799 29.2051 59.5005 29.2866 59.4014 29.2866Z" fill="white"/>
<path d="M69.2051 26.7552C69.1637 26.67 69.0627 26.6347 68.9761 26.6737C68.7201 26.7849 68.4767 26.8775 68.2423 26.9516C67.961 27.0387 67.7085 27.0832 67.4867 27.0832C67.1513 27.0832 66.8827 26.9924 66.6771 26.8108C66.4716 26.6273 66.3363 26.329 66.2678 25.9157C66.2498 25.8045 66.2353 25.6989 66.2281 25.5951C66.2191 25.4913 66.2173 25.4079 66.2227 25.3449L66.1975 18.7123L69.234 18.7086C69.3115 18.7086 69.3746 18.6438 69.3746 18.5641V16.659C69.3746 16.5793 69.3115 16.5126 69.2322 16.5126L66.1921 16.5163L66.1722 13.3677C66.1722 13.2547 66.0731 13.1694 65.9649 13.1898L63.1339 13.7031C63.0492 13.718 62.9878 13.7939 62.9878 13.8829L62.9896 16.5144L61.255 16.9258C61.1901 16.9407 61.145 17 61.145 17.0685V18.5733C61.145 18.653 61.2081 18.7197 61.2875 18.7179L62.9915 18.716L63.0203 25.5154C63.0347 25.7063 63.0473 25.8786 63.0564 26.0288C63.0654 26.1807 63.0834 26.3364 63.1087 26.4939C63.2818 27.5595 63.6965 28.336 64.3492 28.8197C65.002 29.3034 65.7918 29.5461 66.7168 29.5443C67.2271 29.5443 67.777 29.4701 68.3685 29.3274C68.9022 29.1977 69.4359 29.0087 69.9697 28.7622C70.0616 28.7196 70.1031 28.6028 70.058 28.5083L69.2051 26.7552Z" fill="white"/>
<path d="M8.6696 16.3142C7.90325 16.3161 7.16035 16.5477 6.43909 17.0092C5.71602 17.4725 5.11376 18.1489 4.62871 19.0403C4.61609 19.0644 4.60708 19.0922 4.59265 19.1181L4.67199 17.6244C4.70264 17.0277 4.22841 16.531 3.64779 16.5514L0.1713 16.6793C0.0757329 16.683 0 16.7645 0 16.8628L0.0108185 18.273C0.0108185 18.336 0.0522915 18.3935 0.111796 18.412L1.71481 18.905L1.75267 29.1754C1.75267 29.2755 1.83201 29.357 1.92938 29.357L4.78018 29.3533C4.87755 29.3533 4.95689 29.2718 4.95689 29.1717L4.93886 23.9605C4.93705 23.1655 5.00738 22.4501 5.15163 21.8126C5.29408 21.1751 5.49964 20.6266 5.76831 20.1652C6.03518 19.7037 6.34532 19.3572 6.69874 19.1255C6.94938 18.9624 7.21625 18.8679 7.50115 18.8364L7.79146 20.6155C7.80228 20.6859 7.86178 20.7378 7.9321 20.7378L9.60003 20.7359C9.6974 20.7359 9.77494 20.6563 9.77674 20.5562L9.82542 16.6496C9.82723 16.5681 9.77674 16.4921 9.701 16.468C9.39086 16.3624 9.04826 16.3142 8.6696 16.3142Z" fill="white"/>
<path d="M88.9086 9.20721L85.0913 16.0029C84.9164 16.3142 84.5936 16.5051 84.2456 16.5051H82.2369C81.7248 16.5051 81.3082 16.0789 81.3082 15.5507V12.4929L83.7173 13.9217C83.9913 14.0848 84.3429 13.9885 84.5016 13.7049L84.81 13.1564C84.9686 12.8747 84.8749 12.5133 84.599 12.3502L80.7907 10.0893C80.5653 9.9559 80.2876 9.9559 80.0622 10.0893L76.254 12.3502C75.9799 12.5133 75.8843 12.8747 76.043 13.1564L76.3513 13.7049C76.51 13.9866 76.8616 14.0848 77.1357 13.9217L79.5447 12.4929V15.5507C79.5447 16.077 79.13 16.5051 78.6161 16.5051H76.6092C76.2612 16.5051 75.9384 16.3142 75.7635 16.0029L71.9444 9.20721C71.7695 8.89587 71.7695 8.51412 71.9444 8.20278L72.9488 6.4163C73.2048 5.96041 73.7728 5.80289 74.2164 6.06789L76.7931 7.59678L74.3841 9.0256C74.11 9.18868 74.0144 9.55005 74.1731 9.83174L74.4815 10.3803C74.6401 10.662 74.9918 10.7602 75.2658 10.5971L79.0741 8.33621C79.2995 8.20278 79.4384 7.95445 79.4384 7.68759V3.16764C79.4384 2.84148 79.1805 2.57832 78.8649 2.57832H78.2501C77.9327 2.57832 77.6767 2.84333 77.6767 3.16764V6.02712L75.0999 4.49824C74.6564 4.23508 74.5031 3.65132 74.761 3.19544L75.7653 1.40895C75.9402 1.09762 76.263 0.906738 76.611 0.906738H84.2474C84.5972 0.906738 84.9182 1.09762 85.0931 1.40895L86.0974 3.19544C86.3535 3.65132 86.202 4.23508 85.7584 4.49824L83.1817 6.02712V3.16764C83.1817 2.84148 82.9239 2.57832 82.6083 2.57832H81.9934C81.6761 2.57832 81.4182 2.84333 81.42 3.16949V7.68944C81.42 7.9563 81.5589 8.20463 81.7843 8.33806L85.5925 10.599C85.8666 10.762 86.2182 10.6657 86.3769 10.3821L86.6853 9.83359C86.8439 9.55191 86.7502 9.19053 86.4743 9.02745L84.0653 7.59864L86.642 6.06975C87.0856 5.80659 87.6536 5.96226 87.9096 6.41815L88.914 8.20463C89.0835 8.51412 89.0835 8.89773 88.9086 9.20721Z" fill="white"/>
<path d="M13.7094 37.1701H14.3315V39.3031C14.281 39.3198 14.207 39.3402 14.1097 39.3624C14.0141 39.3846 13.9023 39.4069 13.7761 39.4291C13.6499 39.4513 13.5128 39.4699 13.3632 39.4847C13.2135 39.4995 13.062 39.5069 12.9088 39.5069C12.5968 39.5069 12.3137 39.4551 12.0577 39.3494C11.8016 39.2438 11.5816 39.09 11.3977 38.888C11.2138 38.686 11.0713 38.4376 10.9722 38.1448C10.8712 37.8502 10.8225 37.5129 10.8225 37.1311C10.8225 36.7494 10.8784 36.4102 10.992 36.1137C11.1056 35.8172 11.2571 35.5689 11.45 35.3669C11.6429 35.1649 11.8665 35.0111 12.1262 34.9054C12.384 34.7998 12.6599 34.7479 12.9557 34.7479C13.1558 34.7479 13.3343 34.7609 13.4912 34.7868C13.6463 34.8128 13.7797 34.8443 13.8915 34.8795C14.0033 34.9147 14.0934 34.9499 14.1638 34.9851C14.2341 35.0203 14.2828 35.0463 14.308 35.0648L14.1097 35.5985C13.9853 35.5151 13.8212 35.4466 13.6174 35.391C13.4119 35.3354 13.2027 35.3094 12.9899 35.3094C12.7645 35.3094 12.5572 35.3502 12.3714 35.4336C12.1857 35.517 12.027 35.6375 11.8972 35.795C11.7674 35.9525 11.6646 36.1452 11.5925 36.3713C11.5203 36.5974 11.4843 36.8513 11.4843 37.1311C11.4843 37.4036 11.5149 37.6519 11.5762 37.8743C11.6375 38.0985 11.7313 38.2894 11.8575 38.4506C11.9837 38.6118 12.1388 38.7342 12.3245 38.8231C12.5103 38.9102 12.7285 38.9547 12.9809 38.9547C13.1594 38.9547 13.3127 38.9454 13.4389 38.925C13.5651 38.9047 13.6553 38.8861 13.7112 38.8694V37.1701H13.7094Z" fill="white"/>
<path d="M18.6138 38.862V39.4142H15.9434V34.8535H16.5636V38.862H18.6138Z" fill="white"/>
<path d="M19.4399 37.1311C19.4399 36.7401 19.4958 36.3973 19.6094 36.0971C19.723 35.7968 19.8763 35.5504 20.071 35.3502C20.2658 35.1501 20.4912 35 20.749 34.8999C21.0069 34.7998 21.281 34.7479 21.5713 34.7479C21.858 34.7479 22.1266 34.798 22.3809 34.8999C22.6351 35 22.8587 35.1519 23.0499 35.3502C23.2428 35.5504 23.3943 35.7987 23.5079 36.0971C23.6215 36.3954 23.6774 36.7401 23.6774 37.1311C23.6774 37.5222 23.6215 37.8669 23.5079 38.1652C23.3943 38.4636 23.2428 38.7119 23.0499 38.9121C22.8569 39.1122 22.6351 39.2623 22.3809 39.3624C22.1266 39.4625 21.8562 39.5144 21.5713 39.5144C21.281 39.5144 21.0069 39.4643 20.749 39.3624C20.4912 39.2605 20.264 39.1104 20.071 38.9121C19.8763 38.7119 19.723 38.4636 19.6094 38.1652C19.4958 37.8669 19.4399 37.5222 19.4399 37.1311ZM20.0927 37.1311C20.0927 37.4073 20.1269 37.6593 20.1955 37.8854C20.264 38.1115 20.3614 38.3024 20.4876 38.4617C20.6138 38.6211 20.7671 38.7416 20.9492 38.8268C21.1313 38.9121 21.3351 38.9547 21.5605 38.9547C21.7859 38.9547 21.9896 38.9121 22.1681 38.8268C22.3484 38.7416 22.4999 38.6193 22.6261 38.4617C22.7523 38.3042 22.8497 38.1115 22.9182 37.8854C22.9868 37.6593 23.021 37.4073 23.021 37.1311C23.021 36.855 22.9868 36.603 22.9182 36.3769C22.8497 36.1508 22.7523 35.9599 22.6261 35.8005C22.4999 35.6412 22.3484 35.5207 22.1681 35.4355C21.9896 35.3502 21.7859 35.3076 21.5605 35.3076C21.3333 35.3076 21.1295 35.3502 20.9492 35.4355C20.7671 35.5207 20.6138 35.643 20.4876 35.8005C20.3614 35.9581 20.264 36.1508 20.1955 36.3769C20.1269 36.603 20.0927 36.855 20.0927 37.1311Z" fill="white"/>
<path d="M26.4397 39.4551C26.3496 39.4551 26.2522 39.4532 26.1476 39.4477C26.043 39.444 25.9385 39.4366 25.8339 39.4273C25.7293 39.418 25.6265 39.4069 25.5237 39.3939C25.4209 39.381 25.3272 39.3624 25.2424 39.342V34.9185C25.3272 34.8962 25.4209 34.8795 25.5237 34.8666C25.6265 34.8536 25.7293 34.8425 25.8339 34.8332C25.9385 34.824 26.0412 34.8184 26.144 34.8128C26.2468 34.8091 26.3424 34.8054 26.4325 34.8054C26.6886 34.8054 26.9284 34.8258 27.1538 34.8647C27.3792 34.9036 27.5721 34.9704 27.7362 35.0649C27.9003 35.1594 28.0301 35.2835 28.1239 35.4374C28.2176 35.5912 28.2645 35.7802 28.2645 36.0026C28.2645 36.2528 28.2068 36.4585 28.0914 36.6178C27.976 36.7772 27.8228 36.8977 27.6298 36.9774C27.8895 37.0571 28.0968 37.1812 28.2519 37.3517C28.4052 37.5222 28.4827 37.765 28.4827 38.0763C28.4827 38.5322 28.3186 38.875 27.9923 39.1067C27.6659 39.3402 27.1484 39.4551 26.4397 39.4551ZM25.8555 36.7754H26.5083C26.6615 36.7754 26.8076 36.7642 26.9446 36.742C27.0817 36.7198 27.1989 36.6809 27.2998 36.6234C27.4008 36.566 27.4802 36.4918 27.5361 36.3992C27.5938 36.3065 27.6226 36.1916 27.6226 36.0508C27.6226 35.9192 27.5919 35.808 27.5324 35.719C27.4729 35.6282 27.39 35.556 27.2854 35.5022C27.1808 35.4466 27.0582 35.4059 26.9176 35.3799C26.7769 35.354 26.6273 35.341 26.4686 35.341C26.3099 35.341 26.1873 35.3428 26.0971 35.3484C26.007 35.354 25.9258 35.3595 25.8537 35.3688V36.7754H25.8555ZM25.8555 37.2887V38.8954C25.9024 38.8991 25.9583 38.9047 26.0214 38.9084C26.0773 38.9121 26.1422 38.9158 26.2161 38.9177C26.2901 38.9195 26.3766 38.9214 26.4758 38.9214C26.6597 38.9214 26.8328 38.9084 26.9969 38.8843C27.161 38.8602 27.3052 38.8176 27.4297 38.7564C27.5541 38.6953 27.6533 38.61 27.7272 38.5007C27.8011 38.3914 27.839 38.2524 27.839 38.0856C27.839 37.9373 27.8119 37.8095 27.756 37.7075C27.7001 37.6037 27.6208 37.5222 27.5162 37.461C27.4116 37.3999 27.2872 37.3554 27.1412 37.3295C26.9951 37.3035 26.8346 37.2906 26.6543 37.2906H25.8555V37.2887Z" fill="white"/>
<path d="M32.9637 39.4143C32.8916 39.216 32.8231 39.0233 32.7582 38.8324C32.6951 38.6416 32.6283 38.447 32.5598 38.2505H30.5493L30.1454 39.4162H29.498C29.6693 38.9344 29.828 38.4877 29.9777 38.0763C30.1273 37.6668 30.2734 37.2757 30.4159 36.9088C30.5583 36.54 30.7008 36.1879 30.8414 35.8525C30.982 35.5171 31.1299 35.1853 31.2832 34.8555H31.853C32.0062 35.1853 32.1541 35.5171 32.2948 35.8525C32.4354 36.1879 32.5778 36.54 32.7203 36.9088C32.8627 37.2776 33.0088 37.6668 33.1585 38.0763C33.3081 38.4859 33.4686 38.9325 33.6381 39.4162H32.9637V39.4143ZM32.3813 37.7242C32.2443 37.3425 32.109 36.9737 31.9756 36.616C31.8404 36.2583 31.7015 35.9155 31.5555 35.5856C31.4058 35.9155 31.2633 36.2583 31.1299 36.616C30.9947 36.9737 30.8612 37.3425 30.7296 37.7242H32.3813Z" fill="white"/>
<path d="M37.5562 38.862V39.4142H34.8857V34.8535H35.506V38.862H37.5562Z" fill="white"/>
<path d="M40.9695 39.4142V34.8535H43.6454V35.4002H41.5898V36.7753H43.4146V37.3146H41.5898V39.4142H40.9695Z" fill="white"/>
<path d="M45.0483 34.8535H45.6704V39.4142H45.0483V34.8535Z" fill="white"/>
<path d="M50.4524 39.4143C50.3586 39.2512 50.2504 39.0696 50.1296 38.8676C50.0088 38.6656 49.8772 38.4562 49.7365 38.2393C49.5959 38.0225 49.4498 37.802 49.2984 37.5777C49.1469 37.3535 48.9972 37.1385 48.8476 36.9291C48.6979 36.7216 48.5537 36.5251 48.413 36.3398C48.2724 36.1563 48.1425 35.9933 48.0217 35.8524V39.4124H47.4141V34.8517H47.9081C48.1083 35.0704 48.3229 35.3261 48.5519 35.6189C48.7809 35.9117 49.0063 36.2119 49.2298 36.5214C49.4534 36.8309 49.6662 37.1348 49.8646 37.4332C50.0629 37.7316 50.2306 37.9966 50.3676 38.2301V34.8535H50.9753V39.4143H50.4524Z" fill="white"/>
<path d="M55.6781 39.4143C55.606 39.216 55.5374 39.0233 55.4725 38.8324C55.4076 38.6416 55.3427 38.447 55.2742 38.2505H53.2636L52.8597 39.4162H52.2124C52.3837 38.9344 52.5424 38.4877 52.692 38.0763C52.8417 37.6649 52.9878 37.2757 53.1302 36.9088C53.2727 36.54 53.4151 36.1879 53.5558 35.8525C53.6964 35.5171 53.8443 35.1853 53.9975 34.8555H54.5673C54.7206 35.1853 54.8685 35.5171 55.0091 35.8525C55.1498 36.1879 55.2922 36.54 55.4347 36.9088C55.5771 37.2776 55.7232 37.6668 55.8728 38.0763C56.0225 38.4859 56.183 38.9325 56.3525 39.4162H55.6781V39.4143ZM55.0957 37.7242C54.9586 37.3425 54.8234 36.9737 54.6881 36.616C54.5529 36.2583 54.4141 35.9155 54.268 35.5856C54.1183 35.9155 53.9759 36.2583 53.8425 36.616C53.7072 36.9737 53.5738 37.3425 53.4422 37.7242H55.0957Z" fill="white"/>
<path d="M60.6401 39.4143C60.5464 39.2512 60.4382 39.0696 60.3174 38.8676C60.1966 38.6656 60.0649 38.4562 59.9243 38.2393C59.7836 38.0225 59.6376 37.802 59.4861 37.5777C59.3346 37.3535 59.185 37.1385 59.0353 36.9291C58.8857 36.7216 58.7414 36.5251 58.6008 36.3398C58.4601 36.1563 58.3303 35.9933 58.2095 35.8524V39.4124H57.6018V34.8517H58.0959C58.296 35.0704 58.5106 35.3261 58.7396 35.6189C58.9686 35.9117 59.194 36.2119 59.4176 36.5214C59.6412 36.8309 59.854 37.1348 60.0523 37.4332C60.2507 37.7316 60.4183 37.9966 60.5554 38.2301V34.8535H61.1631V39.4143H60.6401Z" fill="white"/>
<path d="M64.8091 39.5144C64.4972 39.5144 64.2141 39.4625 63.9581 39.3568C63.702 39.2512 63.482 39.0974 63.2981 38.8954C63.1142 38.6934 62.9717 38.4451 62.8726 38.1485C62.7716 37.852 62.7229 37.5129 62.7229 37.1311C62.7229 36.7494 62.7788 36.4102 62.8924 36.1137C63.006 35.8172 63.1575 35.5689 63.3504 35.3669C63.5433 35.1649 63.7669 35.0111 64.023 34.9054C64.279 34.7998 64.5531 34.7479 64.8434 34.7479C65.0273 34.7479 65.1932 34.7609 65.3393 34.7868C65.4871 34.8128 65.6152 34.8443 65.7234 34.8795C65.8315 34.9147 65.9199 34.9499 65.9884 34.9851C66.0569 35.0203 66.1038 35.0463 66.1291 35.0648L65.9506 35.5911C65.9127 35.5652 65.8568 35.5374 65.7847 35.5059C65.7125 35.4744 65.6296 35.4447 65.5376 35.4132C65.4457 35.3817 65.3447 35.3576 65.2365 35.3372C65.1283 35.3169 65.0183 35.3076 64.9065 35.3076C64.6721 35.3076 64.4611 35.3484 64.2718 35.4318C64.0843 35.5151 63.9238 35.6356 63.7922 35.7931C63.6605 35.9506 63.5578 36.1434 63.4874 36.3695C63.4171 36.5956 63.3811 36.8495 63.3811 37.1293C63.3811 37.4017 63.4117 37.65 63.473 37.8724C63.5343 38.0967 63.6281 38.2875 63.7507 38.4488C63.8751 38.61 64.0284 38.7323 64.2159 38.8213C64.4016 38.9084 64.618 38.9528 64.865 38.9528C65.1517 38.9528 65.388 38.9213 65.5755 38.8602C65.763 38.799 65.9037 38.7434 65.9974 38.6952L66.1579 39.2215C66.1273 39.2438 66.075 39.2716 65.9974 39.3031C65.9199 39.3364 65.8243 39.3679 65.7089 39.3976C65.5935 39.4291 65.4601 39.455 65.305 39.4773C65.1554 39.5032 64.9895 39.5144 64.8091 39.5144Z" fill="white"/>
<path d="M67.5122 39.4142V34.8535H70.2205V35.4002H68.1325V36.7567H69.9897V37.2905H68.1325V38.8694H70.3792V39.4161H67.5122V39.4142Z" fill="white"/>
</svg>
