<svg width="90" height="38" viewBox="0 0 90 38" fill="none" xmlns="http://www.w3.org/2000/svg">
<path d="M14.4862 23.0261C15.4581 23.0243 16.3867 22.9269 17.2721 22.7322C18.1574 22.5374 18.9346 22.2525 19.6054 21.8811C20.2761 21.5096 20.7846 21.0444 21.1308 20.4854C21.4752 19.9283 21.587 19.2773 21.4608 18.5344C21.2967 17.5589 20.7882 16.7799 19.9317 16.1921C19.0752 15.6061 17.9771 15.3122 16.6373 15.314C15.5212 15.3158 14.5565 15.5358 13.7469 15.9775C12.9355 16.4193 12.2845 17.0089 11.7941 17.7464C11.3036 18.4821 10.9736 19.3188 10.8023 20.2546C10.6328 21.1905 10.631 22.1552 10.7969 23.1451C10.9971 24.337 11.3793 25.3107 11.9455 26.068C12.5117 26.8254 13.1951 27.3825 13.9957 27.736C14.7963 28.0912 15.6672 28.2679 16.6085 28.2661C17.4055 28.2643 18.2205 28.1363 19.0554 27.8802C19.8344 27.6404 20.5881 27.2978 21.3184 26.847C21.4031 26.7947 21.4302 26.6811 21.3761 26.5964L20.4186 25.0781C20.3699 25.0006 20.2689 24.9771 20.1878 25.0186C19.6378 25.3071 19.0987 25.5379 18.5703 25.7092C17.9951 25.8967 17.4452 25.9905 16.9186 25.9905C16.1523 25.9905 15.5122 25.7633 14.9983 25.3071C14.4826 24.8509 14.1382 24.1044 13.9651 23.0676C13.9615 23.0477 13.9615 23.0261 13.9597 23.0063C13.9759 23.0063 13.9885 23.0099 14.0047 23.0099C14.1508 23.0225 14.3113 23.0279 14.4862 23.0261ZM13.9092 21.0246C13.9669 20.4331 14.0859 19.8814 14.2824 19.3819C14.4952 18.8392 14.7927 18.401 15.175 18.0674C15.5573 17.7356 16.0279 17.5679 16.5851 17.5661C17.0791 17.5661 17.4794 17.6869 17.7824 17.925C18.0853 18.1648 18.2692 18.4785 18.3341 18.8644C18.3936 19.2214 18.3269 19.5388 18.1358 19.8165C17.9428 20.096 17.6579 20.3232 17.2811 20.5035C16.9042 20.682 16.4769 20.8172 15.9972 20.911C15.5176 21.0048 15.0235 21.0516 14.5132 21.0534C14.3221 21.0534 14.1418 21.0444 13.9705 21.03C13.9506 21.0282 13.9308 21.0264 13.9092 21.0246Z" fill="#0B132B"/>
<path d="M35.0948 15.7286L30.8339 27.9017C30.8087 27.9721 30.742 28.0207 30.668 28.0207L28.7711 28.0243C28.0408 28.0262 27.3845 27.579 27.1176 26.8974L23.4951 17.6057L22.4763 17.3568C22.4132 17.3406 22.3681 17.2847 22.3681 17.2198L22.3555 15.8494C22.3555 15.7538 22.4294 15.6763 22.5232 15.6709L25.2784 15.532C25.7923 15.5068 26.2575 15.8296 26.4144 16.3182L29.1786 24.959L31.9663 15.7142C31.988 15.642 32.0529 15.5916 32.1286 15.5879L34.9217 15.4888C35.0461 15.4888 35.1363 15.6096 35.0948 15.7286Z" fill="#0B132B"/>
<path d="M39.0293 22.9934C40.0012 22.9916 40.9298 22.8942 41.8152 22.6995C42.7005 22.5047 43.4777 22.2216 44.1485 21.8484C44.8192 21.4769 45.3277 21.0117 45.6739 20.4527C46.0183 19.8955 46.1301 19.2446 46.0057 18.5017C45.8416 17.5262 45.3331 16.7472 44.4766 16.1594C43.6201 15.5716 42.522 15.2795 41.1823 15.2813C40.0661 15.2831 39.1014 15.503 38.2918 15.9466C37.4804 16.3884 36.8294 16.978 36.339 17.7137C35.8485 18.4494 35.5185 19.2861 35.3472 20.2219C35.1777 21.1578 35.1759 22.1225 35.3418 23.1124C35.542 24.3043 35.9243 25.278 36.4904 26.0371C37.0566 26.7944 37.74 27.3516 38.5406 27.705C39.3412 28.0603 40.2122 28.237 41.1534 28.2352C41.9504 28.2352 42.7654 28.1053 43.6003 27.8493C44.3793 27.6095 45.1348 27.2669 45.8633 26.8161C45.948 26.7638 45.9751 26.6502 45.921 26.5654L44.9635 25.0472C44.9148 24.9696 44.8138 24.9462 44.7327 24.9877C44.1827 25.2762 43.6436 25.507 43.1153 25.6783C42.54 25.8658 41.9901 25.9578 41.4636 25.9596C40.6972 25.9596 40.0571 25.7324 39.5432 25.2762C39.0275 24.82 38.6831 24.0753 38.51 23.0385C38.5064 23.0186 38.5064 22.997 38.5046 22.9753C38.5208 22.9771 38.5334 22.979 38.5497 22.979C38.6939 22.9898 38.8544 22.9934 39.0293 22.9934ZM38.4523 20.9919C38.51 20.4004 38.629 19.8487 38.8255 19.3492C39.0383 18.8064 39.3358 18.3683 39.7181 18.0365C40.1004 17.7047 40.571 17.5352 41.1282 17.5352C41.6222 17.5352 42.0225 17.6542 42.3255 17.894C42.6284 18.1339 42.8123 18.4476 42.8772 18.8335C42.9367 19.1905 42.87 19.5061 42.6789 19.7856C42.486 20.065 42.2011 20.294 41.826 20.4726C41.4491 20.6511 41.02 20.7863 40.5421 20.8801C40.0625 20.9738 39.5684 21.0207 39.0581 21.0225C38.867 21.0225 38.6867 21.0153 38.5154 20.9991C38.4938 20.9955 38.4739 20.9937 38.4523 20.9919Z" fill="#0B132B"/>
<path d="M59.4014 27.9556H57.8002C57.0194 27.9556 56.3865 27.3227 56.3847 26.542L56.3739 20.2525C56.3883 19.7567 56.3378 19.3185 56.226 18.9434C56.1124 18.5612 55.9501 18.2709 55.7301 18.0581C55.5101 17.8525 55.2198 17.7461 54.852 17.7461C54.4986 17.7461 54.1578 17.8453 53.826 18.0509C53.4942 18.2492 53.1967 18.554 52.9262 18.9579C52.6575 19.3618 52.4448 19.8703 52.2897 20.5014C52.1274 21.1307 52.0553 21.861 52.0697 22.6958L52.0841 27.7645C52.0841 27.8619 52.0048 27.9412 51.9074 27.9412L50.2972 27.9448C49.5164 27.9466 48.8817 27.3155 48.8781 26.5347L48.8421 17.775L47.2372 17.3026C47.1777 17.2845 47.1363 17.2304 47.1363 17.1673L47.1309 15.7951C47.1309 15.6995 47.2066 15.6202 47.3022 15.6184L50.6993 15.4958C51.3232 15.4742 51.8299 15.9899 51.7974 16.6138L51.7235 18.004C51.7596 17.9337 51.7866 17.8633 51.8227 17.7984C52.333 16.9347 52.9479 16.291 53.6637 15.8799C54.385 15.4687 55.108 15.2632 55.8221 15.2632C56.5722 15.2632 57.2304 15.4399 57.7893 15.7933C58.3483 16.1467 58.7883 16.6426 59.1056 17.2791C59.4176 17.9084 59.5655 18.6657 59.5582 19.5511L59.5781 27.7771C59.5799 27.8763 59.5005 27.9556 59.4014 27.9556Z" fill="#0B132B"/>
<path d="M69.2047 25.4926C69.1632 25.4097 69.0622 25.3754 68.9757 25.4133C68.7196 25.5215 68.4762 25.6116 68.2418 25.6837C67.9605 25.7685 67.708 25.8118 67.4862 25.8118C67.1509 25.8118 66.8822 25.7234 66.6766 25.5467C66.4711 25.3682 66.3358 25.0779 66.2673 24.6758C66.2493 24.5676 66.2348 24.4648 66.2276 24.3638C66.2186 24.2629 66.2168 24.1817 66.2222 24.1204L66.197 17.6669L69.2335 17.6633C69.311 17.6633 69.3742 17.6002 69.3742 17.5226V15.669C69.3742 15.5915 69.311 15.5265 69.2317 15.5265L66.1916 15.5301L66.1717 12.4666C66.1717 12.3566 66.0726 12.2736 65.9644 12.2935L63.1334 12.7929C63.0487 12.8074 62.9874 12.8813 62.9874 12.9679L62.9892 15.5283L61.2545 15.9286C61.1896 15.9431 61.1445 16.0008 61.1445 16.0675V17.5317C61.1445 17.6092 61.2076 17.6741 61.287 17.6723L62.991 17.6705L63.0198 24.2863C63.0342 24.472 63.0469 24.6397 63.0559 24.7858C63.0649 24.9336 63.0829 25.0851 63.1082 25.2384C63.2813 26.2752 63.696 27.0307 64.3487 27.5013C65.0015 27.972 65.7913 28.2082 66.7163 28.2064C67.2266 28.2064 67.7766 28.1342 68.368 27.9954C68.9017 27.8692 69.4355 27.6853 69.9692 27.4454C70.0612 27.404 70.1026 27.2904 70.0576 27.1984L69.2047 25.4926Z" fill="#0B132B"/>
<path d="M8.6696 15.3335C7.90326 15.3353 7.16035 15.5607 6.43909 16.0097C5.71602 16.4605 5.11376 17.1186 4.62871 17.9859C4.61609 18.0094 4.60708 18.0364 4.59265 18.0617L4.67199 16.6083C4.70264 16.0277 4.22841 15.5445 3.64779 15.5643L0.1713 15.6887C0.0757329 15.6923 0 15.7717 0 15.8672L0.0108185 17.2394C0.0108185 17.3007 0.0522915 17.3566 0.111796 17.3747L1.71481 17.8543L1.75267 27.8474C1.75267 27.9448 1.83201 28.0241 1.92938 28.0241L4.78018 28.0205C4.87755 28.0205 4.95689 27.9412 4.95689 27.8438L4.93886 22.7733C4.93706 21.9998 5.00738 21.3038 5.15163 20.6835C5.29408 20.0632 5.49964 19.5295 5.76831 19.0805C6.03518 18.6315 6.34532 18.2943 6.69874 18.0689C6.94938 17.9102 7.21625 17.8183 7.50115 17.7876L7.79146 19.5186C7.80228 19.5872 7.86178 19.6376 7.93211 19.6376L9.60003 19.6358C9.6974 19.6358 9.77494 19.5583 9.77674 19.4609L9.82543 15.6599C9.82723 15.5805 9.77674 15.5066 9.70101 15.4832C9.39086 15.3804 9.04826 15.3335 8.6696 15.3335Z" fill="#0B132B"/>
<path d="M88.9078 8.41864L85.0905 15.0308C84.9156 15.3338 84.5929 15.5195 84.2448 15.5195H82.2361C81.724 15.5195 81.3075 15.1048 81.3075 14.5909V11.6156L83.7165 13.0059C83.9906 13.1646 84.3422 13.0708 84.5009 12.7949L84.8092 12.2612C84.9679 11.9871 84.8742 11.6355 84.5983 11.4768L80.79 9.27695C80.5646 9.14712 80.2869 9.14712 80.0615 9.27695L76.2532 11.4768C75.9792 11.6355 75.8836 11.9871 76.0423 12.2612L76.3506 12.7949C76.5093 13.069 76.8609 13.1646 77.135 13.0059L79.544 11.6156V14.5909C79.544 15.103 79.1293 15.5195 78.6154 15.5195H76.6085C76.2604 15.5195 75.9377 15.3338 75.7628 15.0308L71.9437 8.41864C71.7688 8.11571 71.7688 7.74426 71.9437 7.44133L72.948 5.70308C73.2041 5.25951 73.7721 5.10624 74.2157 5.36409L76.7924 6.8517L74.3834 8.24193C74.1093 8.40061 74.0137 8.75223 74.1724 9.02631L74.4807 9.56005C74.6394 9.83413 74.991 9.92969 75.2651 9.77101L79.0734 7.57116C79.2988 7.44133 79.4376 7.19971 79.4376 6.94005V2.54214C79.4376 2.22479 79.1798 1.96874 78.8642 1.96874H78.2493C77.932 1.96874 77.6759 2.22659 77.6759 2.54214V5.32442L75.0992 3.83681C74.6556 3.58076 74.5024 3.01277 74.7602 2.56919L75.7646 0.830942C75.9395 0.528011 76.2623 0.342285 76.6103 0.342285H84.2467C84.5965 0.342285 84.9174 0.528011 85.0923 0.830942L86.0967 2.56919C86.3527 3.01277 86.2013 3.58076 85.7577 3.83681L83.181 5.32442V2.54214C83.181 2.22479 82.9231 1.96874 82.6076 1.96874H81.9927C81.6753 1.96874 81.4175 2.22659 81.4193 2.54395V6.94186C81.4193 7.20151 81.5581 7.44313 81.7835 7.57296L85.5918 9.77282C85.8659 9.9315 86.2175 9.83773 86.3762 9.56185L86.6845 9.02811C86.8432 8.75403 86.7494 8.40242 86.4736 8.24374L84.0645 6.8535L86.6412 5.36589C87.0848 5.10984 87.6528 5.26131 87.9089 5.70489L88.9132 7.44313C89.0827 7.74426 89.0827 8.11752 88.9078 8.41864Z" fill="#056CE8"/>
<path d="M13.7091 35.6263H14.3312V37.7017C14.2807 37.7179 14.2068 37.7378 14.1094 37.7594C14.0139 37.781 13.9021 37.8027 13.7758 37.8243C13.6496 37.846 13.5126 37.864 13.3629 37.8784C13.2133 37.8928 13.0618 37.9001 12.9085 37.9001C12.5966 37.9001 12.3135 37.8496 12.0574 37.7468C11.8014 37.644 11.5814 37.4943 11.3975 37.2978C11.2136 37.1013 11.0711 36.8596 10.9719 36.5747C10.871 36.288 10.8223 35.9598 10.8223 35.5884C10.8223 35.2169 10.8782 34.887 10.9918 34.5985C11.1054 34.31 11.2568 34.0683 11.4498 33.8718C11.6427 33.6752 11.8663 33.5256 12.126 33.4228C12.3838 33.32 12.6597 33.2695 12.9554 33.2695C13.1556 33.2695 13.3341 33.2822 13.4909 33.3074C13.646 33.3326 13.7795 33.3633 13.8912 33.3976C14.003 33.4318 14.0932 33.4661 14.1635 33.5003C14.2338 33.5346 14.2825 33.5598 14.3078 33.5779L14.1094 34.0972C13.985 34.016 13.8209 33.9493 13.6172 33.8952C13.4116 33.8411 13.2024 33.8159 12.9897 33.8159C12.7643 33.8159 12.5569 33.8556 12.3712 33.9367C12.1855 34.0178 12.0268 34.1351 11.8969 34.2883C11.7671 34.4416 11.6643 34.6291 11.5922 34.8491C11.5201 35.0691 11.484 35.3161 11.484 35.5884C11.484 35.8535 11.5147 36.0951 11.576 36.3115C11.6373 36.5296 11.7311 36.7154 11.8573 36.8722C11.9835 37.0291 12.1386 37.1481 12.3243 37.2347C12.51 37.3194 12.7282 37.3627 12.9806 37.3627C13.1592 37.3627 13.3124 37.3537 13.4387 37.3339C13.5649 37.314 13.655 37.296 13.7109 37.2798V35.6263H13.7091Z" fill="#056CE8"/>
<path d="M18.6138 37.2728V37.8101H15.9434V33.3726H16.5636V37.2728H18.6138Z" fill="#056CE8"/>
<path d="M19.4395 35.5884C19.4395 35.2079 19.4953 34.8743 19.6089 34.5822C19.7225 34.2901 19.8758 34.0503 20.0706 33.8556C20.2653 33.6608 20.4907 33.5148 20.7485 33.4174C21.0064 33.32 21.2805 33.2695 21.5708 33.2695C21.8575 33.2695 22.1262 33.3182 22.3804 33.4174C22.6347 33.5148 22.8582 33.6626 23.0494 33.8556C23.2423 34.0503 23.3938 34.2919 23.5074 34.5822C23.621 34.8725 23.6769 35.2079 23.6769 35.5884C23.6769 35.9689 23.621 36.3043 23.5074 36.5946C23.3938 36.8849 23.2423 37.1265 23.0494 37.3212C22.8564 37.516 22.6347 37.662 22.3804 37.7594C22.1262 37.8568 21.8557 37.9073 21.5708 37.9073C21.2805 37.9073 21.0064 37.8586 20.7485 37.7594C20.4907 37.6602 20.2635 37.5142 20.0706 37.3212C19.8758 37.1265 19.7225 36.8849 19.6089 36.5946C19.4953 36.3043 19.4395 35.9689 19.4395 35.5884ZM20.0922 35.5884C20.0922 35.8571 20.1265 36.1023 20.195 36.3223C20.2635 36.5423 20.3609 36.728 20.4871 36.8831C20.6133 37.0381 20.7666 37.1553 20.9487 37.2383C21.1308 37.3212 21.3346 37.3627 21.56 37.3627C21.7854 37.3627 21.9891 37.3212 22.1676 37.2383C22.348 37.1553 22.4994 37.0363 22.6256 36.8831C22.7519 36.7298 22.8492 36.5423 22.9178 36.3223C22.9863 36.1023 23.0205 35.8571 23.0205 35.5884C23.0205 35.3197 22.9863 35.0745 22.9178 34.8545C22.8492 34.6345 22.7519 34.4488 22.6256 34.2937C22.4994 34.1387 22.348 34.0215 22.1676 33.9385C21.9891 33.8556 21.7854 33.8141 21.56 33.8141C21.3328 33.8141 21.129 33.8556 20.9487 33.9385C20.7666 34.0215 20.6133 34.1405 20.4871 34.2937C20.3609 34.447 20.2635 34.6345 20.195 34.8545C20.1265 35.0745 20.0922 35.3197 20.0922 35.5884Z" fill="#056CE8"/>
<path d="M26.4395 37.8498C26.3493 37.8498 26.252 37.848 26.1474 37.8426C26.0428 37.839 25.9382 37.8318 25.8336 37.8228C25.729 37.8138 25.6263 37.8029 25.5235 37.7903C25.4207 37.7777 25.3269 37.7597 25.2422 37.7398V33.4357C25.3269 33.414 25.4207 33.3978 25.5235 33.3852C25.6263 33.3726 25.729 33.3617 25.8336 33.3527C25.9382 33.3437 26.041 33.3383 26.1438 33.3329C26.2465 33.3293 26.3421 33.3257 26.4323 33.3257C26.6883 33.3257 26.9281 33.3455 27.1535 33.3834C27.3789 33.4213 27.5719 33.4862 27.736 33.5781C27.9 33.6701 28.0299 33.7909 28.1236 33.9406C28.2174 34.0902 28.2643 34.2741 28.2643 34.4905C28.2643 34.734 28.2066 34.9341 28.0912 35.0892C27.9758 35.2442 27.8225 35.3615 27.6296 35.439C27.8892 35.5165 28.0966 35.6373 28.2517 35.8032C28.4049 35.9691 28.4825 36.2053 28.4825 36.5083C28.4825 36.9518 28.3184 37.2854 27.992 37.5108C27.6656 37.738 27.1481 37.8498 26.4395 37.8498ZM25.8553 35.2424H26.508C26.6613 35.2424 26.8073 35.2316 26.9444 35.21C27.0814 35.1884 27.1986 35.1505 27.2996 35.0946C27.4006 35.0387 27.4799 34.9666 27.5358 34.8764C27.5935 34.7862 27.6224 34.6744 27.6224 34.5374C27.6224 34.4094 27.5917 34.3012 27.5322 34.2146C27.4727 34.1263 27.3898 34.056 27.2852 34.0037C27.1806 33.9496 27.058 33.9099 26.9173 33.8847C26.7767 33.8594 26.627 33.8468 26.4683 33.8468C26.3097 33.8468 26.187 33.8486 26.0969 33.854C26.0067 33.8594 25.9256 33.8648 25.8535 33.8738V35.2424H25.8553ZM25.8553 35.7419V37.3053C25.9021 37.3089 25.958 37.3143 26.0212 37.3179C26.0771 37.3215 26.142 37.3251 26.2159 37.3269C26.2898 37.3287 26.3764 37.3305 26.4755 37.3305C26.6595 37.3305 26.8326 37.3179 26.9967 37.2944C27.1608 37.271 27.305 37.2295 27.4294 37.17C27.5538 37.1105 27.653 37.0276 27.7269 36.9212C27.8009 36.8148 27.8387 36.6796 27.8387 36.5173C27.8387 36.373 27.8117 36.2486 27.7558 36.1494C27.6999 36.0485 27.6206 35.9691 27.516 35.9096C27.4114 35.8501 27.287 35.8068 27.1409 35.7816C26.9949 35.7563 26.8344 35.7437 26.6541 35.7437H25.8553V35.7419Z" fill="#056CE8"/>
<path d="M32.9637 37.8098C32.8916 37.6169 32.8231 37.4293 32.7582 37.2436C32.6951 37.0579 32.6283 36.8686 32.5598 36.6774H30.5493L30.1454 37.8116H29.498C29.6693 37.3428 29.828 36.9082 29.9777 36.5079C30.1273 36.1094 30.2734 35.729 30.4159 35.3719C30.5583 35.0131 30.7008 34.6705 30.8414 34.3441C30.982 34.0178 31.1299 33.695 31.2832 33.374H31.853C32.0062 33.695 32.1541 34.0178 32.2947 34.3441C32.4354 34.6705 32.5778 35.0131 32.7203 35.3719C32.8627 35.7308 33.0088 36.1094 33.1585 36.5079C33.3081 36.9064 33.4686 37.341 33.6381 37.8116H32.9637V37.8098ZM32.3813 36.1653C32.2443 35.7939 32.109 35.435 31.9756 35.087C31.8404 34.739 31.7015 34.4054 31.5555 34.0845C31.4058 34.4054 31.2633 34.739 31.1299 35.087C30.9947 35.435 30.8612 35.7939 30.7296 36.1653H32.3813Z" fill="#056CE8"/>
<path d="M37.5552 37.2728V37.8101H34.8848V33.3726H35.5051V37.2728H37.5552Z" fill="#056CE8"/>
<path d="M40.9688 37.8101V33.3726H43.6446V33.9045H41.589V35.2424H43.4138V35.7672H41.589V37.8101H40.9688Z" fill="#056CE8"/>
<path d="M45.0488 33.3726H45.6709V37.8101H45.0488V33.3726Z" fill="#056CE8"/>
<path d="M50.4524 37.81C50.3586 37.6513 50.2504 37.4746 50.1296 37.2781C50.0088 37.0815 49.8772 36.8778 49.7365 36.6668C49.5959 36.4558 49.4498 36.2412 49.2984 36.0231C49.1469 35.8049 48.9972 35.5957 48.8476 35.392C48.6979 35.19 48.5537 34.9989 48.413 34.8185C48.2724 34.64 48.1425 34.4814 48.0217 34.3443V37.8082H47.4141V33.3706H47.9081C48.1083 33.5834 48.3229 33.8322 48.5519 34.1171C48.7809 34.402 49.0063 34.6941 49.2298 34.9953C49.4534 35.2964 49.6662 35.5921 49.8646 35.8824C50.0629 36.1727 50.2306 36.4306 50.3676 36.6578V33.3724H50.9753V37.81H50.4524Z" fill="#056CE8"/>
<path d="M55.6786 37.8098C55.6064 37.6169 55.5379 37.4293 55.473 37.2436C55.4081 37.0579 55.3432 36.8686 55.2747 36.6774H53.2641L52.8602 37.8116H52.2129C52.3842 37.3428 52.5429 36.9082 52.6925 36.5079C52.8422 36.1076 52.9882 35.729 53.1307 35.3719C53.2731 35.0131 53.4156 34.6705 53.5562 34.3441C53.6969 34.0178 53.8448 33.695 53.998 33.374H54.5678C54.7211 33.695 54.8689 34.0178 55.0096 34.3441C55.1502 34.6705 55.2927 35.0131 55.4351 35.3719C55.5776 35.7308 55.7236 36.1094 55.8733 36.5079C56.023 36.9064 56.1834 37.341 56.3529 37.8116H55.6786V37.8098ZM55.0961 36.1653C54.9591 35.7939 54.8239 35.435 54.6886 35.087C54.5534 34.739 54.4145 34.4054 54.2685 34.0845C54.1188 34.4054 53.9764 34.739 53.8429 35.087C53.7077 35.435 53.5743 35.7939 53.4426 36.1653H55.0961Z" fill="#056CE8"/>
<path d="M60.6399 37.81C60.5461 37.6513 60.4379 37.4746 60.3171 37.2781C60.1963 37.0815 60.0647 36.8778 59.924 36.6668C59.7834 36.4558 59.6373 36.2412 59.4859 36.0231C59.3344 35.8049 59.1847 35.5957 59.0351 35.392C58.8854 35.19 58.7412 34.9989 58.6005 34.8185C58.4599 34.64 58.33 34.4814 58.2092 34.3443V37.8082H57.6016V33.3706H58.0956C58.2958 33.5834 58.5104 33.8322 58.7394 34.1171C58.9684 34.402 59.1938 34.6941 59.4173 34.9953C59.6409 35.2964 59.8537 35.5921 60.0521 35.8824C60.2504 36.1727 60.4181 36.4306 60.5551 36.6578V33.3724H61.1628V37.81H60.6399Z" fill="#056CE8"/>
<path d="M64.8089 37.9073C64.497 37.9073 64.2139 37.8568 63.9578 37.754C63.7018 37.6512 63.4818 37.5015 63.2979 37.305C63.1139 37.1085 62.9715 36.8668 62.8723 36.5783C62.7713 36.2898 62.7227 35.9598 62.7227 35.5884C62.7227 35.2169 62.7785 34.887 62.8921 34.5985C63.0057 34.31 63.1572 34.0683 63.3502 33.8718C63.5431 33.6752 63.7667 33.5256 64.0227 33.4228C64.2788 33.32 64.5529 33.2695 64.8432 33.2695C65.0271 33.2695 65.193 33.2822 65.339 33.3074C65.4869 33.3326 65.6149 33.3633 65.7231 33.3976C65.8313 33.4318 65.9197 33.4661 65.9882 33.5003C66.0567 33.5346 66.1036 33.5598 66.1288 33.5779L65.9503 34.09C65.9124 34.0647 65.8565 34.0377 65.7844 34.007C65.7123 33.9764 65.6293 33.9475 65.5374 33.9169C65.4454 33.8862 65.3444 33.8628 65.2363 33.8429C65.1281 33.8231 65.0181 33.8141 64.9063 33.8141C64.6719 33.8141 64.4609 33.8538 64.2716 33.9349C64.084 34.016 63.9236 34.1332 63.7919 34.2865C63.6603 34.4398 63.5575 34.6273 63.4872 34.8473C63.4169 35.0673 63.3808 35.3143 63.3808 35.5866C63.3808 35.8517 63.4115 36.0933 63.4728 36.3097C63.5341 36.5278 63.6278 36.7136 63.7505 36.8704C63.8749 37.0273 64.0281 37.1463 64.2157 37.2329C64.4014 37.3176 64.6178 37.3609 64.8648 37.3609C65.1515 37.3609 65.3877 37.3303 65.5753 37.2707C65.7628 37.2112 65.9034 37.1571 65.9972 37.1103L66.1577 37.6224C66.127 37.644 66.0747 37.671 65.9972 37.7017C65.9197 37.7342 65.8241 37.7648 65.7087 37.7937C65.5933 37.8243 65.4599 37.8496 65.3048 37.8712C65.1551 37.8964 64.9892 37.9073 64.8089 37.9073Z" fill="#056CE8"/>
<path d="M67.5117 37.8101V33.3726H70.2201V33.9045H68.132V35.2244H69.9893V35.7437H68.132V37.28H70.3787V37.8119H67.5117V37.8101Z" fill="#056CE8"/>
</svg>
