<svg width="74" height="48" viewBox="0 0 74 48" fill="none" xmlns="http://www.w3.org/2000/svg">
<path d="M3.21547 45.0108C2.31614 45.1972 1.40237 45.0054 0.5 45.1161C0.5 41.3233 0.5 37.5306 0.5 33.7379C0.72697 33.5069 0.699407 33.1813 0.808329 32.9059C1.4592 31.2608 2.60945 30.122 4.25888 29.4884C5.41901 29.0428 6.582 28.6045 7.74365 28.1629C7.76513 28.154 7.78965 28.133 7.80771 28.1376C8.35613 28.2788 9.49706 29.7867 9.4771 30.3469C9.47558 30.3872 9.42901 30.4229 9.39536 30.4571C8.34472 31.0734 7.17356 31.4007 6.04841 31.8332C3.96899 32.6323 3.41012 33.388 3.40879 35.5923C3.40708 38.3893 3.40993 41.1865 3.4067 43.9835C3.40651 44.3359 3.44909 44.7001 3.21547 45.0108Z" fill="#6D0337"/>
<path d="M51.4096 45.0755C51.3446 45.6826 51.3467 46.29 51.4075 46.8973C51.2385 47.1576 50.9777 47.0258 50.764 47.0274C49.0363 47.0393 47.3084 47.0348 45.5806 47.0336C44.7505 47.0331 44.6642 46.9641 44.656 46.0967C44.6359 43.9667 44.6512 41.8363 44.6482 39.7061C44.6478 39.3986 44.6632 39.088 44.5845 38.7878C44.5127 38.5141 44.3465 38.3171 44.0416 38.316C43.7099 38.3149 43.6094 38.5472 43.5717 38.83C43.531 39.1364 43.5405 39.4442 43.5402 39.7518C43.5377 41.8346 43.5487 43.9174 43.5346 46.0003C43.528 46.9855 43.4656 47.0353 42.4888 47.0336C38.5126 47.0264 34.5363 47.0502 30.5605 47.022C30.2069 46.739 30.3029 46.3343 30.3008 45.9712C30.2888 43.8711 30.2957 41.7707 30.2949 39.6704C30.2949 39.4345 30.3048 39.1978 30.2807 38.9629C30.2542 38.7044 30.2417 38.4261 29.9356 38.3247C29.6387 38.2265 29.4401 38.3833 29.2853 38.6182C29.1072 38.8984 29.149 39.2119 29.1487 39.5162C29.1458 41.689 29.1511 43.8619 29.1454 46.0347C29.1428 47.0258 29.1295 47.0344 28.1756 47.0336C27.2782 47.0329 26.3805 47.0389 25.4837 47.03C25.1503 46.8793 25.1925 46.5635 25.1915 46.2934C25.1773 42.0777 25.1601 37.8619 25.1982 33.6466C25.2096 32.3838 25.9863 31.5206 27.0386 30.9661C28.8189 30.0282 30.6679 29.2262 32.4753 28.3405C32.6897 28.2354 32.914 28.1603 33.1596 28.1953C33.494 28.2635 33.6685 28.5238 33.8401 28.7791C34.5671 29.8601 35.282 30.9492 36.0118 32.0283C36.3041 32.4606 36.4022 32.9284 36.4009 33.4399C36.3957 35.2401 36.3971 37.0401 36.4001 38.8403C36.4007 39.1473 36.3784 39.4598 36.5035 39.7514C36.6149 40.0109 36.7946 40.1909 37.1036 40.1437C37.3779 40.1019 37.4966 39.9056 37.5378 39.6504C37.5758 39.4153 37.5656 39.1779 37.5658 38.9414C37.5673 37.165 37.5686 35.3886 37.5648 33.6122C37.5637 33.1299 37.6277 32.6689 37.8691 32.2426C38.9665 30.3049 39.8805 28.2711 40.9669 26.3275C41.0479 26.1826 41.1228 26.0343 41.249 25.9209C41.3187 25.8669 41.3935 25.8593 41.4729 25.8971C43.063 26.436 44.6414 27.0135 46.2465 27.5036C48.0606 28.0575 49.5429 29.023 50.5603 30.6484C51.019 30.9475 51.134 31.4487 51.2684 31.9196C51.543 32.8815 51.5968 33.8768 51.6409 34.8719C51.6548 37.9138 51.6472 40.9549 51.6466 43.996C51.6461 44.3714 51.6778 44.7575 51.4096 45.0755Z" fill="#005EDE"/>
<path d="M51.4096 45.0755C51.3958 42.455 51.3779 39.8346 51.3703 37.214C51.3678 36.3886 51.3933 35.5634 51.4058 34.7381C51.5807 34.2788 51.4454 33.76 51.7086 33.3103C52.0651 32.7016 52.5106 32.179 53.1583 31.8969C54.5249 31.3014 55.9321 30.806 57.327 30.2806C57.4601 30.2304 57.6025 30.2118 57.7467 30.2384C58.1452 30.365 58.2701 30.7628 58.5328 31.0231C60.2031 32.6794 60.7363 34.6822 60.4455 36.9737C60.3687 37.5784 60.4238 38.2021 60.4411 38.8167C60.4491 39.102 60.4824 39.3849 60.6474 39.6308C60.7772 39.8245 60.9564 39.9217 61.1929 39.8709C61.4005 39.8264 61.5115 39.6827 61.5604 39.4833C61.6117 39.274 61.6041 39.0606 61.6045 38.848C61.6062 37.4528 61.6227 36.0571 61.5978 34.6622C61.5855 33.9735 61.7512 33.3781 62.1329 32.7959C63.0144 31.4515 63.8576 30.0819 64.7127 28.7201C64.8377 28.5209 64.9404 28.3031 65.1472 28.1671C65.2227 28.1276 65.2981 28.128 65.3732 28.1677C66.7563 28.6523 68.1461 29.1191 69.5214 29.6251C71.8968 30.4992 73.3121 32.5336 73.3198 35.0745C73.3293 38.1783 73.3071 41.2824 73.3364 44.3858C73.3415 44.9361 73.1754 45.0429 72.6597 45.0416C65.8833 45.0245 59.1068 45.0296 52.3304 45.0321C52.0234 45.0327 51.7164 45.0606 51.4096 45.0755Z" fill="#900348"/>
<path d="M3.21551 45.0108C3.21114 41.6334 3.17882 38.2558 3.2157 34.8789C3.23148 33.4231 3.97569 32.3942 5.36926 31.8725C6.73469 31.3614 8.09632 30.8402 9.45966 30.3235C9.81361 30.298 9.93584 30.5965 10.0995 30.8088C10.7061 31.5963 11.2591 32.424 11.871 33.2076C12.1508 33.5659 12.2194 33.9704 12.2187 34.4076C12.216 35.8042 12.2166 37.2008 12.2181 38.5974C12.2183 38.8103 12.2082 39.0244 12.2422 39.2354C12.3002 39.5949 12.4563 39.8895 12.8714 39.8623C13.2598 39.837 13.363 39.5253 13.3723 39.1991C13.4094 37.8975 13.4474 36.5916 13.3691 35.295C13.2953 34.0715 13.6193 33.0403 14.3167 32.0472C15.0636 30.9835 15.7259 29.8589 16.4214 28.7587C16.5919 28.4891 16.7172 28.141 17.1422 28.1772C18.4907 28.6531 19.8383 29.1316 21.188 29.6044C21.9046 29.8555 22.5559 30.2165 23.128 30.7175C23.305 31.0021 23.1642 31.2694 23.0708 31.531C22.749 32.4326 22.6249 33.3614 22.6268 34.3158C22.633 37.5061 22.633 40.6966 22.6245 43.8869C22.6234 44.2776 22.7146 44.7 22.3922 45.0307C15.9996 45.0241 9.60755 45.0174 3.21551 45.0108Z" fill="#900348"/>
<path d="M46.7243 13.5401C46.5495 17.4581 44.8267 20.4672 41.4582 22.5103C41.3932 22.6075 41.3368 22.7113 41.2466 22.7898C38.2029 24.3291 35.1895 24.213 32.2049 22.6198C31.9709 22.4949 31.7768 22.3239 31.6626 22.0762C28.8659 20.099 27.4515 17.3607 27.0749 13.9887C26.8799 12.2423 27.0274 10.5032 26.966 8.76211C26.9622 8.65414 27.0306 8.5437 27.0654 8.43439C27.3608 8.66212 27.2732 8.99327 27.277 9.28753C27.2918 10.4448 27.2762 11.6025 27.2868 12.9124C27.637 12.1573 27.9592 11.5432 28.409 11.0134C29.6754 9.52172 31.2689 8.81211 33.2364 9.04592C35.2962 9.29076 37.0129 8.69824 38.3238 7.03988C39.2454 5.87404 39.2895 5.8634 39.9899 7.16591C41.4042 9.79621 43.4627 11.7403 46.1141 13.0802C46.3447 13.197 46.5974 13.2855 46.7243 13.5401Z" fill="#B28B67"/>
<path d="M1.90688 12.0843C2.06067 8.33534 5.10936 4.74032 9.00568 3.7353C10.8068 3.27072 12.6155 3.25209 14.3811 3.87426C15.8205 4.38143 17.2806 4.87263 18.6415 5.55125C21.74 7.09594 23.4888 9.63443 23.6793 13.1226C23.7981 15.2969 23.7635 17.4786 23.6821 19.6569C23.3953 19.7473 23.2607 19.5149 23.0923 19.3696C21.9743 18.4059 20.9258 17.3685 19.8864 16.3219C17.8914 14.3326 15.8842 12.3541 14.0638 10.1994C13.73 9.80438 13.4909 9.73404 13.1297 10.1825C11.1524 12.6385 8.58083 14.2138 5.60912 15.1849C4.59555 15.5292 3.54396 15.6898 2.49465 15.8649C2.00383 15.9468 1.81393 15.7862 1.84415 15.2659C1.90593 14.2073 1.78826 13.1433 1.90688 12.0843Z" fill="#3A3A3A"/>
<path d="M50.1469 15.8149C49.968 12.8596 50.0142 9.96561 51.8891 7.42028C54.6909 3.61691 59.7924 2.32904 64.0179 4.421C64.5274 4.67325 65.0513 4.85726 65.5946 5.01751C69.0658 6.04154 71.784 9.34458 71.9098 12.6661C72.0429 14.2206 71.9366 15.7781 71.967 17.334C71.9786 17.9246 71.9516 18.5163 71.9743 19.1062C71.9931 19.6016 71.7731 19.6194 71.4165 19.4347C71.2899 19.3691 71.1759 19.2811 71.0793 19.1777C70.2239 18.2607 69.1953 17.5263 68.3543 16.596C66.238 14.47 64.1561 12.3102 62.1959 10.0371C61.9298 9.72857 61.7543 9.79244 61.5239 10.07C59.4915 12.5182 56.9574 14.2193 53.9125 15.1563C52.9293 15.4726 51.9148 15.6494 50.9037 15.8383C50.655 15.8847 50.3952 15.9406 50.1469 15.8149Z" fill="#3A3A3A"/>
<path d="M46.7244 13.5401C43.3039 12.0875 40.8669 9.63317 39.3051 6.15943C38.98 6.54418 38.6928 6.86961 38.4215 7.2076C37.1107 8.84125 35.4107 9.49403 33.3432 9.25185C30.9931 8.9766 29.1135 9.9396 27.9678 11.9947C27.7173 12.4443 27.4734 12.8974 27.0654 13.3326C27.0654 11.6997 27.0654 10.0668 27.0654 8.43426C27.0841 8.15958 27.1027 7.88471 27.1213 7.60983C27.0903 6.21532 27.6095 5.03713 28.5343 4.01861C30.0155 2.12377 31.8675 0.818791 34.2813 0.410473C36.2136 0.0837042 38.0501 0.368082 39.7868 1.28205C40.0371 1.41378 40.2871 1.53297 40.5677 1.60843C43.5445 2.40834 45.5144 4.2701 46.4398 7.22128C46.4672 7.30892 46.516 7.38971 46.555 7.47373C46.8865 9.48813 46.7354 11.516 46.7244 13.5401Z" fill="#3A3A3A"/>
<path d="M31.6626 22.0762C33.4784 23.2871 35.4793 23.7739 37.6501 23.6442C38.9449 23.5669 40.1316 23.1251 41.3123 22.6461C41.4594 23.7408 41.3959 24.838 41.3474 25.9349C40.2571 28.0595 39.1709 30.1865 38.0727 32.3071C37.8826 32.6742 37.7902 33.0411 37.7933 33.4585C37.8072 35.4248 37.7929 37.3911 37.7992 39.3574C37.8009 39.9002 37.7287 40.379 37.0548 40.425C36.5227 40.4613 36.2444 40.0884 36.2427 39.3364C36.2379 37.3227 36.2446 35.3089 36.2435 33.2952C36.2433 33.0384 36.2703 32.7829 36.1062 32.5438C35.1432 31.1407 34.1903 29.731 33.2341 28.3234C32.6049 27.5746 31.8672 26.8967 31.6404 25.8849C31.6478 24.6154 31.6552 23.3458 31.6626 22.0762Z" fill="#A58163"/>
<path d="M31.6404 25.885C32.1717 26.6978 32.7028 27.5107 33.2341 28.3235C32.9882 28.3113 32.776 28.4117 32.561 28.5146C30.7721 29.3694 28.9555 30.1712 27.2006 31.0907C26.0888 31.6731 25.3666 32.5726 25.3774 33.9681C25.4111 38.2954 25.3892 42.623 25.389 46.9505C24.3954 47.078 23.4022 47.1088 22.4101 46.9356C22.404 46.3007 22.3979 45.6658 22.3918 45.0309C22.4012 41.5946 22.4329 38.1583 22.4086 34.7222C22.3987 33.3317 22.551 31.9923 23.1277 30.7177C24.1065 29.05 25.5436 27.9969 27.3831 27.4143C28.8194 26.959 30.2225 26.3986 31.6404 25.885Z" fill="#0F52A3"/>
<path d="M65.2223 28.2066C64.2137 29.834 63.2176 31.4693 62.1877 33.083C61.9322 33.4834 61.8219 33.8767 61.8267 34.3447C61.8434 35.9536 61.828 37.5629 61.8339 39.1721C61.8358 39.6984 61.7352 40.1383 61.0897 40.1476C60.4483 40.1569 60.2936 39.688 60.2862 39.1911C60.2624 37.5823 60.2637 35.9728 60.2831 34.3639C60.2883 33.9377 60.1847 33.5877 59.9273 33.2518C59.1806 32.2774 58.4514 31.2895 57.7154 30.3069C56.958 29.742 56.61 28.8413 55.9703 28.1798C56.1144 27.6599 56.2948 27.1371 55.853 26.6623C55.9844 25.6451 55.7812 24.6112 56.004 23.599C56.3117 23.2942 56.464 23.64 56.6235 23.7786C57.4903 24.5317 58.4328 25.1281 59.5659 25.4035C61.3454 25.8358 62.9748 25.4822 64.5106 24.5355C64.7625 24.3802 65.0432 24.0422 65.3462 24.4903C65.5527 25.7381 65.2793 26.9687 65.2223 28.2066Z" fill="#A58163"/>
<path d="M17.142 28.1772C16.7846 28.3389 16.6881 28.7079 16.5016 29.0004C15.6245 30.3758 14.7655 31.7629 13.8829 33.1346C13.6686 33.4676 13.5774 33.8003 13.5814 34.196C13.5977 35.8048 13.5823 37.4137 13.5903 39.0225C13.5932 39.5831 13.5451 40.1005 12.8282 40.1467C12.2884 40.1815 12.0279 39.7887 12.027 38.9839C12.0255 37.4223 12.0188 35.8609 12.0338 34.2994C12.0374 33.9252 11.9445 33.6256 11.7114 33.325C10.9452 32.3367 10.208 31.3258 9.45961 30.3235C8.92298 29.5751 8.52169 28.7195 7.74384 28.1627C7.6794 27.659 8.0267 27.0875 7.49634 26.6606C7.74422 26.0975 7.68225 25.5005 7.69213 24.9102C7.69803 24.5574 7.6467 24.1972 7.80068 23.8592C8.21584 23.5602 8.38825 23.9809 8.6099 24.1611C10.4091 25.6248 12.4096 26.1061 14.6563 25.4484C15.2532 25.2737 15.7804 24.9579 16.3079 24.639C16.5375 24.5 16.7742 24.2685 17.0711 24.5274C17.1983 24.7353 17.2222 24.973 17.1945 25.1995C17.112 25.8749 17.2469 26.4194 17.9678 26.6629C17.9484 26.6758 17.9303 26.6975 17.9094 26.7005C16.907 26.8526 16.7863 27.0843 17.142 28.1772Z" fill="#A58163"/>
<path d="M7.89525 23.7772C7.88974 24.5693 7.87225 25.3616 7.8846 26.1535C7.88917 26.4512 7.84126 26.6565 7.49606 26.6607C4.01395 26.4362 1.84253 24.1397 1.82428 20.6599C1.81097 18.1731 1.79462 15.6863 1.79234 13.1995C1.79196 12.8275 1.71744 12.4401 1.90697 12.0842C1.91305 13.0978 1.95525 14.1129 1.91058 15.1242C1.88701 15.6566 2.07045 15.7711 2.53465 15.6678C3.60867 15.4291 4.68402 15.1972 5.75899 14.9624C5.97323 15.2525 5.82952 15.562 5.78599 15.8539C5.38774 18.519 5.96905 20.9347 7.58882 23.0961C7.73918 23.297 7.96996 23.4711 7.89525 23.7772Z" fill="#4C4C4C"/>
<path d="M56.109 23.5012C56.1141 24.3715 56.1215 25.2417 56.1227 26.1121C56.1228 26.3351 56.1943 26.6033 55.8527 26.6626C52.9413 26.6714 50.6535 24.614 50.1933 21.9714C50.0386 21.0833 50.1268 20.1803 50.1228 19.2842C50.1176 18.1279 50.1378 16.9716 50.1471 15.8152C51.4281 15.5331 52.7094 15.2508 53.9904 14.9688C54.2392 15.3788 54.041 15.8046 53.9993 16.2095C53.7514 18.6155 54.2951 20.8006 55.7263 22.7587C55.8917 22.9849 56.0953 23.195 56.109 23.5012Z" fill="#4C4C4C"/>
<path d="M68.3579 16.384C69.48 17.4124 70.6021 18.4408 71.724 19.4692C71.786 19.4487 71.848 19.4282 71.9098 19.4076C71.9098 17.1604 71.9098 14.9133 71.9098 12.666C71.9461 12.8244 72.0145 12.9827 72.0141 13.1411C72.0098 15.8164 72.0444 18.4931 71.9734 21.1671C71.8885 24.3723 69.2637 26.719 66.1737 26.6627C65.2889 26.7268 65.2949 26.7268 65.286 25.8466C65.2805 25.3052 65.3263 24.7627 65.2529 24.2236C65.2683 23.9383 65.4708 23.7644 65.6485 23.579C67.3272 21.8283 68.1277 19.7283 68.157 17.3159C68.1611 16.9967 68.0767 16.6479 68.3579 16.384Z" fill="#4C4C4C"/>
<path d="M17.9678 26.6627C17.0069 26.5848 17.0096 26.5848 17.0056 25.6018C17.0041 25.2296 16.9877 24.8574 16.978 24.4854C16.9318 24.1786 17.1573 24.0119 17.3314 23.8279C19.2283 21.8228 20.0208 19.425 19.8796 16.6933C19.871 16.5262 19.8501 16.3597 20.0064 16.2407C21.222 17.3898 22.3951 18.5846 23.6822 19.6567C23.7582 21.0799 23.7497 22.4889 22.9865 23.7701C21.8537 25.6714 20.1663 26.6103 17.9678 26.6627Z" fill="#4C4C4C"/>
<path d="M22.4102 46.9356C23.4026 47.0255 24.3959 47.0025 25.3891 46.9504C26.4051 46.9588 27.4221 46.9428 28.4368 46.986C28.9102 47.0061 28.9708 46.8071 28.9683 46.4062C28.9535 44.0184 28.9579 41.6307 28.9653 39.2429C28.9661 38.969 28.8754 38.6719 29.087 38.4257C29.3671 38.7149 29.3082 39.0848 29.3097 39.4311C29.3183 41.4837 29.3122 43.5365 29.3145 45.5892C29.3156 46.5543 29.3179 46.5545 30.23 46.7959C30.3461 46.8267 30.4444 46.8921 30.5451 46.9529C34.6196 46.9603 38.694 46.9597 42.7683 46.9856C43.2629 46.9886 43.2844 46.7578 43.2828 46.3807C43.2728 43.9407 43.2771 41.5007 43.2785 39.0606C43.2787 38.7308 43.2437 38.3883 43.5404 38.1417C43.7828 37.9402 44.0645 37.9093 44.3428 38.0153C44.7203 38.1594 44.861 38.4752 44.861 38.8631C44.8614 40.2371 44.8616 41.6111 44.8618 42.9851C44.8619 44.1458 44.8585 45.3067 44.865 46.4674C44.8661 46.6828 44.7745 46.9801 45.1646 46.9723C47.2453 46.9306 49.3283 47.0717 51.4078 46.8976C51.281 47.1992 51.0103 47.1036 50.7907 47.1038C41.5224 47.108 32.2539 47.1078 22.9856 47.1051C22.7818 47.1051 22.5484 47.1719 22.4102 46.9356Z" fill="#FDFEFE"/>
<path d="M55.9703 28.1802C56.4157 28.1912 56.4999 28.6047 56.7035 28.8664C57.0633 29.3291 57.3802 29.8252 57.7152 30.3073C56.3963 30.8213 55.0862 31.3598 53.7557 31.8421C52.4523 32.3147 51.6807 33.1794 51.532 34.5747C51.5258 34.6329 51.4491 34.6836 51.4054 34.738C51.3763 33.3225 51.2414 31.9288 50.5593 30.6485C51.8071 29.5804 53.3868 29.212 54.8571 28.6138C55.2261 28.4638 55.5992 28.3245 55.9703 28.1802Z" fill="#6D0337"/>
<path d="M65.3644 24.0689C65.3511 24.6069 65.3771 25.1496 65.3146 25.6818C65.2347 26.3637 65.398 26.7642 66.1744 26.6625C65.3203 26.8325 65.3203 26.8325 65.3731 28.1682C65.3227 28.1812 65.2726 28.1939 65.2222 28.2068C65.2108 26.914 65.1994 25.6214 65.1882 24.3286C65.138 24.1679 65.1321 24.0375 65.3644 24.0689Z" fill="#F4A796"/>
<path d="M41.3477 25.9348C41.3359 24.8385 41.3243 23.7422 41.3125 22.646C41.3612 22.6007 41.4098 22.5553 41.4583 22.5103C41.4631 23.6392 41.4676 24.7682 41.4724 25.8971C41.4345 25.9218 41.3929 25.9344 41.3477 25.9348Z" fill="#C3DADA"/>
<path d="M48.3361 35.3C48.3384 36.1008 48.1776 36.8541 47.636 37.4756C47.026 38.1759 46.2227 38.1713 45.6218 37.4803C44.6753 36.392 44.6736 34.2122 45.6186 33.1255C46.2196 32.4343 47.0241 32.4275 47.6337 33.1251C48.1761 33.7461 48.3382 34.4991 48.3361 35.3Z" fill="#FEFEFE"/>
<path d="M30.5449 46.953C29.0884 46.9919 29.0886 46.9919 29.0884 45.5183C29.088 43.1542 29.0872 40.79 29.0867 38.4258C29.2427 37.9665 29.6032 37.9046 29.9997 38.0006C30.4462 38.1087 30.5456 38.4667 30.5454 38.878C30.5432 41.5695 30.5447 44.2613 30.5449 46.953Z" fill="#FDFEFE"/>
<path d="M41.7485 42.1297C41.7417 42.2234 41.7497 42.369 41.7177 42.5051C41.5885 43.0555 41.3835 43.5974 40.7393 43.6592C40.1362 43.717 39.8143 43.2663 39.5893 42.7715C39.3028 42.1415 39.2564 41.4933 39.54 40.8498C39.9069 40.0176 40.7133 39.9151 41.271 40.6291C41.6016 41.0523 41.7489 41.545 41.7485 42.1297Z" fill="#FDFEFE"/>
<path d="M20.0061 16.241C20.3133 19.3367 19.4742 22.0267 17.1903 24.2072C17.1068 24.2869 17.0481 24.3924 16.9777 24.4857C16.083 24.9385 15.2739 25.5565 14.255 25.766C11.9943 26.2307 10.0272 25.6831 8.3236 24.1416C8.18465 24.0158 8.03809 23.8985 7.89495 23.7772C5.65585 21.2091 5.0333 18.2491 5.75869 14.9626C8.77013 13.9401 11.3305 12.2595 13.2932 9.73473C13.6437 9.28383 13.7696 9.60756 13.9598 9.82635C15.8893 12.0457 17.9157 14.1736 20.0061 16.241Z" fill="#B28B67"/>
<path d="M65.3643 24.0688C65.2293 24.1038 65.2111 24.2178 65.1883 24.3285C64.2692 24.8948 63.3577 25.4548 62.2618 25.657C60.3654 26.0068 58.6675 25.581 57.1437 24.4404C56.7744 24.1641 56.3741 23.9013 56.1087 23.5012C53.8981 21.0306 53.3619 18.144 53.9901 14.9683C57.1736 13.924 59.8008 12.0846 61.8609 9.38135C63.9357 11.8577 66.1743 14.0949 68.3577 16.3838C68.4333 18.5809 68.0438 20.6603 66.7864 22.5142C66.3889 23.1003 65.9619 23.6637 65.3643 24.0688Z" fill="#B28B67"/>
</svg>
